%TF.GenerationSoftware,KiCad,Pcbnew,(5.1.12)-1*%
%TF.CreationDate,2021-12-06T16:24:31+01:00*%
%TF.ProjectId,boneIO_input board,626f6e65-494f-45f6-996e-70757420626f,rev?*%
%TF.SameCoordinates,Original*%
%TF.FileFunction,Soldermask,Top*%
%TF.FilePolarity,Negative*%
%FSLAX46Y46*%
G04 Gerber Fmt 4.6, Leading zero omitted, Abs format (unit mm)*
G04 Created by KiCad (PCBNEW (5.1.12)-1) date 2021-12-06 16:24:31*
%MOMM*%
%LPD*%
G01*
G04 APERTURE LIST*
%ADD10R,0.900000X0.800000*%
%ADD11C,3.000000*%
%ADD12O,1.500000X3.000000*%
%ADD13O,2.000000X3.600000*%
%ADD14O,1.600000X2.250000*%
%ADD15C,2.540000*%
%ADD16R,2.540000X2.540000*%
%ADD17O,1.700000X1.700000*%
%ADD18R,1.700000X1.700000*%
%ADD19R,1.500000X1.000000*%
%ADD20R,2.500000X1.800000*%
%ADD21C,1.000000*%
%ADD22C,1.600000*%
%ADD23R,1.600000X1.600000*%
%ADD24C,2.000000*%
%ADD25R,1.300000X1.700000*%
%ADD26R,5.400000X2.900000*%
%ADD27R,1.100000X4.600000*%
%ADD28R,10.800000X9.400000*%
G04 APERTURE END LIST*
%TO.C,R126*%
G36*
G01*
X229955000Y-80105000D02*
X230505000Y-80105000D01*
G75*
G02*
X230705000Y-80305000I0J-200000D01*
G01*
X230705000Y-80705000D01*
G75*
G02*
X230505000Y-80905000I-200000J0D01*
G01*
X229955000Y-80905000D01*
G75*
G02*
X229755000Y-80705000I0J200000D01*
G01*
X229755000Y-80305000D01*
G75*
G02*
X229955000Y-80105000I200000J0D01*
G01*
G37*
G36*
G01*
X229955000Y-78455000D02*
X230505000Y-78455000D01*
G75*
G02*
X230705000Y-78655000I0J-200000D01*
G01*
X230705000Y-79055000D01*
G75*
G02*
X230505000Y-79255000I-200000J0D01*
G01*
X229955000Y-79255000D01*
G75*
G02*
X229755000Y-79055000I0J200000D01*
G01*
X229755000Y-78655000D01*
G75*
G02*
X229955000Y-78455000I200000J0D01*
G01*
G37*
%TD*%
%TO.C,R125*%
G36*
G01*
X230505000Y-74625000D02*
X229955000Y-74625000D01*
G75*
G02*
X229755000Y-74425000I0J200000D01*
G01*
X229755000Y-74025000D01*
G75*
G02*
X229955000Y-73825000I200000J0D01*
G01*
X230505000Y-73825000D01*
G75*
G02*
X230705000Y-74025000I0J-200000D01*
G01*
X230705000Y-74425000D01*
G75*
G02*
X230505000Y-74625000I-200000J0D01*
G01*
G37*
G36*
G01*
X230505000Y-76275000D02*
X229955000Y-76275000D01*
G75*
G02*
X229755000Y-76075000I0J200000D01*
G01*
X229755000Y-75675000D01*
G75*
G02*
X229955000Y-75475000I200000J0D01*
G01*
X230505000Y-75475000D01*
G75*
G02*
X230705000Y-75675000I0J-200000D01*
G01*
X230705000Y-76075000D01*
G75*
G02*
X230505000Y-76275000I-200000J0D01*
G01*
G37*
%TD*%
%TO.C,R124*%
G36*
G01*
X236535000Y-80155000D02*
X237085000Y-80155000D01*
G75*
G02*
X237285000Y-80355000I0J-200000D01*
G01*
X237285000Y-80755000D01*
G75*
G02*
X237085000Y-80955000I-200000J0D01*
G01*
X236535000Y-80955000D01*
G75*
G02*
X236335000Y-80755000I0J200000D01*
G01*
X236335000Y-80355000D01*
G75*
G02*
X236535000Y-80155000I200000J0D01*
G01*
G37*
G36*
G01*
X236535000Y-78505000D02*
X237085000Y-78505000D01*
G75*
G02*
X237285000Y-78705000I0J-200000D01*
G01*
X237285000Y-79105000D01*
G75*
G02*
X237085000Y-79305000I-200000J0D01*
G01*
X236535000Y-79305000D01*
G75*
G02*
X236335000Y-79105000I0J200000D01*
G01*
X236335000Y-78705000D01*
G75*
G02*
X236535000Y-78505000I200000J0D01*
G01*
G37*
%TD*%
%TO.C,R123*%
G36*
G01*
X236515000Y-75230000D02*
X237065000Y-75230000D01*
G75*
G02*
X237265000Y-75430000I0J-200000D01*
G01*
X237265000Y-75830000D01*
G75*
G02*
X237065000Y-76030000I-200000J0D01*
G01*
X236515000Y-76030000D01*
G75*
G02*
X236315000Y-75830000I0J200000D01*
G01*
X236315000Y-75430000D01*
G75*
G02*
X236515000Y-75230000I200000J0D01*
G01*
G37*
G36*
G01*
X236515000Y-73580000D02*
X237065000Y-73580000D01*
G75*
G02*
X237265000Y-73780000I0J-200000D01*
G01*
X237265000Y-74180000D01*
G75*
G02*
X237065000Y-74380000I-200000J0D01*
G01*
X236515000Y-74380000D01*
G75*
G02*
X236315000Y-74180000I0J200000D01*
G01*
X236315000Y-73780000D01*
G75*
G02*
X236515000Y-73580000I200000J0D01*
G01*
G37*
%TD*%
%TO.C,R122*%
G36*
G01*
X239375000Y-80390000D02*
X239925000Y-80390000D01*
G75*
G02*
X240125000Y-80590000I0J-200000D01*
G01*
X240125000Y-80990000D01*
G75*
G02*
X239925000Y-81190000I-200000J0D01*
G01*
X239375000Y-81190000D01*
G75*
G02*
X239175000Y-80990000I0J200000D01*
G01*
X239175000Y-80590000D01*
G75*
G02*
X239375000Y-80390000I200000J0D01*
G01*
G37*
G36*
G01*
X239375000Y-78740000D02*
X239925000Y-78740000D01*
G75*
G02*
X240125000Y-78940000I0J-200000D01*
G01*
X240125000Y-79340000D01*
G75*
G02*
X239925000Y-79540000I-200000J0D01*
G01*
X239375000Y-79540000D01*
G75*
G02*
X239175000Y-79340000I0J200000D01*
G01*
X239175000Y-78940000D01*
G75*
G02*
X239375000Y-78740000I200000J0D01*
G01*
G37*
%TD*%
%TO.C,R121*%
G36*
G01*
X239925000Y-74360000D02*
X239375000Y-74360000D01*
G75*
G02*
X239175000Y-74160000I0J200000D01*
G01*
X239175000Y-73760000D01*
G75*
G02*
X239375000Y-73560000I200000J0D01*
G01*
X239925000Y-73560000D01*
G75*
G02*
X240125000Y-73760000I0J-200000D01*
G01*
X240125000Y-74160000D01*
G75*
G02*
X239925000Y-74360000I-200000J0D01*
G01*
G37*
G36*
G01*
X239925000Y-76010000D02*
X239375000Y-76010000D01*
G75*
G02*
X239175000Y-75810000I0J200000D01*
G01*
X239175000Y-75410000D01*
G75*
G02*
X239375000Y-75210000I200000J0D01*
G01*
X239925000Y-75210000D01*
G75*
G02*
X240125000Y-75410000I0J-200000D01*
G01*
X240125000Y-75810000D01*
G75*
G02*
X239925000Y-76010000I-200000J0D01*
G01*
G37*
%TD*%
D10*
%TO.C,Q2*%
X232830000Y-79790000D03*
X234830000Y-78840000D03*
X234830000Y-80740000D03*
%TD*%
%TO.C,Q1*%
X232860000Y-74900000D03*
X234860000Y-73950000D03*
X234860000Y-75850000D03*
%TD*%
%TO.C,U34*%
G36*
G01*
X236530000Y-85015000D02*
X236530000Y-84715000D01*
G75*
G02*
X236680000Y-84565000I150000J0D01*
G01*
X238330000Y-84565000D01*
G75*
G02*
X238480000Y-84715000I0J-150000D01*
G01*
X238480000Y-85015000D01*
G75*
G02*
X238330000Y-85165000I-150000J0D01*
G01*
X236680000Y-85165000D01*
G75*
G02*
X236530000Y-85015000I0J150000D01*
G01*
G37*
G36*
G01*
X236530000Y-86285000D02*
X236530000Y-85985000D01*
G75*
G02*
X236680000Y-85835000I150000J0D01*
G01*
X238330000Y-85835000D01*
G75*
G02*
X238480000Y-85985000I0J-150000D01*
G01*
X238480000Y-86285000D01*
G75*
G02*
X238330000Y-86435000I-150000J0D01*
G01*
X236680000Y-86435000D01*
G75*
G02*
X236530000Y-86285000I0J150000D01*
G01*
G37*
G36*
G01*
X236530000Y-87555000D02*
X236530000Y-87255000D01*
G75*
G02*
X236680000Y-87105000I150000J0D01*
G01*
X238330000Y-87105000D01*
G75*
G02*
X238480000Y-87255000I0J-150000D01*
G01*
X238480000Y-87555000D01*
G75*
G02*
X238330000Y-87705000I-150000J0D01*
G01*
X236680000Y-87705000D01*
G75*
G02*
X236530000Y-87555000I0J150000D01*
G01*
G37*
G36*
G01*
X236530000Y-88825000D02*
X236530000Y-88525000D01*
G75*
G02*
X236680000Y-88375000I150000J0D01*
G01*
X238330000Y-88375000D01*
G75*
G02*
X238480000Y-88525000I0J-150000D01*
G01*
X238480000Y-88825000D01*
G75*
G02*
X238330000Y-88975000I-150000J0D01*
G01*
X236680000Y-88975000D01*
G75*
G02*
X236530000Y-88825000I0J150000D01*
G01*
G37*
G36*
G01*
X241480000Y-88825000D02*
X241480000Y-88525000D01*
G75*
G02*
X241630000Y-88375000I150000J0D01*
G01*
X243280000Y-88375000D01*
G75*
G02*
X243430000Y-88525000I0J-150000D01*
G01*
X243430000Y-88825000D01*
G75*
G02*
X243280000Y-88975000I-150000J0D01*
G01*
X241630000Y-88975000D01*
G75*
G02*
X241480000Y-88825000I0J150000D01*
G01*
G37*
G36*
G01*
X241480000Y-87555000D02*
X241480000Y-87255000D01*
G75*
G02*
X241630000Y-87105000I150000J0D01*
G01*
X243280000Y-87105000D01*
G75*
G02*
X243430000Y-87255000I0J-150000D01*
G01*
X243430000Y-87555000D01*
G75*
G02*
X243280000Y-87705000I-150000J0D01*
G01*
X241630000Y-87705000D01*
G75*
G02*
X241480000Y-87555000I0J150000D01*
G01*
G37*
G36*
G01*
X241480000Y-86285000D02*
X241480000Y-85985000D01*
G75*
G02*
X241630000Y-85835000I150000J0D01*
G01*
X243280000Y-85835000D01*
G75*
G02*
X243430000Y-85985000I0J-150000D01*
G01*
X243430000Y-86285000D01*
G75*
G02*
X243280000Y-86435000I-150000J0D01*
G01*
X241630000Y-86435000D01*
G75*
G02*
X241480000Y-86285000I0J150000D01*
G01*
G37*
G36*
G01*
X241480000Y-85015000D02*
X241480000Y-84715000D01*
G75*
G02*
X241630000Y-84565000I150000J0D01*
G01*
X243280000Y-84565000D01*
G75*
G02*
X243430000Y-84715000I0J-150000D01*
G01*
X243430000Y-85015000D01*
G75*
G02*
X243280000Y-85165000I-150000J0D01*
G01*
X241630000Y-85165000D01*
G75*
G02*
X241480000Y-85015000I0J150000D01*
G01*
G37*
%TD*%
D11*
%TO.C,U61*%
X254550000Y-102980000D03*
D12*
X251000000Y-63190000D03*
D11*
X244360000Y-102980000D03*
D12*
X248480000Y-63190000D03*
X245970000Y-63190000D03*
X253570000Y-63190000D03*
D11*
X249430000Y-102980000D03*
%TD*%
%TO.C,C38*%
G36*
G01*
X245140000Y-85910000D02*
X245640000Y-85910000D01*
G75*
G02*
X245865000Y-86135000I0J-225000D01*
G01*
X245865000Y-86585000D01*
G75*
G02*
X245640000Y-86810000I-225000J0D01*
G01*
X245140000Y-86810000D01*
G75*
G02*
X244915000Y-86585000I0J225000D01*
G01*
X244915000Y-86135000D01*
G75*
G02*
X245140000Y-85910000I225000J0D01*
G01*
G37*
G36*
G01*
X245140000Y-84360000D02*
X245640000Y-84360000D01*
G75*
G02*
X245865000Y-84585000I0J-225000D01*
G01*
X245865000Y-85035000D01*
G75*
G02*
X245640000Y-85260000I-225000J0D01*
G01*
X245140000Y-85260000D01*
G75*
G02*
X244915000Y-85035000I0J225000D01*
G01*
X244915000Y-84585000D01*
G75*
G02*
X245140000Y-84360000I225000J0D01*
G01*
G37*
%TD*%
D13*
%TO.C,J4*%
X202750000Y-56420000D03*
G36*
G01*
X208750000Y-54870000D02*
X208750000Y-57970000D01*
G75*
G02*
X208500000Y-58220000I-250000J0D01*
G01*
X207000000Y-58220000D01*
G75*
G02*
X206750000Y-57970000I0J250000D01*
G01*
X206750000Y-54870000D01*
G75*
G02*
X207000000Y-54620000I250000J0D01*
G01*
X208500000Y-54620000D01*
G75*
G02*
X208750000Y-54870000I0J-250000D01*
G01*
G37*
%TD*%
%TO.C,L4*%
G36*
G01*
X197191250Y-49707500D02*
X196428750Y-49707500D01*
G75*
G02*
X196210000Y-49488750I0J218750D01*
G01*
X196210000Y-49051250D01*
G75*
G02*
X196428750Y-48832500I218750J0D01*
G01*
X197191250Y-48832500D01*
G75*
G02*
X197410000Y-49051250I0J-218750D01*
G01*
X197410000Y-49488750D01*
G75*
G02*
X197191250Y-49707500I-218750J0D01*
G01*
G37*
G36*
G01*
X197191250Y-51832500D02*
X196428750Y-51832500D01*
G75*
G02*
X196210000Y-51613750I0J218750D01*
G01*
X196210000Y-51176250D01*
G75*
G02*
X196428750Y-50957500I218750J0D01*
G01*
X197191250Y-50957500D01*
G75*
G02*
X197410000Y-51176250I0J-218750D01*
G01*
X197410000Y-51613750D01*
G75*
G02*
X197191250Y-51832500I-218750J0D01*
G01*
G37*
%TD*%
%TO.C,L3*%
G36*
G01*
X197191250Y-56245000D02*
X196428750Y-56245000D01*
G75*
G02*
X196210000Y-56026250I0J218750D01*
G01*
X196210000Y-55588750D01*
G75*
G02*
X196428750Y-55370000I218750J0D01*
G01*
X197191250Y-55370000D01*
G75*
G02*
X197410000Y-55588750I0J-218750D01*
G01*
X197410000Y-56026250D01*
G75*
G02*
X197191250Y-56245000I-218750J0D01*
G01*
G37*
G36*
G01*
X197191250Y-58370000D02*
X196428750Y-58370000D01*
G75*
G02*
X196210000Y-58151250I0J218750D01*
G01*
X196210000Y-57713750D01*
G75*
G02*
X196428750Y-57495000I218750J0D01*
G01*
X197191250Y-57495000D01*
G75*
G02*
X197410000Y-57713750I0J-218750D01*
G01*
X197410000Y-58151250D01*
G75*
G02*
X197191250Y-58370000I-218750J0D01*
G01*
G37*
%TD*%
D14*
%TO.C,U59*%
X207790000Y-71190000D03*
X205250000Y-71190000D03*
X205250000Y-62690000D03*
X207790000Y-62690000D03*
%TD*%
%TO.C,U60*%
X211450000Y-62690000D03*
X213990000Y-62690000D03*
X213990000Y-71190000D03*
X211450000Y-71190000D03*
%TD*%
%TO.C,U57*%
X193230000Y-62680000D03*
X195770000Y-62680000D03*
X195770000Y-71180000D03*
X193230000Y-71180000D03*
%TD*%
%TO.C,U51*%
X180750000Y-62690000D03*
X183290000Y-62690000D03*
X183290000Y-71190000D03*
X180750000Y-71190000D03*
%TD*%
%TO.C,U56*%
X81110000Y-71250000D03*
X78570000Y-71250000D03*
X78570000Y-62750000D03*
X81110000Y-62750000D03*
%TD*%
%TO.C,U55*%
X86760000Y-71250000D03*
X84220000Y-71250000D03*
X84220000Y-62750000D03*
X86760000Y-62750000D03*
%TD*%
%TO.C,U54*%
X92400000Y-71250000D03*
X89860000Y-71250000D03*
X89860000Y-62750000D03*
X92400000Y-62750000D03*
%TD*%
%TO.C,U53*%
X98050000Y-71250000D03*
X95510000Y-71250000D03*
X95510000Y-62750000D03*
X98050000Y-62750000D03*
%TD*%
%TO.C,U58*%
X201760000Y-71190000D03*
X199220000Y-71190000D03*
X199220000Y-62690000D03*
X201760000Y-62690000D03*
%TD*%
%TO.C,U52*%
X189530000Y-71170000D03*
X186990000Y-71170000D03*
X186990000Y-62670000D03*
X189530000Y-62670000D03*
%TD*%
%TO.C,U50*%
X103690000Y-71245000D03*
X101150000Y-71245000D03*
X101150000Y-62745000D03*
X103690000Y-62745000D03*
%TD*%
%TO.C,U49*%
X109340000Y-71245000D03*
X106800000Y-71245000D03*
X106800000Y-62745000D03*
X109340000Y-62745000D03*
%TD*%
%TO.C,U48*%
X114990000Y-71245000D03*
X112450000Y-71245000D03*
X112450000Y-62745000D03*
X114990000Y-62745000D03*
%TD*%
%TO.C,U47*%
X120640000Y-71245000D03*
X118100000Y-71245000D03*
X118100000Y-62745000D03*
X120640000Y-62745000D03*
%TD*%
%TO.C,U46*%
X126295000Y-71240000D03*
X123755000Y-71240000D03*
X123755000Y-62740000D03*
X126295000Y-62740000D03*
%TD*%
%TO.C,U45*%
X131945000Y-71240000D03*
X129405000Y-71240000D03*
X129405000Y-62740000D03*
X131945000Y-62740000D03*
%TD*%
%TO.C,U44*%
X137600000Y-71240000D03*
X135060000Y-71240000D03*
X135060000Y-62740000D03*
X137600000Y-62740000D03*
%TD*%
%TO.C,U43*%
X143250000Y-71235000D03*
X140710000Y-71235000D03*
X140710000Y-62735000D03*
X143250000Y-62735000D03*
%TD*%
%TO.C,U42*%
X148900000Y-71235000D03*
X146360000Y-71235000D03*
X146360000Y-62735000D03*
X148900000Y-62735000D03*
%TD*%
%TO.C,U41*%
X154550000Y-71235000D03*
X152010000Y-71235000D03*
X152010000Y-62735000D03*
X154550000Y-62735000D03*
%TD*%
%TO.C,U40*%
X160200000Y-71235000D03*
X157660000Y-71235000D03*
X157660000Y-62735000D03*
X160200000Y-62735000D03*
%TD*%
%TO.C,U39*%
X165850000Y-71235000D03*
X163310000Y-71235000D03*
X163310000Y-62735000D03*
X165850000Y-62735000D03*
%TD*%
%TO.C,U38*%
X171500000Y-71235000D03*
X168960000Y-71235000D03*
X168960000Y-62735000D03*
X171500000Y-62735000D03*
%TD*%
%TO.C,U37*%
X177150000Y-71230000D03*
X174610000Y-71230000D03*
X174610000Y-62730000D03*
X177150000Y-62730000D03*
%TD*%
%TO.C,U36*%
X151720000Y-95430000D03*
X154260000Y-95430000D03*
X154260000Y-103930000D03*
X151720000Y-103930000D03*
%TD*%
%TO.C,U35*%
X146070000Y-95430000D03*
X148610000Y-95430000D03*
X148610000Y-103930000D03*
X146070000Y-103930000D03*
%TD*%
%TO.C,U33*%
X140420000Y-95440000D03*
X142960000Y-95440000D03*
X142960000Y-103940000D03*
X140420000Y-103940000D03*
%TD*%
%TO.C,U32*%
X134770000Y-95440000D03*
X137310000Y-95440000D03*
X137310000Y-103940000D03*
X134770000Y-103940000D03*
%TD*%
%TO.C,U31*%
X129120000Y-95440000D03*
X131660000Y-95440000D03*
X131660000Y-103940000D03*
X129120000Y-103940000D03*
%TD*%
%TO.C,U30*%
X123470000Y-95450000D03*
X126010000Y-95450000D03*
X126010000Y-103950000D03*
X123470000Y-103950000D03*
%TD*%
%TO.C,U29*%
X117820000Y-95445000D03*
X120360000Y-95445000D03*
X120360000Y-103945000D03*
X117820000Y-103945000D03*
%TD*%
%TO.C,U28*%
X112170000Y-95445000D03*
X114710000Y-95445000D03*
X114710000Y-103945000D03*
X112170000Y-103945000D03*
%TD*%
%TO.C,U27*%
X106520000Y-95445000D03*
X109060000Y-95445000D03*
X109060000Y-103945000D03*
X106520000Y-103945000D03*
%TD*%
%TO.C,U26*%
X100870000Y-95445000D03*
X103410000Y-95445000D03*
X103410000Y-103945000D03*
X100870000Y-103945000D03*
%TD*%
%TO.C,U25*%
X78270000Y-95445000D03*
X80810000Y-95445000D03*
X80810000Y-103945000D03*
X78270000Y-103945000D03*
%TD*%
%TO.C,U24*%
X72620000Y-95445000D03*
X75160000Y-95445000D03*
X75160000Y-103945000D03*
X72620000Y-103945000D03*
%TD*%
%TO.C,U23*%
X66970000Y-95445000D03*
X69510000Y-95445000D03*
X69510000Y-103945000D03*
X66970000Y-103945000D03*
%TD*%
%TO.C,U22*%
X61320000Y-95445000D03*
X63860000Y-95445000D03*
X63860000Y-103945000D03*
X61320000Y-103945000D03*
%TD*%
%TO.C,U21*%
X55670000Y-95445000D03*
X58210000Y-95445000D03*
X58210000Y-103945000D03*
X55670000Y-103945000D03*
%TD*%
%TO.C,U20*%
X95220000Y-95445000D03*
X97760000Y-95445000D03*
X97760000Y-103945000D03*
X95220000Y-103945000D03*
%TD*%
%TO.C,U19*%
X89570000Y-95445000D03*
X92110000Y-95445000D03*
X92110000Y-103945000D03*
X89570000Y-103945000D03*
%TD*%
%TO.C,U18*%
X83920000Y-95445000D03*
X86460000Y-95445000D03*
X86460000Y-103945000D03*
X83920000Y-103945000D03*
%TD*%
%TO.C,U17*%
X50020000Y-95470000D03*
X52560000Y-95470000D03*
X52560000Y-103970000D03*
X50020000Y-103970000D03*
%TD*%
%TO.C,U16*%
X44370000Y-95465000D03*
X46910000Y-95465000D03*
X46910000Y-103965000D03*
X44370000Y-103965000D03*
%TD*%
%TO.C,U15*%
X38720000Y-95465000D03*
X41260000Y-95465000D03*
X41260000Y-103965000D03*
X38720000Y-103965000D03*
%TD*%
%TO.C,U14*%
X33070000Y-95465000D03*
X35610000Y-95465000D03*
X35610000Y-103965000D03*
X33070000Y-103965000D03*
%TD*%
%TO.C,U13*%
X27420000Y-95465000D03*
X29960000Y-95465000D03*
X29960000Y-103965000D03*
X27420000Y-103965000D03*
%TD*%
%TO.C,U12*%
X21770000Y-95465000D03*
X24310000Y-95465000D03*
X24310000Y-103965000D03*
X21770000Y-103965000D03*
%TD*%
%TO.C,U11*%
X24600000Y-71265000D03*
X22060000Y-71265000D03*
X22060000Y-62765000D03*
X24600000Y-62765000D03*
%TD*%
%TO.C,U10*%
X30250000Y-71265000D03*
X27710000Y-71265000D03*
X27710000Y-62765000D03*
X30250000Y-62765000D03*
%TD*%
%TO.C,U8*%
X35900000Y-71265000D03*
X33360000Y-71265000D03*
X33360000Y-62765000D03*
X35900000Y-62765000D03*
%TD*%
%TO.C,U7*%
X41550000Y-71265000D03*
X39010000Y-71265000D03*
X39010000Y-62765000D03*
X41550000Y-62765000D03*
%TD*%
%TO.C,U6*%
X47200000Y-71265000D03*
X44660000Y-71265000D03*
X44660000Y-62765000D03*
X47200000Y-62765000D03*
%TD*%
%TO.C,U5*%
X52850000Y-71265000D03*
X50310000Y-71265000D03*
X50310000Y-62765000D03*
X52850000Y-62765000D03*
%TD*%
%TO.C,U4*%
X58500000Y-71265000D03*
X55960000Y-71265000D03*
X55960000Y-62765000D03*
X58500000Y-62765000D03*
%TD*%
%TO.C,U3*%
X64150000Y-71265000D03*
X61610000Y-71265000D03*
X61610000Y-62765000D03*
X64150000Y-62765000D03*
%TD*%
%TO.C,U2*%
X69800000Y-71265000D03*
X67260000Y-71265000D03*
X67260000Y-62765000D03*
X69800000Y-62765000D03*
%TD*%
%TO.C,U1*%
X75450000Y-71265000D03*
X72910000Y-71265000D03*
X72910000Y-62765000D03*
X75450000Y-62765000D03*
%TD*%
%TO.C,R112*%
G36*
G01*
X213380000Y-56335000D02*
X213380000Y-56885000D01*
G75*
G02*
X213180000Y-57085000I-200000J0D01*
G01*
X212780000Y-57085000D01*
G75*
G02*
X212580000Y-56885000I0J200000D01*
G01*
X212580000Y-56335000D01*
G75*
G02*
X212780000Y-56135000I200000J0D01*
G01*
X213180000Y-56135000D01*
G75*
G02*
X213380000Y-56335000I0J-200000D01*
G01*
G37*
G36*
G01*
X215030000Y-56335000D02*
X215030000Y-56885000D01*
G75*
G02*
X214830000Y-57085000I-200000J0D01*
G01*
X214430000Y-57085000D01*
G75*
G02*
X214230000Y-56885000I0J200000D01*
G01*
X214230000Y-56335000D01*
G75*
G02*
X214430000Y-56135000I200000J0D01*
G01*
X214830000Y-56135000D01*
G75*
G02*
X215030000Y-56335000I0J-200000D01*
G01*
G37*
%TD*%
%TO.C,R111*%
G36*
G01*
X195565000Y-74295000D02*
X195565000Y-73745000D01*
G75*
G02*
X195765000Y-73545000I200000J0D01*
G01*
X196165000Y-73545000D01*
G75*
G02*
X196365000Y-73745000I0J-200000D01*
G01*
X196365000Y-74295000D01*
G75*
G02*
X196165000Y-74495000I-200000J0D01*
G01*
X195765000Y-74495000D01*
G75*
G02*
X195565000Y-74295000I0J200000D01*
G01*
G37*
G36*
G01*
X193915000Y-74295000D02*
X193915000Y-73745000D01*
G75*
G02*
X194115000Y-73545000I200000J0D01*
G01*
X194515000Y-73545000D01*
G75*
G02*
X194715000Y-73745000I0J-200000D01*
G01*
X194715000Y-74295000D01*
G75*
G02*
X194515000Y-74495000I-200000J0D01*
G01*
X194115000Y-74495000D01*
G75*
G02*
X193915000Y-74295000I0J200000D01*
G01*
G37*
%TD*%
%TO.C,R110*%
G36*
G01*
X213370000Y-51215000D02*
X213370000Y-51765000D01*
G75*
G02*
X213170000Y-51965000I-200000J0D01*
G01*
X212770000Y-51965000D01*
G75*
G02*
X212570000Y-51765000I0J200000D01*
G01*
X212570000Y-51215000D01*
G75*
G02*
X212770000Y-51015000I200000J0D01*
G01*
X213170000Y-51015000D01*
G75*
G02*
X213370000Y-51215000I0J-200000D01*
G01*
G37*
G36*
G01*
X215020000Y-51215000D02*
X215020000Y-51765000D01*
G75*
G02*
X214820000Y-51965000I-200000J0D01*
G01*
X214420000Y-51965000D01*
G75*
G02*
X214220000Y-51765000I0J200000D01*
G01*
X214220000Y-51215000D01*
G75*
G02*
X214420000Y-51015000I200000J0D01*
G01*
X214820000Y-51015000D01*
G75*
G02*
X215020000Y-51215000I0J-200000D01*
G01*
G37*
%TD*%
%TO.C,R109*%
G36*
G01*
X187735000Y-73685000D02*
X187735000Y-74235000D01*
G75*
G02*
X187535000Y-74435000I-200000J0D01*
G01*
X187135000Y-74435000D01*
G75*
G02*
X186935000Y-74235000I0J200000D01*
G01*
X186935000Y-73685000D01*
G75*
G02*
X187135000Y-73485000I200000J0D01*
G01*
X187535000Y-73485000D01*
G75*
G02*
X187735000Y-73685000I0J-200000D01*
G01*
G37*
G36*
G01*
X189385000Y-73685000D02*
X189385000Y-74235000D01*
G75*
G02*
X189185000Y-74435000I-200000J0D01*
G01*
X188785000Y-74435000D01*
G75*
G02*
X188585000Y-74235000I0J200000D01*
G01*
X188585000Y-73685000D01*
G75*
G02*
X188785000Y-73485000I200000J0D01*
G01*
X189185000Y-73485000D01*
G75*
G02*
X189385000Y-73685000I0J-200000D01*
G01*
G37*
%TD*%
%TO.C,R104*%
G36*
G01*
X213385000Y-54585000D02*
X213385000Y-55135000D01*
G75*
G02*
X213185000Y-55335000I-200000J0D01*
G01*
X212785000Y-55335000D01*
G75*
G02*
X212585000Y-55135000I0J200000D01*
G01*
X212585000Y-54585000D01*
G75*
G02*
X212785000Y-54385000I200000J0D01*
G01*
X213185000Y-54385000D01*
G75*
G02*
X213385000Y-54585000I0J-200000D01*
G01*
G37*
G36*
G01*
X215035000Y-54585000D02*
X215035000Y-55135000D01*
G75*
G02*
X214835000Y-55335000I-200000J0D01*
G01*
X214435000Y-55335000D01*
G75*
G02*
X214235000Y-55135000I0J200000D01*
G01*
X214235000Y-54585000D01*
G75*
G02*
X214435000Y-54385000I200000J0D01*
G01*
X214835000Y-54385000D01*
G75*
G02*
X215035000Y-54585000I0J-200000D01*
G01*
G37*
%TD*%
%TO.C,R103*%
G36*
G01*
X213385000Y-52855000D02*
X213385000Y-53405000D01*
G75*
G02*
X213185000Y-53605000I-200000J0D01*
G01*
X212785000Y-53605000D01*
G75*
G02*
X212585000Y-53405000I0J200000D01*
G01*
X212585000Y-52855000D01*
G75*
G02*
X212785000Y-52655000I200000J0D01*
G01*
X213185000Y-52655000D01*
G75*
G02*
X213385000Y-52855000I0J-200000D01*
G01*
G37*
G36*
G01*
X215035000Y-52855000D02*
X215035000Y-53405000D01*
G75*
G02*
X214835000Y-53605000I-200000J0D01*
G01*
X214435000Y-53605000D01*
G75*
G02*
X214235000Y-53405000I0J200000D01*
G01*
X214235000Y-52855000D01*
G75*
G02*
X214435000Y-52655000I200000J0D01*
G01*
X214835000Y-52655000D01*
G75*
G02*
X215035000Y-52855000I0J-200000D01*
G01*
G37*
%TD*%
D15*
%TO.C,REF\u002A\u002A*%
X160820000Y-80750000D03*
X160820000Y-98530000D03*
X201460000Y-80750000D03*
D16*
X201460000Y-98530000D03*
%TD*%
D13*
%TO.C,J8*%
X142575000Y-110225000D03*
G36*
G01*
X111575000Y-111775000D02*
X111575000Y-108675000D01*
G75*
G02*
X111825000Y-108425000I250000J0D01*
G01*
X113325000Y-108425000D01*
G75*
G02*
X113575000Y-108675000I0J-250000D01*
G01*
X113575000Y-111775000D01*
G75*
G02*
X113325000Y-112025000I-250000J0D01*
G01*
X111825000Y-112025000D01*
G75*
G02*
X111575000Y-111775000I0J250000D01*
G01*
G37*
X122575000Y-110225000D03*
X137575000Y-110225000D03*
X117575000Y-110225000D03*
X127575000Y-110225000D03*
X147575000Y-110225000D03*
X132575000Y-110225000D03*
%TD*%
%TO.C,R75*%
G36*
G01*
X159270544Y-59810000D02*
X159270544Y-60360000D01*
G75*
G02*
X159070544Y-60560000I-200000J0D01*
G01*
X158670544Y-60560000D01*
G75*
G02*
X158470544Y-60360000I0J200000D01*
G01*
X158470544Y-59810000D01*
G75*
G02*
X158670544Y-59610000I200000J0D01*
G01*
X159070544Y-59610000D01*
G75*
G02*
X159270544Y-59810000I0J-200000D01*
G01*
G37*
G36*
G01*
X160920544Y-59810000D02*
X160920544Y-60360000D01*
G75*
G02*
X160720544Y-60560000I-200000J0D01*
G01*
X160320544Y-60560000D01*
G75*
G02*
X160120544Y-60360000I0J200000D01*
G01*
X160120544Y-59810000D01*
G75*
G02*
X160320544Y-59610000I200000J0D01*
G01*
X160720544Y-59610000D01*
G75*
G02*
X160920544Y-59810000I0J-200000D01*
G01*
G37*
%TD*%
D17*
%TO.C,J13*%
X117260000Y-81750000D03*
X117260000Y-84290000D03*
X114720000Y-81750000D03*
X114720000Y-84290000D03*
X112180000Y-81750000D03*
X112180000Y-84290000D03*
X109640000Y-81750000D03*
D18*
X109640000Y-84290000D03*
%TD*%
D19*
%TO.C,JP1*%
X169230000Y-94210000D03*
X169230000Y-95510000D03*
%TD*%
D18*
%TO.C,J11*%
X273095000Y-105785000D03*
D17*
X270555000Y-105785000D03*
X273095000Y-103245000D03*
X270555000Y-103245000D03*
X273095000Y-100705000D03*
X270555000Y-100705000D03*
X273095000Y-98165000D03*
X270555000Y-98165000D03*
X273095000Y-95625000D03*
X270555000Y-95625000D03*
X273095000Y-93085000D03*
X270555000Y-93085000D03*
X273095000Y-90545000D03*
X270555000Y-90545000D03*
X273095000Y-88005000D03*
X270555000Y-88005000D03*
X273095000Y-85465000D03*
X270555000Y-85465000D03*
X273095000Y-82925000D03*
X270555000Y-82925000D03*
X273095000Y-80385000D03*
X270555000Y-80385000D03*
X273095000Y-77845000D03*
X270555000Y-77845000D03*
X273095000Y-75305000D03*
X270555000Y-75305000D03*
X273095000Y-72765000D03*
X270555000Y-72765000D03*
X273095000Y-70225000D03*
X270555000Y-70225000D03*
X273095000Y-67685000D03*
X270555000Y-67685000D03*
X273095000Y-65145000D03*
X270555000Y-65145000D03*
X273095000Y-62605000D03*
X270555000Y-62605000D03*
X273095000Y-60065000D03*
X270555000Y-60065000D03*
X273095000Y-57525000D03*
X270555000Y-57525000D03*
X273095000Y-54985000D03*
X270555000Y-54985000D03*
X273095000Y-52445000D03*
X270555000Y-52445000D03*
X273095000Y-49905000D03*
X270555000Y-49905000D03*
%TD*%
%TO.C,J12*%
X222295000Y-49910000D03*
X224835000Y-49910000D03*
X222295000Y-52450000D03*
X224835000Y-52450000D03*
X222295000Y-54990000D03*
X224835000Y-54990000D03*
X222295000Y-57530000D03*
X224835000Y-57530000D03*
X222295000Y-60070000D03*
X224835000Y-60070000D03*
X222295000Y-62610000D03*
X224835000Y-62610000D03*
X222295000Y-65150000D03*
X224835000Y-65150000D03*
X222295000Y-67690000D03*
X224835000Y-67690000D03*
X222295000Y-70230000D03*
X224835000Y-70230000D03*
X222295000Y-72770000D03*
X224835000Y-72770000D03*
X222295000Y-75310000D03*
X224835000Y-75310000D03*
X222295000Y-77850000D03*
X224835000Y-77850000D03*
X222295000Y-80390000D03*
X224835000Y-80390000D03*
X222295000Y-82930000D03*
X224835000Y-82930000D03*
X222295000Y-85470000D03*
X224835000Y-85470000D03*
X222295000Y-88010000D03*
X224835000Y-88010000D03*
X222295000Y-90550000D03*
X224835000Y-90550000D03*
X222295000Y-93090000D03*
X224835000Y-93090000D03*
X222295000Y-95630000D03*
X224835000Y-95630000D03*
X222295000Y-98170000D03*
X224835000Y-98170000D03*
X222295000Y-100710000D03*
X224835000Y-100710000D03*
X222295000Y-103250000D03*
X224835000Y-103250000D03*
X222295000Y-105790000D03*
D18*
X224835000Y-105790000D03*
%TD*%
D13*
%TO.C,VDD1*%
X207735000Y-110140000D03*
G36*
G01*
X201735000Y-111690000D02*
X201735000Y-108590000D01*
G75*
G02*
X201985000Y-108340000I250000J0D01*
G01*
X203485000Y-108340000D01*
G75*
G02*
X203735000Y-108590000I0J-250000D01*
G01*
X203735000Y-111690000D01*
G75*
G02*
X203485000Y-111940000I-250000J0D01*
G01*
X201985000Y-111940000D01*
G75*
G02*
X201735000Y-111690000I0J250000D01*
G01*
G37*
%TD*%
D20*
%TO.C,D2*%
X192370000Y-80790000D03*
X188370000Y-80790000D03*
%TD*%
%TO.C,R114*%
G36*
G01*
X89255000Y-75840000D02*
X89805000Y-75840000D01*
G75*
G02*
X90005000Y-76040000I0J-200000D01*
G01*
X90005000Y-76440000D01*
G75*
G02*
X89805000Y-76640000I-200000J0D01*
G01*
X89255000Y-76640000D01*
G75*
G02*
X89055000Y-76440000I0J200000D01*
G01*
X89055000Y-76040000D01*
G75*
G02*
X89255000Y-75840000I200000J0D01*
G01*
G37*
G36*
G01*
X89255000Y-74190000D02*
X89805000Y-74190000D01*
G75*
G02*
X90005000Y-74390000I0J-200000D01*
G01*
X90005000Y-74790000D01*
G75*
G02*
X89805000Y-74990000I-200000J0D01*
G01*
X89255000Y-74990000D01*
G75*
G02*
X89055000Y-74790000I0J200000D01*
G01*
X89055000Y-74390000D01*
G75*
G02*
X89255000Y-74190000I200000J0D01*
G01*
G37*
%TD*%
%TO.C,R115*%
G36*
G01*
X83625000Y-75870000D02*
X84175000Y-75870000D01*
G75*
G02*
X84375000Y-76070000I0J-200000D01*
G01*
X84375000Y-76470000D01*
G75*
G02*
X84175000Y-76670000I-200000J0D01*
G01*
X83625000Y-76670000D01*
G75*
G02*
X83425000Y-76470000I0J200000D01*
G01*
X83425000Y-76070000D01*
G75*
G02*
X83625000Y-75870000I200000J0D01*
G01*
G37*
G36*
G01*
X83625000Y-74220000D02*
X84175000Y-74220000D01*
G75*
G02*
X84375000Y-74420000I0J-200000D01*
G01*
X84375000Y-74820000D01*
G75*
G02*
X84175000Y-75020000I-200000J0D01*
G01*
X83625000Y-75020000D01*
G75*
G02*
X83425000Y-74820000I0J200000D01*
G01*
X83425000Y-74420000D01*
G75*
G02*
X83625000Y-74220000I200000J0D01*
G01*
G37*
%TD*%
%TO.C,R116*%
G36*
G01*
X78065000Y-75840000D02*
X78615000Y-75840000D01*
G75*
G02*
X78815000Y-76040000I0J-200000D01*
G01*
X78815000Y-76440000D01*
G75*
G02*
X78615000Y-76640000I-200000J0D01*
G01*
X78065000Y-76640000D01*
G75*
G02*
X77865000Y-76440000I0J200000D01*
G01*
X77865000Y-76040000D01*
G75*
G02*
X78065000Y-75840000I200000J0D01*
G01*
G37*
G36*
G01*
X78065000Y-74190000D02*
X78615000Y-74190000D01*
G75*
G02*
X78815000Y-74390000I0J-200000D01*
G01*
X78815000Y-74790000D01*
G75*
G02*
X78615000Y-74990000I-200000J0D01*
G01*
X78065000Y-74990000D01*
G75*
G02*
X77865000Y-74790000I0J200000D01*
G01*
X77865000Y-74390000D01*
G75*
G02*
X78065000Y-74190000I200000J0D01*
G01*
G37*
%TD*%
%TO.C,R80*%
G36*
G01*
X151995000Y-90855000D02*
X151445000Y-90855000D01*
G75*
G02*
X151245000Y-90655000I0J200000D01*
G01*
X151245000Y-90255000D01*
G75*
G02*
X151445000Y-90055000I200000J0D01*
G01*
X151995000Y-90055000D01*
G75*
G02*
X152195000Y-90255000I0J-200000D01*
G01*
X152195000Y-90655000D01*
G75*
G02*
X151995000Y-90855000I-200000J0D01*
G01*
G37*
G36*
G01*
X151995000Y-92505000D02*
X151445000Y-92505000D01*
G75*
G02*
X151245000Y-92305000I0J200000D01*
G01*
X151245000Y-91905000D01*
G75*
G02*
X151445000Y-91705000I200000J0D01*
G01*
X151995000Y-91705000D01*
G75*
G02*
X152195000Y-91905000I0J-200000D01*
G01*
X152195000Y-92305000D01*
G75*
G02*
X151995000Y-92505000I-200000J0D01*
G01*
G37*
%TD*%
%TO.C,R106*%
G36*
G01*
X91452772Y-59810000D02*
X91452772Y-60360000D01*
G75*
G02*
X91252772Y-60560000I-200000J0D01*
G01*
X90852772Y-60560000D01*
G75*
G02*
X90652772Y-60360000I0J200000D01*
G01*
X90652772Y-59810000D01*
G75*
G02*
X90852772Y-59610000I200000J0D01*
G01*
X91252772Y-59610000D01*
G75*
G02*
X91452772Y-59810000I0J-200000D01*
G01*
G37*
G36*
G01*
X93102772Y-59810000D02*
X93102772Y-60360000D01*
G75*
G02*
X92902772Y-60560000I-200000J0D01*
G01*
X92502772Y-60560000D01*
G75*
G02*
X92302772Y-60360000I0J200000D01*
G01*
X92302772Y-59810000D01*
G75*
G02*
X92502772Y-59610000I200000J0D01*
G01*
X92902772Y-59610000D01*
G75*
G02*
X93102772Y-59810000I0J-200000D01*
G01*
G37*
%TD*%
%TO.C,R107*%
G36*
G01*
X85801291Y-59810000D02*
X85801291Y-60360000D01*
G75*
G02*
X85601291Y-60560000I-200000J0D01*
G01*
X85201291Y-60560000D01*
G75*
G02*
X85001291Y-60360000I0J200000D01*
G01*
X85001291Y-59810000D01*
G75*
G02*
X85201291Y-59610000I200000J0D01*
G01*
X85601291Y-59610000D01*
G75*
G02*
X85801291Y-59810000I0J-200000D01*
G01*
G37*
G36*
G01*
X87451291Y-59810000D02*
X87451291Y-60360000D01*
G75*
G02*
X87251291Y-60560000I-200000J0D01*
G01*
X86851291Y-60560000D01*
G75*
G02*
X86651291Y-60360000I0J200000D01*
G01*
X86651291Y-59810000D01*
G75*
G02*
X86851291Y-59610000I200000J0D01*
G01*
X87251291Y-59610000D01*
G75*
G02*
X87451291Y-59810000I0J-200000D01*
G01*
G37*
%TD*%
%TO.C,R108*%
G36*
G01*
X80149810Y-59810000D02*
X80149810Y-60360000D01*
G75*
G02*
X79949810Y-60560000I-200000J0D01*
G01*
X79549810Y-60560000D01*
G75*
G02*
X79349810Y-60360000I0J200000D01*
G01*
X79349810Y-59810000D01*
G75*
G02*
X79549810Y-59610000I200000J0D01*
G01*
X79949810Y-59610000D01*
G75*
G02*
X80149810Y-59810000I0J-200000D01*
G01*
G37*
G36*
G01*
X81799810Y-59810000D02*
X81799810Y-60360000D01*
G75*
G02*
X81599810Y-60560000I-200000J0D01*
G01*
X81199810Y-60560000D01*
G75*
G02*
X80999810Y-60360000I0J200000D01*
G01*
X80999810Y-59810000D01*
G75*
G02*
X81199810Y-59610000I200000J0D01*
G01*
X81599810Y-59610000D01*
G75*
G02*
X81799810Y-59810000I0J-200000D01*
G01*
G37*
%TD*%
%TO.C,R71*%
G36*
G01*
X152445000Y-106780000D02*
X152445000Y-106230000D01*
G75*
G02*
X152645000Y-106030000I200000J0D01*
G01*
X153045000Y-106030000D01*
G75*
G02*
X153245000Y-106230000I0J-200000D01*
G01*
X153245000Y-106780000D01*
G75*
G02*
X153045000Y-106980000I-200000J0D01*
G01*
X152645000Y-106980000D01*
G75*
G02*
X152445000Y-106780000I0J200000D01*
G01*
G37*
G36*
G01*
X150795000Y-106780000D02*
X150795000Y-106230000D01*
G75*
G02*
X150995000Y-106030000I200000J0D01*
G01*
X151395000Y-106030000D01*
G75*
G02*
X151595000Y-106230000I0J-200000D01*
G01*
X151595000Y-106780000D01*
G75*
G02*
X151395000Y-106980000I-200000J0D01*
G01*
X150995000Y-106980000D01*
G75*
G02*
X150795000Y-106780000I0J200000D01*
G01*
G37*
%TD*%
%TO.C,R95*%
G36*
G01*
X140145000Y-75830000D02*
X140695000Y-75830000D01*
G75*
G02*
X140895000Y-76030000I0J-200000D01*
G01*
X140895000Y-76430000D01*
G75*
G02*
X140695000Y-76630000I-200000J0D01*
G01*
X140145000Y-76630000D01*
G75*
G02*
X139945000Y-76430000I0J200000D01*
G01*
X139945000Y-76030000D01*
G75*
G02*
X140145000Y-75830000I200000J0D01*
G01*
G37*
G36*
G01*
X140145000Y-74180000D02*
X140695000Y-74180000D01*
G75*
G02*
X140895000Y-74380000I0J-200000D01*
G01*
X140895000Y-74780000D01*
G75*
G02*
X140695000Y-74980000I-200000J0D01*
G01*
X140145000Y-74980000D01*
G75*
G02*
X139945000Y-74780000I0J200000D01*
G01*
X139945000Y-74380000D01*
G75*
G02*
X140145000Y-74180000I200000J0D01*
G01*
G37*
%TD*%
%TO.C,R99*%
G36*
G01*
X117345000Y-75835000D02*
X117895000Y-75835000D01*
G75*
G02*
X118095000Y-76035000I0J-200000D01*
G01*
X118095000Y-76435000D01*
G75*
G02*
X117895000Y-76635000I-200000J0D01*
G01*
X117345000Y-76635000D01*
G75*
G02*
X117145000Y-76435000I0J200000D01*
G01*
X117145000Y-76035000D01*
G75*
G02*
X117345000Y-75835000I200000J0D01*
G01*
G37*
G36*
G01*
X117345000Y-74185000D02*
X117895000Y-74185000D01*
G75*
G02*
X118095000Y-74385000I0J-200000D01*
G01*
X118095000Y-74785000D01*
G75*
G02*
X117895000Y-74985000I-200000J0D01*
G01*
X117345000Y-74985000D01*
G75*
G02*
X117145000Y-74785000I0J200000D01*
G01*
X117145000Y-74385000D01*
G75*
G02*
X117345000Y-74185000I200000J0D01*
G01*
G37*
%TD*%
%TO.C,R63*%
G36*
G01*
X118225000Y-90855000D02*
X117675000Y-90855000D01*
G75*
G02*
X117475000Y-90655000I0J200000D01*
G01*
X117475000Y-90255000D01*
G75*
G02*
X117675000Y-90055000I200000J0D01*
G01*
X118225000Y-90055000D01*
G75*
G02*
X118425000Y-90255000I0J-200000D01*
G01*
X118425000Y-90655000D01*
G75*
G02*
X118225000Y-90855000I-200000J0D01*
G01*
G37*
G36*
G01*
X118225000Y-92505000D02*
X117675000Y-92505000D01*
G75*
G02*
X117475000Y-92305000I0J200000D01*
G01*
X117475000Y-91905000D01*
G75*
G02*
X117675000Y-91705000I200000J0D01*
G01*
X118225000Y-91705000D01*
G75*
G02*
X118425000Y-91905000I0J-200000D01*
G01*
X118425000Y-92305000D01*
G75*
G02*
X118225000Y-92505000I-200000J0D01*
G01*
G37*
%TD*%
%TO.C,R98*%
G36*
G01*
X123205000Y-75830000D02*
X123755000Y-75830000D01*
G75*
G02*
X123955000Y-76030000I0J-200000D01*
G01*
X123955000Y-76430000D01*
G75*
G02*
X123755000Y-76630000I-200000J0D01*
G01*
X123205000Y-76630000D01*
G75*
G02*
X123005000Y-76430000I0J200000D01*
G01*
X123005000Y-76030000D01*
G75*
G02*
X123205000Y-75830000I200000J0D01*
G01*
G37*
G36*
G01*
X123205000Y-74180000D02*
X123755000Y-74180000D01*
G75*
G02*
X123955000Y-74380000I0J-200000D01*
G01*
X123955000Y-74780000D01*
G75*
G02*
X123755000Y-74980000I-200000J0D01*
G01*
X123205000Y-74980000D01*
G75*
G02*
X123005000Y-74780000I0J200000D01*
G01*
X123005000Y-74380000D01*
G75*
G02*
X123205000Y-74180000I200000J0D01*
G01*
G37*
%TD*%
%TO.C,R97*%
G36*
G01*
X128785000Y-75840000D02*
X129335000Y-75840000D01*
G75*
G02*
X129535000Y-76040000I0J-200000D01*
G01*
X129535000Y-76440000D01*
G75*
G02*
X129335000Y-76640000I-200000J0D01*
G01*
X128785000Y-76640000D01*
G75*
G02*
X128585000Y-76440000I0J200000D01*
G01*
X128585000Y-76040000D01*
G75*
G02*
X128785000Y-75840000I200000J0D01*
G01*
G37*
G36*
G01*
X128785000Y-74190000D02*
X129335000Y-74190000D01*
G75*
G02*
X129535000Y-74390000I0J-200000D01*
G01*
X129535000Y-74790000D01*
G75*
G02*
X129335000Y-74990000I-200000J0D01*
G01*
X128785000Y-74990000D01*
G75*
G02*
X128585000Y-74790000I0J200000D01*
G01*
X128585000Y-74390000D01*
G75*
G02*
X128785000Y-74190000I200000J0D01*
G01*
G37*
%TD*%
%TO.C,R96*%
G36*
G01*
X134515000Y-75850000D02*
X135065000Y-75850000D01*
G75*
G02*
X135265000Y-76050000I0J-200000D01*
G01*
X135265000Y-76450000D01*
G75*
G02*
X135065000Y-76650000I-200000J0D01*
G01*
X134515000Y-76650000D01*
G75*
G02*
X134315000Y-76450000I0J200000D01*
G01*
X134315000Y-76050000D01*
G75*
G02*
X134515000Y-75850000I200000J0D01*
G01*
G37*
G36*
G01*
X134515000Y-74200000D02*
X135065000Y-74200000D01*
G75*
G02*
X135265000Y-74400000I0J-200000D01*
G01*
X135265000Y-74800000D01*
G75*
G02*
X135065000Y-75000000I-200000J0D01*
G01*
X134515000Y-75000000D01*
G75*
G02*
X134315000Y-74800000I0J200000D01*
G01*
X134315000Y-74400000D01*
G75*
G02*
X134515000Y-74200000I200000J0D01*
G01*
G37*
%TD*%
%TO.C,R113*%
G36*
G01*
X94865000Y-75890000D02*
X95415000Y-75890000D01*
G75*
G02*
X95615000Y-76090000I0J-200000D01*
G01*
X95615000Y-76490000D01*
G75*
G02*
X95415000Y-76690000I-200000J0D01*
G01*
X94865000Y-76690000D01*
G75*
G02*
X94665000Y-76490000I0J200000D01*
G01*
X94665000Y-76090000D01*
G75*
G02*
X94865000Y-75890000I200000J0D01*
G01*
G37*
G36*
G01*
X94865000Y-74240000D02*
X95415000Y-74240000D01*
G75*
G02*
X95615000Y-74440000I0J-200000D01*
G01*
X95615000Y-74840000D01*
G75*
G02*
X95415000Y-75040000I-200000J0D01*
G01*
X94865000Y-75040000D01*
G75*
G02*
X94665000Y-74840000I0J200000D01*
G01*
X94665000Y-74440000D01*
G75*
G02*
X94865000Y-74240000I200000J0D01*
G01*
G37*
%TD*%
%TO.C,R1*%
G36*
G01*
X74498329Y-59810000D02*
X74498329Y-60360000D01*
G75*
G02*
X74298329Y-60560000I-200000J0D01*
G01*
X73898329Y-60560000D01*
G75*
G02*
X73698329Y-60360000I0J200000D01*
G01*
X73698329Y-59810000D01*
G75*
G02*
X73898329Y-59610000I200000J0D01*
G01*
X74298329Y-59610000D01*
G75*
G02*
X74498329Y-59810000I0J-200000D01*
G01*
G37*
G36*
G01*
X76148329Y-59810000D02*
X76148329Y-60360000D01*
G75*
G02*
X75948329Y-60560000I-200000J0D01*
G01*
X75548329Y-60560000D01*
G75*
G02*
X75348329Y-60360000I0J200000D01*
G01*
X75348329Y-59810000D01*
G75*
G02*
X75548329Y-59610000I200000J0D01*
G01*
X75948329Y-59610000D01*
G75*
G02*
X76148329Y-59810000I0J-200000D01*
G01*
G37*
%TD*%
%TO.C,R87*%
G36*
G01*
X142316101Y-59810000D02*
X142316101Y-60360000D01*
G75*
G02*
X142116101Y-60560000I-200000J0D01*
G01*
X141716101Y-60560000D01*
G75*
G02*
X141516101Y-60360000I0J200000D01*
G01*
X141516101Y-59810000D01*
G75*
G02*
X141716101Y-59610000I200000J0D01*
G01*
X142116101Y-59610000D01*
G75*
G02*
X142316101Y-59810000I0J-200000D01*
G01*
G37*
G36*
G01*
X143966101Y-59810000D02*
X143966101Y-60360000D01*
G75*
G02*
X143766101Y-60560000I-200000J0D01*
G01*
X143366101Y-60560000D01*
G75*
G02*
X143166101Y-60360000I0J200000D01*
G01*
X143166101Y-59810000D01*
G75*
G02*
X143366101Y-59610000I200000J0D01*
G01*
X143766101Y-59610000D01*
G75*
G02*
X143966101Y-59810000I0J-200000D01*
G01*
G37*
%TD*%
%TO.C,R91*%
G36*
G01*
X119710177Y-59810000D02*
X119710177Y-60360000D01*
G75*
G02*
X119510177Y-60560000I-200000J0D01*
G01*
X119110177Y-60560000D01*
G75*
G02*
X118910177Y-60360000I0J200000D01*
G01*
X118910177Y-59810000D01*
G75*
G02*
X119110177Y-59610000I200000J0D01*
G01*
X119510177Y-59610000D01*
G75*
G02*
X119710177Y-59810000I0J-200000D01*
G01*
G37*
G36*
G01*
X121360177Y-59810000D02*
X121360177Y-60360000D01*
G75*
G02*
X121160177Y-60560000I-200000J0D01*
G01*
X120760177Y-60560000D01*
G75*
G02*
X120560177Y-60360000I0J200000D01*
G01*
X120560177Y-59810000D01*
G75*
G02*
X120760177Y-59610000I200000J0D01*
G01*
X121160177Y-59610000D01*
G75*
G02*
X121360177Y-59810000I0J-200000D01*
G01*
G37*
%TD*%
%TO.C,R55*%
G36*
G01*
X118614126Y-106780000D02*
X118614126Y-106230000D01*
G75*
G02*
X118814126Y-106030000I200000J0D01*
G01*
X119214126Y-106030000D01*
G75*
G02*
X119414126Y-106230000I0J-200000D01*
G01*
X119414126Y-106780000D01*
G75*
G02*
X119214126Y-106980000I-200000J0D01*
G01*
X118814126Y-106980000D01*
G75*
G02*
X118614126Y-106780000I0J200000D01*
G01*
G37*
G36*
G01*
X116964126Y-106780000D02*
X116964126Y-106230000D01*
G75*
G02*
X117164126Y-106030000I200000J0D01*
G01*
X117564126Y-106030000D01*
G75*
G02*
X117764126Y-106230000I0J-200000D01*
G01*
X117764126Y-106780000D01*
G75*
G02*
X117564126Y-106980000I-200000J0D01*
G01*
X117164126Y-106980000D01*
G75*
G02*
X116964126Y-106780000I0J200000D01*
G01*
G37*
%TD*%
%TO.C,R90*%
G36*
G01*
X125361658Y-59810000D02*
X125361658Y-60360000D01*
G75*
G02*
X125161658Y-60560000I-200000J0D01*
G01*
X124761658Y-60560000D01*
G75*
G02*
X124561658Y-60360000I0J200000D01*
G01*
X124561658Y-59810000D01*
G75*
G02*
X124761658Y-59610000I200000J0D01*
G01*
X125161658Y-59610000D01*
G75*
G02*
X125361658Y-59810000I0J-200000D01*
G01*
G37*
G36*
G01*
X127011658Y-59810000D02*
X127011658Y-60360000D01*
G75*
G02*
X126811658Y-60560000I-200000J0D01*
G01*
X126411658Y-60560000D01*
G75*
G02*
X126211658Y-60360000I0J200000D01*
G01*
X126211658Y-59810000D01*
G75*
G02*
X126411658Y-59610000I200000J0D01*
G01*
X126811658Y-59610000D01*
G75*
G02*
X127011658Y-59810000I0J-200000D01*
G01*
G37*
%TD*%
%TO.C,R89*%
G36*
G01*
X131013139Y-59810000D02*
X131013139Y-60360000D01*
G75*
G02*
X130813139Y-60560000I-200000J0D01*
G01*
X130413139Y-60560000D01*
G75*
G02*
X130213139Y-60360000I0J200000D01*
G01*
X130213139Y-59810000D01*
G75*
G02*
X130413139Y-59610000I200000J0D01*
G01*
X130813139Y-59610000D01*
G75*
G02*
X131013139Y-59810000I0J-200000D01*
G01*
G37*
G36*
G01*
X132663139Y-59810000D02*
X132663139Y-60360000D01*
G75*
G02*
X132463139Y-60560000I-200000J0D01*
G01*
X132063139Y-60560000D01*
G75*
G02*
X131863139Y-60360000I0J200000D01*
G01*
X131863139Y-59810000D01*
G75*
G02*
X132063139Y-59610000I200000J0D01*
G01*
X132463139Y-59610000D01*
G75*
G02*
X132663139Y-59810000I0J-200000D01*
G01*
G37*
%TD*%
%TO.C,R88*%
G36*
G01*
X136664620Y-59810000D02*
X136664620Y-60360000D01*
G75*
G02*
X136464620Y-60560000I-200000J0D01*
G01*
X136064620Y-60560000D01*
G75*
G02*
X135864620Y-60360000I0J200000D01*
G01*
X135864620Y-59810000D01*
G75*
G02*
X136064620Y-59610000I200000J0D01*
G01*
X136464620Y-59610000D01*
G75*
G02*
X136664620Y-59810000I0J-200000D01*
G01*
G37*
G36*
G01*
X138314620Y-59810000D02*
X138314620Y-60360000D01*
G75*
G02*
X138114620Y-60560000I-200000J0D01*
G01*
X137714620Y-60560000D01*
G75*
G02*
X137514620Y-60360000I0J200000D01*
G01*
X137514620Y-59810000D01*
G75*
G02*
X137714620Y-59610000I200000J0D01*
G01*
X138114620Y-59610000D01*
G75*
G02*
X138314620Y-59810000I0J-200000D01*
G01*
G37*
%TD*%
%TO.C,R105*%
G36*
G01*
X97104253Y-59810000D02*
X97104253Y-60360000D01*
G75*
G02*
X96904253Y-60560000I-200000J0D01*
G01*
X96504253Y-60560000D01*
G75*
G02*
X96304253Y-60360000I0J200000D01*
G01*
X96304253Y-59810000D01*
G75*
G02*
X96504253Y-59610000I200000J0D01*
G01*
X96904253Y-59610000D01*
G75*
G02*
X97104253Y-59810000I0J-200000D01*
G01*
G37*
G36*
G01*
X98754253Y-59810000D02*
X98754253Y-60360000D01*
G75*
G02*
X98554253Y-60560000I-200000J0D01*
G01*
X98154253Y-60560000D01*
G75*
G02*
X97954253Y-60360000I0J200000D01*
G01*
X97954253Y-59810000D01*
G75*
G02*
X98154253Y-59610000I200000J0D01*
G01*
X98554253Y-59610000D01*
G75*
G02*
X98754253Y-59810000I0J-200000D01*
G01*
G37*
%TD*%
%TO.C,R84*%
G36*
G01*
X157075000Y-75835000D02*
X157625000Y-75835000D01*
G75*
G02*
X157825000Y-76035000I0J-200000D01*
G01*
X157825000Y-76435000D01*
G75*
G02*
X157625000Y-76635000I-200000J0D01*
G01*
X157075000Y-76635000D01*
G75*
G02*
X156875000Y-76435000I0J200000D01*
G01*
X156875000Y-76035000D01*
G75*
G02*
X157075000Y-75835000I200000J0D01*
G01*
G37*
G36*
G01*
X157075000Y-74185000D02*
X157625000Y-74185000D01*
G75*
G02*
X157825000Y-74385000I0J-200000D01*
G01*
X157825000Y-74785000D01*
G75*
G02*
X157625000Y-74985000I-200000J0D01*
G01*
X157075000Y-74985000D01*
G75*
G02*
X156875000Y-74785000I0J200000D01*
G01*
X156875000Y-74385000D01*
G75*
G02*
X157075000Y-74185000I200000J0D01*
G01*
G37*
%TD*%
%TO.C,R83*%
G36*
G01*
X162715000Y-75860000D02*
X163265000Y-75860000D01*
G75*
G02*
X163465000Y-76060000I0J-200000D01*
G01*
X163465000Y-76460000D01*
G75*
G02*
X163265000Y-76660000I-200000J0D01*
G01*
X162715000Y-76660000D01*
G75*
G02*
X162515000Y-76460000I0J200000D01*
G01*
X162515000Y-76060000D01*
G75*
G02*
X162715000Y-75860000I200000J0D01*
G01*
G37*
G36*
G01*
X162715000Y-74210000D02*
X163265000Y-74210000D01*
G75*
G02*
X163465000Y-74410000I0J-200000D01*
G01*
X163465000Y-74810000D01*
G75*
G02*
X163265000Y-75010000I-200000J0D01*
G01*
X162715000Y-75010000D01*
G75*
G02*
X162515000Y-74810000I0J200000D01*
G01*
X162515000Y-74410000D01*
G75*
G02*
X162715000Y-74210000I200000J0D01*
G01*
G37*
%TD*%
%TO.C,R82*%
G36*
G01*
X168405000Y-75840000D02*
X168955000Y-75840000D01*
G75*
G02*
X169155000Y-76040000I0J-200000D01*
G01*
X169155000Y-76440000D01*
G75*
G02*
X168955000Y-76640000I-200000J0D01*
G01*
X168405000Y-76640000D01*
G75*
G02*
X168205000Y-76440000I0J200000D01*
G01*
X168205000Y-76040000D01*
G75*
G02*
X168405000Y-75840000I200000J0D01*
G01*
G37*
G36*
G01*
X168405000Y-74190000D02*
X168955000Y-74190000D01*
G75*
G02*
X169155000Y-74390000I0J-200000D01*
G01*
X169155000Y-74790000D01*
G75*
G02*
X168955000Y-74990000I-200000J0D01*
G01*
X168405000Y-74990000D01*
G75*
G02*
X168205000Y-74790000I0J200000D01*
G01*
X168205000Y-74390000D01*
G75*
G02*
X168405000Y-74190000I200000J0D01*
G01*
G37*
%TD*%
%TO.C,R81*%
G36*
G01*
X173995000Y-75840000D02*
X174545000Y-75840000D01*
G75*
G02*
X174745000Y-76040000I0J-200000D01*
G01*
X174745000Y-76440000D01*
G75*
G02*
X174545000Y-76640000I-200000J0D01*
G01*
X173995000Y-76640000D01*
G75*
G02*
X173795000Y-76440000I0J200000D01*
G01*
X173795000Y-76040000D01*
G75*
G02*
X173995000Y-75840000I200000J0D01*
G01*
G37*
G36*
G01*
X173995000Y-74190000D02*
X174545000Y-74190000D01*
G75*
G02*
X174745000Y-74390000I0J-200000D01*
G01*
X174745000Y-74790000D01*
G75*
G02*
X174545000Y-74990000I-200000J0D01*
G01*
X173995000Y-74990000D01*
G75*
G02*
X173795000Y-74790000I0J200000D01*
G01*
X173795000Y-74390000D01*
G75*
G02*
X173995000Y-74190000I200000J0D01*
G01*
G37*
%TD*%
%TO.C,R100*%
G36*
G01*
X111815000Y-75820000D02*
X112365000Y-75820000D01*
G75*
G02*
X112565000Y-76020000I0J-200000D01*
G01*
X112565000Y-76420000D01*
G75*
G02*
X112365000Y-76620000I-200000J0D01*
G01*
X111815000Y-76620000D01*
G75*
G02*
X111615000Y-76420000I0J200000D01*
G01*
X111615000Y-76020000D01*
G75*
G02*
X111815000Y-75820000I200000J0D01*
G01*
G37*
G36*
G01*
X111815000Y-74170000D02*
X112365000Y-74170000D01*
G75*
G02*
X112565000Y-74370000I0J-200000D01*
G01*
X112565000Y-74770000D01*
G75*
G02*
X112365000Y-74970000I-200000J0D01*
G01*
X111815000Y-74970000D01*
G75*
G02*
X111615000Y-74770000I0J200000D01*
G01*
X111615000Y-74370000D01*
G75*
G02*
X111815000Y-74170000I200000J0D01*
G01*
G37*
%TD*%
%TO.C,R43*%
G36*
G01*
X84195000Y-90855000D02*
X83645000Y-90855000D01*
G75*
G02*
X83445000Y-90655000I0J200000D01*
G01*
X83445000Y-90255000D01*
G75*
G02*
X83645000Y-90055000I200000J0D01*
G01*
X84195000Y-90055000D01*
G75*
G02*
X84395000Y-90255000I0J-200000D01*
G01*
X84395000Y-90655000D01*
G75*
G02*
X84195000Y-90855000I-200000J0D01*
G01*
G37*
G36*
G01*
X84195000Y-92505000D02*
X83645000Y-92505000D01*
G75*
G02*
X83445000Y-92305000I0J200000D01*
G01*
X83445000Y-91905000D01*
G75*
G02*
X83645000Y-91705000I200000J0D01*
G01*
X84195000Y-91705000D01*
G75*
G02*
X84395000Y-91905000I0J-200000D01*
G01*
X84395000Y-92305000D01*
G75*
G02*
X84195000Y-92505000I-200000J0D01*
G01*
G37*
%TD*%
%TO.C,R101*%
G36*
G01*
X106225000Y-75835000D02*
X106775000Y-75835000D01*
G75*
G02*
X106975000Y-76035000I0J-200000D01*
G01*
X106975000Y-76435000D01*
G75*
G02*
X106775000Y-76635000I-200000J0D01*
G01*
X106225000Y-76635000D01*
G75*
G02*
X106025000Y-76435000I0J200000D01*
G01*
X106025000Y-76035000D01*
G75*
G02*
X106225000Y-75835000I200000J0D01*
G01*
G37*
G36*
G01*
X106225000Y-74185000D02*
X106775000Y-74185000D01*
G75*
G02*
X106975000Y-74385000I0J-200000D01*
G01*
X106975000Y-74785000D01*
G75*
G02*
X106775000Y-74985000I-200000J0D01*
G01*
X106225000Y-74985000D01*
G75*
G02*
X106025000Y-74785000I0J200000D01*
G01*
X106025000Y-74385000D01*
G75*
G02*
X106225000Y-74185000I200000J0D01*
G01*
G37*
%TD*%
%TO.C,R102*%
G36*
G01*
X100825000Y-75835000D02*
X101375000Y-75835000D01*
G75*
G02*
X101575000Y-76035000I0J-200000D01*
G01*
X101575000Y-76435000D01*
G75*
G02*
X101375000Y-76635000I-200000J0D01*
G01*
X100825000Y-76635000D01*
G75*
G02*
X100625000Y-76435000I0J200000D01*
G01*
X100625000Y-76035000D01*
G75*
G02*
X100825000Y-75835000I200000J0D01*
G01*
G37*
G36*
G01*
X100825000Y-74185000D02*
X101375000Y-74185000D01*
G75*
G02*
X101575000Y-74385000I0J-200000D01*
G01*
X101575000Y-74785000D01*
G75*
G02*
X101375000Y-74985000I-200000J0D01*
G01*
X100825000Y-74985000D01*
G75*
G02*
X100625000Y-74785000I0J200000D01*
G01*
X100625000Y-74385000D01*
G75*
G02*
X100825000Y-74185000I200000J0D01*
G01*
G37*
%TD*%
%TO.C,R74*%
G36*
G01*
X164922025Y-59810000D02*
X164922025Y-60360000D01*
G75*
G02*
X164722025Y-60560000I-200000J0D01*
G01*
X164322025Y-60560000D01*
G75*
G02*
X164122025Y-60360000I0J200000D01*
G01*
X164122025Y-59810000D01*
G75*
G02*
X164322025Y-59610000I200000J0D01*
G01*
X164722025Y-59610000D01*
G75*
G02*
X164922025Y-59810000I0J-200000D01*
G01*
G37*
G36*
G01*
X166572025Y-59810000D02*
X166572025Y-60360000D01*
G75*
G02*
X166372025Y-60560000I-200000J0D01*
G01*
X165972025Y-60560000D01*
G75*
G02*
X165772025Y-60360000I0J200000D01*
G01*
X165772025Y-59810000D01*
G75*
G02*
X165972025Y-59610000I200000J0D01*
G01*
X166372025Y-59610000D01*
G75*
G02*
X166572025Y-59810000I0J-200000D01*
G01*
G37*
%TD*%
%TO.C,R73*%
G36*
G01*
X170573506Y-59810000D02*
X170573506Y-60360000D01*
G75*
G02*
X170373506Y-60560000I-200000J0D01*
G01*
X169973506Y-60560000D01*
G75*
G02*
X169773506Y-60360000I0J200000D01*
G01*
X169773506Y-59810000D01*
G75*
G02*
X169973506Y-59610000I200000J0D01*
G01*
X170373506Y-59610000D01*
G75*
G02*
X170573506Y-59810000I0J-200000D01*
G01*
G37*
G36*
G01*
X172223506Y-59810000D02*
X172223506Y-60360000D01*
G75*
G02*
X172023506Y-60560000I-200000J0D01*
G01*
X171623506Y-60560000D01*
G75*
G02*
X171423506Y-60360000I0J200000D01*
G01*
X171423506Y-59810000D01*
G75*
G02*
X171623506Y-59610000I200000J0D01*
G01*
X172023506Y-59610000D01*
G75*
G02*
X172223506Y-59810000I0J-200000D01*
G01*
G37*
%TD*%
%TO.C,R72*%
G36*
G01*
X176225000Y-59810000D02*
X176225000Y-60360000D01*
G75*
G02*
X176025000Y-60560000I-200000J0D01*
G01*
X175625000Y-60560000D01*
G75*
G02*
X175425000Y-60360000I0J200000D01*
G01*
X175425000Y-59810000D01*
G75*
G02*
X175625000Y-59610000I200000J0D01*
G01*
X176025000Y-59610000D01*
G75*
G02*
X176225000Y-59810000I0J-200000D01*
G01*
G37*
G36*
G01*
X177875000Y-59810000D02*
X177875000Y-60360000D01*
G75*
G02*
X177675000Y-60560000I-200000J0D01*
G01*
X177275000Y-60560000D01*
G75*
G02*
X177075000Y-60360000I0J200000D01*
G01*
X177075000Y-59810000D01*
G75*
G02*
X177275000Y-59610000I200000J0D01*
G01*
X177675000Y-59610000D01*
G75*
G02*
X177875000Y-59810000I0J-200000D01*
G01*
G37*
%TD*%
%TO.C,R92*%
G36*
G01*
X114058696Y-59810000D02*
X114058696Y-60360000D01*
G75*
G02*
X113858696Y-60560000I-200000J0D01*
G01*
X113458696Y-60560000D01*
G75*
G02*
X113258696Y-60360000I0J200000D01*
G01*
X113258696Y-59810000D01*
G75*
G02*
X113458696Y-59610000I200000J0D01*
G01*
X113858696Y-59610000D01*
G75*
G02*
X114058696Y-59810000I0J-200000D01*
G01*
G37*
G36*
G01*
X115708696Y-59810000D02*
X115708696Y-60360000D01*
G75*
G02*
X115508696Y-60560000I-200000J0D01*
G01*
X115108696Y-60560000D01*
G75*
G02*
X114908696Y-60360000I0J200000D01*
G01*
X114908696Y-59810000D01*
G75*
G02*
X115108696Y-59610000I200000J0D01*
G01*
X115508696Y-59610000D01*
G75*
G02*
X115708696Y-59810000I0J-200000D01*
G01*
G37*
%TD*%
%TO.C,R34*%
G36*
G01*
X84783258Y-106780000D02*
X84783258Y-106230000D01*
G75*
G02*
X84983258Y-106030000I200000J0D01*
G01*
X85383258Y-106030000D01*
G75*
G02*
X85583258Y-106230000I0J-200000D01*
G01*
X85583258Y-106780000D01*
G75*
G02*
X85383258Y-106980000I-200000J0D01*
G01*
X84983258Y-106980000D01*
G75*
G02*
X84783258Y-106780000I0J200000D01*
G01*
G37*
G36*
G01*
X83133258Y-106780000D02*
X83133258Y-106230000D01*
G75*
G02*
X83333258Y-106030000I200000J0D01*
G01*
X83733258Y-106030000D01*
G75*
G02*
X83933258Y-106230000I0J-200000D01*
G01*
X83933258Y-106780000D01*
G75*
G02*
X83733258Y-106980000I-200000J0D01*
G01*
X83333258Y-106980000D01*
G75*
G02*
X83133258Y-106780000I0J200000D01*
G01*
G37*
%TD*%
%TO.C,R93*%
G36*
G01*
X108407215Y-59810000D02*
X108407215Y-60360000D01*
G75*
G02*
X108207215Y-60560000I-200000J0D01*
G01*
X107807215Y-60560000D01*
G75*
G02*
X107607215Y-60360000I0J200000D01*
G01*
X107607215Y-59810000D01*
G75*
G02*
X107807215Y-59610000I200000J0D01*
G01*
X108207215Y-59610000D01*
G75*
G02*
X108407215Y-59810000I0J-200000D01*
G01*
G37*
G36*
G01*
X110057215Y-59810000D02*
X110057215Y-60360000D01*
G75*
G02*
X109857215Y-60560000I-200000J0D01*
G01*
X109457215Y-60560000D01*
G75*
G02*
X109257215Y-60360000I0J200000D01*
G01*
X109257215Y-59810000D01*
G75*
G02*
X109457215Y-59610000I200000J0D01*
G01*
X109857215Y-59610000D01*
G75*
G02*
X110057215Y-59810000I0J-200000D01*
G01*
G37*
%TD*%
%TO.C,R94*%
G36*
G01*
X102755734Y-59810000D02*
X102755734Y-60360000D01*
G75*
G02*
X102555734Y-60560000I-200000J0D01*
G01*
X102155734Y-60560000D01*
G75*
G02*
X101955734Y-60360000I0J200000D01*
G01*
X101955734Y-59810000D01*
G75*
G02*
X102155734Y-59610000I200000J0D01*
G01*
X102555734Y-59610000D01*
G75*
G02*
X102755734Y-59810000I0J-200000D01*
G01*
G37*
G36*
G01*
X104405734Y-59810000D02*
X104405734Y-60360000D01*
G75*
G02*
X104205734Y-60560000I-200000J0D01*
G01*
X103805734Y-60560000D01*
G75*
G02*
X103605734Y-60360000I0J200000D01*
G01*
X103605734Y-59810000D01*
G75*
G02*
X103805734Y-59610000I200000J0D01*
G01*
X104205734Y-59610000D01*
G75*
G02*
X104405734Y-59810000I0J-200000D01*
G01*
G37*
%TD*%
%TO.C,R64*%
G36*
G01*
X123745000Y-90855000D02*
X123195000Y-90855000D01*
G75*
G02*
X122995000Y-90655000I0J200000D01*
G01*
X122995000Y-90255000D01*
G75*
G02*
X123195000Y-90055000I200000J0D01*
G01*
X123745000Y-90055000D01*
G75*
G02*
X123945000Y-90255000I0J-200000D01*
G01*
X123945000Y-90655000D01*
G75*
G02*
X123745000Y-90855000I-200000J0D01*
G01*
G37*
G36*
G01*
X123745000Y-92505000D02*
X123195000Y-92505000D01*
G75*
G02*
X122995000Y-92305000I0J200000D01*
G01*
X122995000Y-91905000D01*
G75*
G02*
X123195000Y-91705000I200000J0D01*
G01*
X123745000Y-91705000D01*
G75*
G02*
X123945000Y-91905000I0J-200000D01*
G01*
X123945000Y-92305000D01*
G75*
G02*
X123745000Y-92505000I-200000J0D01*
G01*
G37*
%TD*%
%TO.C,R65*%
G36*
G01*
X129395000Y-90855000D02*
X128845000Y-90855000D01*
G75*
G02*
X128645000Y-90655000I0J200000D01*
G01*
X128645000Y-90255000D01*
G75*
G02*
X128845000Y-90055000I200000J0D01*
G01*
X129395000Y-90055000D01*
G75*
G02*
X129595000Y-90255000I0J-200000D01*
G01*
X129595000Y-90655000D01*
G75*
G02*
X129395000Y-90855000I-200000J0D01*
G01*
G37*
G36*
G01*
X129395000Y-92505000D02*
X128845000Y-92505000D01*
G75*
G02*
X128645000Y-92305000I0J200000D01*
G01*
X128645000Y-91905000D01*
G75*
G02*
X128845000Y-91705000I200000J0D01*
G01*
X129395000Y-91705000D01*
G75*
G02*
X129595000Y-91905000I0J-200000D01*
G01*
X129595000Y-92305000D01*
G75*
G02*
X129395000Y-92505000I-200000J0D01*
G01*
G37*
%TD*%
%TO.C,R66*%
G36*
G01*
X135045000Y-90855000D02*
X134495000Y-90855000D01*
G75*
G02*
X134295000Y-90655000I0J200000D01*
G01*
X134295000Y-90255000D01*
G75*
G02*
X134495000Y-90055000I200000J0D01*
G01*
X135045000Y-90055000D01*
G75*
G02*
X135245000Y-90255000I0J-200000D01*
G01*
X135245000Y-90655000D01*
G75*
G02*
X135045000Y-90855000I-200000J0D01*
G01*
G37*
G36*
G01*
X135045000Y-92505000D02*
X134495000Y-92505000D01*
G75*
G02*
X134295000Y-92305000I0J200000D01*
G01*
X134295000Y-91905000D01*
G75*
G02*
X134495000Y-91705000I200000J0D01*
G01*
X135045000Y-91705000D01*
G75*
G02*
X135245000Y-91905000I0J-200000D01*
G01*
X135245000Y-92305000D01*
G75*
G02*
X135045000Y-92505000I-200000J0D01*
G01*
G37*
%TD*%
%TO.C,R67*%
G36*
G01*
X140695000Y-90855000D02*
X140145000Y-90855000D01*
G75*
G02*
X139945000Y-90655000I0J200000D01*
G01*
X139945000Y-90255000D01*
G75*
G02*
X140145000Y-90055000I200000J0D01*
G01*
X140695000Y-90055000D01*
G75*
G02*
X140895000Y-90255000I0J-200000D01*
G01*
X140895000Y-90655000D01*
G75*
G02*
X140695000Y-90855000I-200000J0D01*
G01*
G37*
G36*
G01*
X140695000Y-92505000D02*
X140145000Y-92505000D01*
G75*
G02*
X139945000Y-92305000I0J200000D01*
G01*
X139945000Y-91905000D01*
G75*
G02*
X140145000Y-91705000I200000J0D01*
G01*
X140695000Y-91705000D01*
G75*
G02*
X140895000Y-91905000I0J-200000D01*
G01*
X140895000Y-92305000D01*
G75*
G02*
X140695000Y-92505000I-200000J0D01*
G01*
G37*
%TD*%
%TO.C,R79*%
G36*
G01*
X146345000Y-90855000D02*
X145795000Y-90855000D01*
G75*
G02*
X145595000Y-90655000I0J200000D01*
G01*
X145595000Y-90255000D01*
G75*
G02*
X145795000Y-90055000I200000J0D01*
G01*
X146345000Y-90055000D01*
G75*
G02*
X146545000Y-90255000I0J-200000D01*
G01*
X146545000Y-90655000D01*
G75*
G02*
X146345000Y-90855000I-200000J0D01*
G01*
G37*
G36*
G01*
X146345000Y-92505000D02*
X145795000Y-92505000D01*
G75*
G02*
X145595000Y-92305000I0J200000D01*
G01*
X145595000Y-91905000D01*
G75*
G02*
X145795000Y-91705000I200000J0D01*
G01*
X146345000Y-91705000D01*
G75*
G02*
X146545000Y-91905000I0J-200000D01*
G01*
X146545000Y-92305000D01*
G75*
G02*
X146345000Y-92505000I-200000J0D01*
G01*
G37*
%TD*%
%TO.C,R45*%
G36*
G01*
X95495000Y-90855000D02*
X94945000Y-90855000D01*
G75*
G02*
X94745000Y-90655000I0J200000D01*
G01*
X94745000Y-90255000D01*
G75*
G02*
X94945000Y-90055000I200000J0D01*
G01*
X95495000Y-90055000D01*
G75*
G02*
X95695000Y-90255000I0J-200000D01*
G01*
X95695000Y-90655000D01*
G75*
G02*
X95495000Y-90855000I-200000J0D01*
G01*
G37*
G36*
G01*
X95495000Y-92505000D02*
X94945000Y-92505000D01*
G75*
G02*
X94745000Y-92305000I0J200000D01*
G01*
X94745000Y-91905000D01*
G75*
G02*
X94945000Y-91705000I200000J0D01*
G01*
X95495000Y-91705000D01*
G75*
G02*
X95695000Y-91905000I0J-200000D01*
G01*
X95695000Y-92305000D01*
G75*
G02*
X95495000Y-92505000I-200000J0D01*
G01*
G37*
%TD*%
%TO.C,R44*%
G36*
G01*
X89870000Y-90855000D02*
X89320000Y-90855000D01*
G75*
G02*
X89120000Y-90655000I0J200000D01*
G01*
X89120000Y-90255000D01*
G75*
G02*
X89320000Y-90055000I200000J0D01*
G01*
X89870000Y-90055000D01*
G75*
G02*
X90070000Y-90255000I0J-200000D01*
G01*
X90070000Y-90655000D01*
G75*
G02*
X89870000Y-90855000I-200000J0D01*
G01*
G37*
G36*
G01*
X89870000Y-92505000D02*
X89320000Y-92505000D01*
G75*
G02*
X89120000Y-92305000I0J200000D01*
G01*
X89120000Y-91905000D01*
G75*
G02*
X89320000Y-91705000I200000J0D01*
G01*
X89870000Y-91705000D01*
G75*
G02*
X90070000Y-91905000I0J-200000D01*
G01*
X90070000Y-92305000D01*
G75*
G02*
X89870000Y-92505000I-200000J0D01*
G01*
G37*
%TD*%
%TO.C,R60*%
G36*
G01*
X101145000Y-90855000D02*
X100595000Y-90855000D01*
G75*
G02*
X100395000Y-90655000I0J200000D01*
G01*
X100395000Y-90255000D01*
G75*
G02*
X100595000Y-90055000I200000J0D01*
G01*
X101145000Y-90055000D01*
G75*
G02*
X101345000Y-90255000I0J-200000D01*
G01*
X101345000Y-90655000D01*
G75*
G02*
X101145000Y-90855000I-200000J0D01*
G01*
G37*
G36*
G01*
X101145000Y-92505000D02*
X100595000Y-92505000D01*
G75*
G02*
X100395000Y-92305000I0J200000D01*
G01*
X100395000Y-91905000D01*
G75*
G02*
X100595000Y-91705000I200000J0D01*
G01*
X101145000Y-91705000D01*
G75*
G02*
X101345000Y-91905000I0J-200000D01*
G01*
X101345000Y-92305000D01*
G75*
G02*
X101145000Y-92505000I-200000J0D01*
G01*
G37*
%TD*%
%TO.C,R56*%
G36*
G01*
X124252604Y-106780000D02*
X124252604Y-106230000D01*
G75*
G02*
X124452604Y-106030000I200000J0D01*
G01*
X124852604Y-106030000D01*
G75*
G02*
X125052604Y-106230000I0J-200000D01*
G01*
X125052604Y-106780000D01*
G75*
G02*
X124852604Y-106980000I-200000J0D01*
G01*
X124452604Y-106980000D01*
G75*
G02*
X124252604Y-106780000I0J200000D01*
G01*
G37*
G36*
G01*
X122602604Y-106780000D02*
X122602604Y-106230000D01*
G75*
G02*
X122802604Y-106030000I200000J0D01*
G01*
X123202604Y-106030000D01*
G75*
G02*
X123402604Y-106230000I0J-200000D01*
G01*
X123402604Y-106780000D01*
G75*
G02*
X123202604Y-106980000I-200000J0D01*
G01*
X122802604Y-106980000D01*
G75*
G02*
X122602604Y-106780000I0J200000D01*
G01*
G37*
%TD*%
%TO.C,R57*%
G36*
G01*
X129891082Y-106780000D02*
X129891082Y-106230000D01*
G75*
G02*
X130091082Y-106030000I200000J0D01*
G01*
X130491082Y-106030000D01*
G75*
G02*
X130691082Y-106230000I0J-200000D01*
G01*
X130691082Y-106780000D01*
G75*
G02*
X130491082Y-106980000I-200000J0D01*
G01*
X130091082Y-106980000D01*
G75*
G02*
X129891082Y-106780000I0J200000D01*
G01*
G37*
G36*
G01*
X128241082Y-106780000D02*
X128241082Y-106230000D01*
G75*
G02*
X128441082Y-106030000I200000J0D01*
G01*
X128841082Y-106030000D01*
G75*
G02*
X129041082Y-106230000I0J-200000D01*
G01*
X129041082Y-106780000D01*
G75*
G02*
X128841082Y-106980000I-200000J0D01*
G01*
X128441082Y-106980000D01*
G75*
G02*
X128241082Y-106780000I0J200000D01*
G01*
G37*
%TD*%
%TO.C,R58*%
G36*
G01*
X135529560Y-106780000D02*
X135529560Y-106230000D01*
G75*
G02*
X135729560Y-106030000I200000J0D01*
G01*
X136129560Y-106030000D01*
G75*
G02*
X136329560Y-106230000I0J-200000D01*
G01*
X136329560Y-106780000D01*
G75*
G02*
X136129560Y-106980000I-200000J0D01*
G01*
X135729560Y-106980000D01*
G75*
G02*
X135529560Y-106780000I0J200000D01*
G01*
G37*
G36*
G01*
X133879560Y-106780000D02*
X133879560Y-106230000D01*
G75*
G02*
X134079560Y-106030000I200000J0D01*
G01*
X134479560Y-106030000D01*
G75*
G02*
X134679560Y-106230000I0J-200000D01*
G01*
X134679560Y-106780000D01*
G75*
G02*
X134479560Y-106980000I-200000J0D01*
G01*
X134079560Y-106980000D01*
G75*
G02*
X133879560Y-106780000I0J200000D01*
G01*
G37*
%TD*%
%TO.C,R59*%
G36*
G01*
X141168038Y-106780000D02*
X141168038Y-106230000D01*
G75*
G02*
X141368038Y-106030000I200000J0D01*
G01*
X141768038Y-106030000D01*
G75*
G02*
X141968038Y-106230000I0J-200000D01*
G01*
X141968038Y-106780000D01*
G75*
G02*
X141768038Y-106980000I-200000J0D01*
G01*
X141368038Y-106980000D01*
G75*
G02*
X141168038Y-106780000I0J200000D01*
G01*
G37*
G36*
G01*
X139518038Y-106780000D02*
X139518038Y-106230000D01*
G75*
G02*
X139718038Y-106030000I200000J0D01*
G01*
X140118038Y-106030000D01*
G75*
G02*
X140318038Y-106230000I0J-200000D01*
G01*
X140318038Y-106780000D01*
G75*
G02*
X140118038Y-106980000I-200000J0D01*
G01*
X139718038Y-106980000D01*
G75*
G02*
X139518038Y-106780000I0J200000D01*
G01*
G37*
%TD*%
%TO.C,R70*%
G36*
G01*
X146806516Y-106780000D02*
X146806516Y-106230000D01*
G75*
G02*
X147006516Y-106030000I200000J0D01*
G01*
X147406516Y-106030000D01*
G75*
G02*
X147606516Y-106230000I0J-200000D01*
G01*
X147606516Y-106780000D01*
G75*
G02*
X147406516Y-106980000I-200000J0D01*
G01*
X147006516Y-106980000D01*
G75*
G02*
X146806516Y-106780000I0J200000D01*
G01*
G37*
G36*
G01*
X145156516Y-106780000D02*
X145156516Y-106230000D01*
G75*
G02*
X145356516Y-106030000I200000J0D01*
G01*
X145756516Y-106030000D01*
G75*
G02*
X145956516Y-106230000I0J-200000D01*
G01*
X145956516Y-106780000D01*
G75*
G02*
X145756516Y-106980000I-200000J0D01*
G01*
X145356516Y-106980000D01*
G75*
G02*
X145156516Y-106780000I0J200000D01*
G01*
G37*
%TD*%
%TO.C,R36*%
G36*
G01*
X96060214Y-106780000D02*
X96060214Y-106230000D01*
G75*
G02*
X96260214Y-106030000I200000J0D01*
G01*
X96660214Y-106030000D01*
G75*
G02*
X96860214Y-106230000I0J-200000D01*
G01*
X96860214Y-106780000D01*
G75*
G02*
X96660214Y-106980000I-200000J0D01*
G01*
X96260214Y-106980000D01*
G75*
G02*
X96060214Y-106780000I0J200000D01*
G01*
G37*
G36*
G01*
X94410214Y-106780000D02*
X94410214Y-106230000D01*
G75*
G02*
X94610214Y-106030000I200000J0D01*
G01*
X95010214Y-106030000D01*
G75*
G02*
X95210214Y-106230000I0J-200000D01*
G01*
X95210214Y-106780000D01*
G75*
G02*
X95010214Y-106980000I-200000J0D01*
G01*
X94610214Y-106980000D01*
G75*
G02*
X94410214Y-106780000I0J200000D01*
G01*
G37*
%TD*%
%TO.C,R35*%
G36*
G01*
X90421736Y-106780000D02*
X90421736Y-106230000D01*
G75*
G02*
X90621736Y-106030000I200000J0D01*
G01*
X91021736Y-106030000D01*
G75*
G02*
X91221736Y-106230000I0J-200000D01*
G01*
X91221736Y-106780000D01*
G75*
G02*
X91021736Y-106980000I-200000J0D01*
G01*
X90621736Y-106980000D01*
G75*
G02*
X90421736Y-106780000I0J200000D01*
G01*
G37*
G36*
G01*
X88771736Y-106780000D02*
X88771736Y-106230000D01*
G75*
G02*
X88971736Y-106030000I200000J0D01*
G01*
X89371736Y-106030000D01*
G75*
G02*
X89571736Y-106230000I0J-200000D01*
G01*
X89571736Y-106780000D01*
G75*
G02*
X89371736Y-106980000I-200000J0D01*
G01*
X88971736Y-106980000D01*
G75*
G02*
X88771736Y-106780000I0J200000D01*
G01*
G37*
%TD*%
%TO.C,R52*%
G36*
G01*
X101698692Y-106780000D02*
X101698692Y-106230000D01*
G75*
G02*
X101898692Y-106030000I200000J0D01*
G01*
X102298692Y-106030000D01*
G75*
G02*
X102498692Y-106230000I0J-200000D01*
G01*
X102498692Y-106780000D01*
G75*
G02*
X102298692Y-106980000I-200000J0D01*
G01*
X101898692Y-106980000D01*
G75*
G02*
X101698692Y-106780000I0J200000D01*
G01*
G37*
G36*
G01*
X100048692Y-106780000D02*
X100048692Y-106230000D01*
G75*
G02*
X100248692Y-106030000I200000J0D01*
G01*
X100648692Y-106030000D01*
G75*
G02*
X100848692Y-106230000I0J-200000D01*
G01*
X100848692Y-106780000D01*
G75*
G02*
X100648692Y-106980000I-200000J0D01*
G01*
X100248692Y-106980000D01*
G75*
G02*
X100048692Y-106780000I0J200000D01*
G01*
G37*
%TD*%
%TO.C,R61*%
G36*
G01*
X106770000Y-90855000D02*
X106220000Y-90855000D01*
G75*
G02*
X106020000Y-90655000I0J200000D01*
G01*
X106020000Y-90255000D01*
G75*
G02*
X106220000Y-90055000I200000J0D01*
G01*
X106770000Y-90055000D01*
G75*
G02*
X106970000Y-90255000I0J-200000D01*
G01*
X106970000Y-90655000D01*
G75*
G02*
X106770000Y-90855000I-200000J0D01*
G01*
G37*
G36*
G01*
X106770000Y-92505000D02*
X106220000Y-92505000D01*
G75*
G02*
X106020000Y-92305000I0J200000D01*
G01*
X106020000Y-91905000D01*
G75*
G02*
X106220000Y-91705000I200000J0D01*
G01*
X106770000Y-91705000D01*
G75*
G02*
X106970000Y-91905000I0J-200000D01*
G01*
X106970000Y-92305000D01*
G75*
G02*
X106770000Y-92505000I-200000J0D01*
G01*
G37*
%TD*%
%TO.C,R62*%
G36*
G01*
X112445000Y-90855000D02*
X111895000Y-90855000D01*
G75*
G02*
X111695000Y-90655000I0J200000D01*
G01*
X111695000Y-90255000D01*
G75*
G02*
X111895000Y-90055000I200000J0D01*
G01*
X112445000Y-90055000D01*
G75*
G02*
X112645000Y-90255000I0J-200000D01*
G01*
X112645000Y-90655000D01*
G75*
G02*
X112445000Y-90855000I-200000J0D01*
G01*
G37*
G36*
G01*
X112445000Y-92505000D02*
X111895000Y-92505000D01*
G75*
G02*
X111695000Y-92305000I0J200000D01*
G01*
X111695000Y-91905000D01*
G75*
G02*
X111895000Y-91705000I200000J0D01*
G01*
X112445000Y-91705000D01*
G75*
G02*
X112645000Y-91905000I0J-200000D01*
G01*
X112645000Y-92305000D01*
G75*
G02*
X112445000Y-92505000I-200000J0D01*
G01*
G37*
%TD*%
%TO.C,R86*%
G36*
G01*
X145765000Y-75860000D02*
X146315000Y-75860000D01*
G75*
G02*
X146515000Y-76060000I0J-200000D01*
G01*
X146515000Y-76460000D01*
G75*
G02*
X146315000Y-76660000I-200000J0D01*
G01*
X145765000Y-76660000D01*
G75*
G02*
X145565000Y-76460000I0J200000D01*
G01*
X145565000Y-76060000D01*
G75*
G02*
X145765000Y-75860000I200000J0D01*
G01*
G37*
G36*
G01*
X145765000Y-74210000D02*
X146315000Y-74210000D01*
G75*
G02*
X146515000Y-74410000I0J-200000D01*
G01*
X146515000Y-74810000D01*
G75*
G02*
X146315000Y-75010000I-200000J0D01*
G01*
X145765000Y-75010000D01*
G75*
G02*
X145565000Y-74810000I0J200000D01*
G01*
X145565000Y-74410000D01*
G75*
G02*
X145765000Y-74210000I200000J0D01*
G01*
G37*
%TD*%
%TO.C,R85*%
G36*
G01*
X151525000Y-75840000D02*
X152075000Y-75840000D01*
G75*
G02*
X152275000Y-76040000I0J-200000D01*
G01*
X152275000Y-76440000D01*
G75*
G02*
X152075000Y-76640000I-200000J0D01*
G01*
X151525000Y-76640000D01*
G75*
G02*
X151325000Y-76440000I0J200000D01*
G01*
X151325000Y-76040000D01*
G75*
G02*
X151525000Y-75840000I200000J0D01*
G01*
G37*
G36*
G01*
X151525000Y-74190000D02*
X152075000Y-74190000D01*
G75*
G02*
X152275000Y-74390000I0J-200000D01*
G01*
X152275000Y-74790000D01*
G75*
G02*
X152075000Y-74990000I-200000J0D01*
G01*
X151525000Y-74990000D01*
G75*
G02*
X151325000Y-74790000I0J200000D01*
G01*
X151325000Y-74390000D01*
G75*
G02*
X151525000Y-74190000I200000J0D01*
G01*
G37*
%TD*%
%TO.C,R50*%
G36*
G01*
X78535000Y-90855000D02*
X77985000Y-90855000D01*
G75*
G02*
X77785000Y-90655000I0J200000D01*
G01*
X77785000Y-90255000D01*
G75*
G02*
X77985000Y-90055000I200000J0D01*
G01*
X78535000Y-90055000D01*
G75*
G02*
X78735000Y-90255000I0J-200000D01*
G01*
X78735000Y-90655000D01*
G75*
G02*
X78535000Y-90855000I-200000J0D01*
G01*
G37*
G36*
G01*
X78535000Y-92505000D02*
X77985000Y-92505000D01*
G75*
G02*
X77785000Y-92305000I0J200000D01*
G01*
X77785000Y-91905000D01*
G75*
G02*
X77985000Y-91705000I200000J0D01*
G01*
X78535000Y-91705000D01*
G75*
G02*
X78735000Y-91905000I0J-200000D01*
G01*
X78735000Y-92305000D01*
G75*
G02*
X78535000Y-92505000I-200000J0D01*
G01*
G37*
%TD*%
%TO.C,R49*%
G36*
G01*
X72885000Y-90855000D02*
X72335000Y-90855000D01*
G75*
G02*
X72135000Y-90655000I0J200000D01*
G01*
X72135000Y-90255000D01*
G75*
G02*
X72335000Y-90055000I200000J0D01*
G01*
X72885000Y-90055000D01*
G75*
G02*
X73085000Y-90255000I0J-200000D01*
G01*
X73085000Y-90655000D01*
G75*
G02*
X72885000Y-90855000I-200000J0D01*
G01*
G37*
G36*
G01*
X72885000Y-92505000D02*
X72335000Y-92505000D01*
G75*
G02*
X72135000Y-92305000I0J200000D01*
G01*
X72135000Y-91905000D01*
G75*
G02*
X72335000Y-91705000I200000J0D01*
G01*
X72885000Y-91705000D01*
G75*
G02*
X73085000Y-91905000I0J-200000D01*
G01*
X73085000Y-92305000D01*
G75*
G02*
X72885000Y-92505000I-200000J0D01*
G01*
G37*
%TD*%
%TO.C,R48*%
G36*
G01*
X67235000Y-90860000D02*
X66685000Y-90860000D01*
G75*
G02*
X66485000Y-90660000I0J200000D01*
G01*
X66485000Y-90260000D01*
G75*
G02*
X66685000Y-90060000I200000J0D01*
G01*
X67235000Y-90060000D01*
G75*
G02*
X67435000Y-90260000I0J-200000D01*
G01*
X67435000Y-90660000D01*
G75*
G02*
X67235000Y-90860000I-200000J0D01*
G01*
G37*
G36*
G01*
X67235000Y-92510000D02*
X66685000Y-92510000D01*
G75*
G02*
X66485000Y-92310000I0J200000D01*
G01*
X66485000Y-91910000D01*
G75*
G02*
X66685000Y-91710000I200000J0D01*
G01*
X67235000Y-91710000D01*
G75*
G02*
X67435000Y-91910000I0J-200000D01*
G01*
X67435000Y-92310000D01*
G75*
G02*
X67235000Y-92510000I-200000J0D01*
G01*
G37*
%TD*%
%TO.C,R47*%
G36*
G01*
X61585000Y-90860000D02*
X61035000Y-90860000D01*
G75*
G02*
X60835000Y-90660000I0J200000D01*
G01*
X60835000Y-90260000D01*
G75*
G02*
X61035000Y-90060000I200000J0D01*
G01*
X61585000Y-90060000D01*
G75*
G02*
X61785000Y-90260000I0J-200000D01*
G01*
X61785000Y-90660000D01*
G75*
G02*
X61585000Y-90860000I-200000J0D01*
G01*
G37*
G36*
G01*
X61585000Y-92510000D02*
X61035000Y-92510000D01*
G75*
G02*
X60835000Y-92310000I0J200000D01*
G01*
X60835000Y-91910000D01*
G75*
G02*
X61035000Y-91710000I200000J0D01*
G01*
X61585000Y-91710000D01*
G75*
G02*
X61785000Y-91910000I0J-200000D01*
G01*
X61785000Y-92310000D01*
G75*
G02*
X61585000Y-92510000I-200000J0D01*
G01*
G37*
%TD*%
%TO.C,R53*%
G36*
G01*
X107337170Y-106780000D02*
X107337170Y-106230000D01*
G75*
G02*
X107537170Y-106030000I200000J0D01*
G01*
X107937170Y-106030000D01*
G75*
G02*
X108137170Y-106230000I0J-200000D01*
G01*
X108137170Y-106780000D01*
G75*
G02*
X107937170Y-106980000I-200000J0D01*
G01*
X107537170Y-106980000D01*
G75*
G02*
X107337170Y-106780000I0J200000D01*
G01*
G37*
G36*
G01*
X105687170Y-106780000D02*
X105687170Y-106230000D01*
G75*
G02*
X105887170Y-106030000I200000J0D01*
G01*
X106287170Y-106030000D01*
G75*
G02*
X106487170Y-106230000I0J-200000D01*
G01*
X106487170Y-106780000D01*
G75*
G02*
X106287170Y-106980000I-200000J0D01*
G01*
X105887170Y-106980000D01*
G75*
G02*
X105687170Y-106780000I0J200000D01*
G01*
G37*
%TD*%
%TO.C,R54*%
G36*
G01*
X112975648Y-106780000D02*
X112975648Y-106230000D01*
G75*
G02*
X113175648Y-106030000I200000J0D01*
G01*
X113575648Y-106030000D01*
G75*
G02*
X113775648Y-106230000I0J-200000D01*
G01*
X113775648Y-106780000D01*
G75*
G02*
X113575648Y-106980000I-200000J0D01*
G01*
X113175648Y-106980000D01*
G75*
G02*
X112975648Y-106780000I0J200000D01*
G01*
G37*
G36*
G01*
X111325648Y-106780000D02*
X111325648Y-106230000D01*
G75*
G02*
X111525648Y-106030000I200000J0D01*
G01*
X111925648Y-106030000D01*
G75*
G02*
X112125648Y-106230000I0J-200000D01*
G01*
X112125648Y-106780000D01*
G75*
G02*
X111925648Y-106980000I-200000J0D01*
G01*
X111525648Y-106980000D01*
G75*
G02*
X111325648Y-106780000I0J200000D01*
G01*
G37*
%TD*%
%TO.C,R77*%
G36*
G01*
X147967582Y-59810000D02*
X147967582Y-60360000D01*
G75*
G02*
X147767582Y-60560000I-200000J0D01*
G01*
X147367582Y-60560000D01*
G75*
G02*
X147167582Y-60360000I0J200000D01*
G01*
X147167582Y-59810000D01*
G75*
G02*
X147367582Y-59610000I200000J0D01*
G01*
X147767582Y-59610000D01*
G75*
G02*
X147967582Y-59810000I0J-200000D01*
G01*
G37*
G36*
G01*
X149617582Y-59810000D02*
X149617582Y-60360000D01*
G75*
G02*
X149417582Y-60560000I-200000J0D01*
G01*
X149017582Y-60560000D01*
G75*
G02*
X148817582Y-60360000I0J200000D01*
G01*
X148817582Y-59810000D01*
G75*
G02*
X149017582Y-59610000I200000J0D01*
G01*
X149417582Y-59610000D01*
G75*
G02*
X149617582Y-59810000I0J-200000D01*
G01*
G37*
%TD*%
%TO.C,R76*%
G36*
G01*
X153619063Y-59810000D02*
X153619063Y-60360000D01*
G75*
G02*
X153419063Y-60560000I-200000J0D01*
G01*
X153019063Y-60560000D01*
G75*
G02*
X152819063Y-60360000I0J200000D01*
G01*
X152819063Y-59810000D01*
G75*
G02*
X153019063Y-59610000I200000J0D01*
G01*
X153419063Y-59610000D01*
G75*
G02*
X153619063Y-59810000I0J-200000D01*
G01*
G37*
G36*
G01*
X155269063Y-59810000D02*
X155269063Y-60360000D01*
G75*
G02*
X155069063Y-60560000I-200000J0D01*
G01*
X154669063Y-60560000D01*
G75*
G02*
X154469063Y-60360000I0J200000D01*
G01*
X154469063Y-59810000D01*
G75*
G02*
X154669063Y-59610000I200000J0D01*
G01*
X155069063Y-59610000D01*
G75*
G02*
X155269063Y-59810000I0J-200000D01*
G01*
G37*
%TD*%
%TO.C,R41*%
G36*
G01*
X79144780Y-106780000D02*
X79144780Y-106230000D01*
G75*
G02*
X79344780Y-106030000I200000J0D01*
G01*
X79744780Y-106030000D01*
G75*
G02*
X79944780Y-106230000I0J-200000D01*
G01*
X79944780Y-106780000D01*
G75*
G02*
X79744780Y-106980000I-200000J0D01*
G01*
X79344780Y-106980000D01*
G75*
G02*
X79144780Y-106780000I0J200000D01*
G01*
G37*
G36*
G01*
X77494780Y-106780000D02*
X77494780Y-106230000D01*
G75*
G02*
X77694780Y-106030000I200000J0D01*
G01*
X78094780Y-106030000D01*
G75*
G02*
X78294780Y-106230000I0J-200000D01*
G01*
X78294780Y-106780000D01*
G75*
G02*
X78094780Y-106980000I-200000J0D01*
G01*
X77694780Y-106980000D01*
G75*
G02*
X77494780Y-106780000I0J200000D01*
G01*
G37*
%TD*%
%TO.C,R40*%
G36*
G01*
X73506302Y-106780000D02*
X73506302Y-106230000D01*
G75*
G02*
X73706302Y-106030000I200000J0D01*
G01*
X74106302Y-106030000D01*
G75*
G02*
X74306302Y-106230000I0J-200000D01*
G01*
X74306302Y-106780000D01*
G75*
G02*
X74106302Y-106980000I-200000J0D01*
G01*
X73706302Y-106980000D01*
G75*
G02*
X73506302Y-106780000I0J200000D01*
G01*
G37*
G36*
G01*
X71856302Y-106780000D02*
X71856302Y-106230000D01*
G75*
G02*
X72056302Y-106030000I200000J0D01*
G01*
X72456302Y-106030000D01*
G75*
G02*
X72656302Y-106230000I0J-200000D01*
G01*
X72656302Y-106780000D01*
G75*
G02*
X72456302Y-106980000I-200000J0D01*
G01*
X72056302Y-106980000D01*
G75*
G02*
X71856302Y-106780000I0J200000D01*
G01*
G37*
%TD*%
%TO.C,R39*%
G36*
G01*
X67867824Y-106780000D02*
X67867824Y-106230000D01*
G75*
G02*
X68067824Y-106030000I200000J0D01*
G01*
X68467824Y-106030000D01*
G75*
G02*
X68667824Y-106230000I0J-200000D01*
G01*
X68667824Y-106780000D01*
G75*
G02*
X68467824Y-106980000I-200000J0D01*
G01*
X68067824Y-106980000D01*
G75*
G02*
X67867824Y-106780000I0J200000D01*
G01*
G37*
G36*
G01*
X66217824Y-106780000D02*
X66217824Y-106230000D01*
G75*
G02*
X66417824Y-106030000I200000J0D01*
G01*
X66817824Y-106030000D01*
G75*
G02*
X67017824Y-106230000I0J-200000D01*
G01*
X67017824Y-106780000D01*
G75*
G02*
X66817824Y-106980000I-200000J0D01*
G01*
X66417824Y-106980000D01*
G75*
G02*
X66217824Y-106780000I0J200000D01*
G01*
G37*
%TD*%
%TO.C,R38*%
G36*
G01*
X62229346Y-106780000D02*
X62229346Y-106230000D01*
G75*
G02*
X62429346Y-106030000I200000J0D01*
G01*
X62829346Y-106030000D01*
G75*
G02*
X63029346Y-106230000I0J-200000D01*
G01*
X63029346Y-106780000D01*
G75*
G02*
X62829346Y-106980000I-200000J0D01*
G01*
X62429346Y-106980000D01*
G75*
G02*
X62229346Y-106780000I0J200000D01*
G01*
G37*
G36*
G01*
X60579346Y-106780000D02*
X60579346Y-106230000D01*
G75*
G02*
X60779346Y-106030000I200000J0D01*
G01*
X61179346Y-106030000D01*
G75*
G02*
X61379346Y-106230000I0J-200000D01*
G01*
X61379346Y-106780000D01*
G75*
G02*
X61179346Y-106980000I-200000J0D01*
G01*
X60779346Y-106980000D01*
G75*
G02*
X60579346Y-106780000I0J200000D01*
G01*
G37*
%TD*%
%TO.C,R46*%
G36*
G01*
X55965000Y-90860000D02*
X55415000Y-90860000D01*
G75*
G02*
X55215000Y-90660000I0J200000D01*
G01*
X55215000Y-90260000D01*
G75*
G02*
X55415000Y-90060000I200000J0D01*
G01*
X55965000Y-90060000D01*
G75*
G02*
X56165000Y-90260000I0J-200000D01*
G01*
X56165000Y-90660000D01*
G75*
G02*
X55965000Y-90860000I-200000J0D01*
G01*
G37*
G36*
G01*
X55965000Y-92510000D02*
X55415000Y-92510000D01*
G75*
G02*
X55215000Y-92310000I0J200000D01*
G01*
X55215000Y-91910000D01*
G75*
G02*
X55415000Y-91710000I200000J0D01*
G01*
X55965000Y-91710000D01*
G75*
G02*
X56165000Y-91910000I0J-200000D01*
G01*
X56165000Y-92310000D01*
G75*
G02*
X55965000Y-92510000I-200000J0D01*
G01*
G37*
%TD*%
%TO.C,R33*%
G36*
G01*
X50295000Y-90860000D02*
X49745000Y-90860000D01*
G75*
G02*
X49545000Y-90660000I0J200000D01*
G01*
X49545000Y-90260000D01*
G75*
G02*
X49745000Y-90060000I200000J0D01*
G01*
X50295000Y-90060000D01*
G75*
G02*
X50495000Y-90260000I0J-200000D01*
G01*
X50495000Y-90660000D01*
G75*
G02*
X50295000Y-90860000I-200000J0D01*
G01*
G37*
G36*
G01*
X50295000Y-92510000D02*
X49745000Y-92510000D01*
G75*
G02*
X49545000Y-92310000I0J200000D01*
G01*
X49545000Y-91910000D01*
G75*
G02*
X49745000Y-91710000I200000J0D01*
G01*
X50295000Y-91710000D01*
G75*
G02*
X50495000Y-91910000I0J-200000D01*
G01*
X50495000Y-92310000D01*
G75*
G02*
X50295000Y-92510000I-200000J0D01*
G01*
G37*
%TD*%
%TO.C,R32*%
G36*
G01*
X44635000Y-90850000D02*
X44085000Y-90850000D01*
G75*
G02*
X43885000Y-90650000I0J200000D01*
G01*
X43885000Y-90250000D01*
G75*
G02*
X44085000Y-90050000I200000J0D01*
G01*
X44635000Y-90050000D01*
G75*
G02*
X44835000Y-90250000I0J-200000D01*
G01*
X44835000Y-90650000D01*
G75*
G02*
X44635000Y-90850000I-200000J0D01*
G01*
G37*
G36*
G01*
X44635000Y-92500000D02*
X44085000Y-92500000D01*
G75*
G02*
X43885000Y-92300000I0J200000D01*
G01*
X43885000Y-91900000D01*
G75*
G02*
X44085000Y-91700000I200000J0D01*
G01*
X44635000Y-91700000D01*
G75*
G02*
X44835000Y-91900000I0J-200000D01*
G01*
X44835000Y-92300000D01*
G75*
G02*
X44635000Y-92500000I-200000J0D01*
G01*
G37*
%TD*%
%TO.C,R31*%
G36*
G01*
X39015000Y-90860000D02*
X38465000Y-90860000D01*
G75*
G02*
X38265000Y-90660000I0J200000D01*
G01*
X38265000Y-90260000D01*
G75*
G02*
X38465000Y-90060000I200000J0D01*
G01*
X39015000Y-90060000D01*
G75*
G02*
X39215000Y-90260000I0J-200000D01*
G01*
X39215000Y-90660000D01*
G75*
G02*
X39015000Y-90860000I-200000J0D01*
G01*
G37*
G36*
G01*
X39015000Y-92510000D02*
X38465000Y-92510000D01*
G75*
G02*
X38265000Y-92310000I0J200000D01*
G01*
X38265000Y-91910000D01*
G75*
G02*
X38465000Y-91710000I200000J0D01*
G01*
X39015000Y-91710000D01*
G75*
G02*
X39215000Y-91910000I0J-200000D01*
G01*
X39215000Y-92310000D01*
G75*
G02*
X39015000Y-92510000I-200000J0D01*
G01*
G37*
%TD*%
%TO.C,R30*%
G36*
G01*
X33335000Y-90860000D02*
X32785000Y-90860000D01*
G75*
G02*
X32585000Y-90660000I0J200000D01*
G01*
X32585000Y-90260000D01*
G75*
G02*
X32785000Y-90060000I200000J0D01*
G01*
X33335000Y-90060000D01*
G75*
G02*
X33535000Y-90260000I0J-200000D01*
G01*
X33535000Y-90660000D01*
G75*
G02*
X33335000Y-90860000I-200000J0D01*
G01*
G37*
G36*
G01*
X33335000Y-92510000D02*
X32785000Y-92510000D01*
G75*
G02*
X32585000Y-92310000I0J200000D01*
G01*
X32585000Y-91910000D01*
G75*
G02*
X32785000Y-91710000I200000J0D01*
G01*
X33335000Y-91710000D01*
G75*
G02*
X33535000Y-91910000I0J-200000D01*
G01*
X33535000Y-92310000D01*
G75*
G02*
X33335000Y-92510000I-200000J0D01*
G01*
G37*
%TD*%
%TO.C,R29*%
G36*
G01*
X27715000Y-90860000D02*
X27165000Y-90860000D01*
G75*
G02*
X26965000Y-90660000I0J200000D01*
G01*
X26965000Y-90260000D01*
G75*
G02*
X27165000Y-90060000I200000J0D01*
G01*
X27715000Y-90060000D01*
G75*
G02*
X27915000Y-90260000I0J-200000D01*
G01*
X27915000Y-90660000D01*
G75*
G02*
X27715000Y-90860000I-200000J0D01*
G01*
G37*
G36*
G01*
X27715000Y-92510000D02*
X27165000Y-92510000D01*
G75*
G02*
X26965000Y-92310000I0J200000D01*
G01*
X26965000Y-91910000D01*
G75*
G02*
X27165000Y-91710000I200000J0D01*
G01*
X27715000Y-91710000D01*
G75*
G02*
X27915000Y-91910000I0J-200000D01*
G01*
X27915000Y-92310000D01*
G75*
G02*
X27715000Y-92510000I-200000J0D01*
G01*
G37*
%TD*%
%TO.C,R28*%
G36*
G01*
X22045000Y-90850000D02*
X21495000Y-90850000D01*
G75*
G02*
X21295000Y-90650000I0J200000D01*
G01*
X21295000Y-90250000D01*
G75*
G02*
X21495000Y-90050000I200000J0D01*
G01*
X22045000Y-90050000D01*
G75*
G02*
X22245000Y-90250000I0J-200000D01*
G01*
X22245000Y-90650000D01*
G75*
G02*
X22045000Y-90850000I-200000J0D01*
G01*
G37*
G36*
G01*
X22045000Y-92500000D02*
X21495000Y-92500000D01*
G75*
G02*
X21295000Y-92300000I0J200000D01*
G01*
X21295000Y-91900000D01*
G75*
G02*
X21495000Y-91700000I200000J0D01*
G01*
X22045000Y-91700000D01*
G75*
G02*
X22245000Y-91900000I0J-200000D01*
G01*
X22245000Y-92300000D01*
G75*
G02*
X22045000Y-92500000I-200000J0D01*
G01*
G37*
%TD*%
%TO.C,R27*%
G36*
G01*
X21485000Y-75835000D02*
X22035000Y-75835000D01*
G75*
G02*
X22235000Y-76035000I0J-200000D01*
G01*
X22235000Y-76435000D01*
G75*
G02*
X22035000Y-76635000I-200000J0D01*
G01*
X21485000Y-76635000D01*
G75*
G02*
X21285000Y-76435000I0J200000D01*
G01*
X21285000Y-76035000D01*
G75*
G02*
X21485000Y-75835000I200000J0D01*
G01*
G37*
G36*
G01*
X21485000Y-74185000D02*
X22035000Y-74185000D01*
G75*
G02*
X22235000Y-74385000I0J-200000D01*
G01*
X22235000Y-74785000D01*
G75*
G02*
X22035000Y-74985000I-200000J0D01*
G01*
X21485000Y-74985000D01*
G75*
G02*
X21285000Y-74785000I0J200000D01*
G01*
X21285000Y-74385000D01*
G75*
G02*
X21485000Y-74185000I200000J0D01*
G01*
G37*
%TD*%
%TO.C,R37*%
G36*
G01*
X56590868Y-106780000D02*
X56590868Y-106230000D01*
G75*
G02*
X56790868Y-106030000I200000J0D01*
G01*
X57190868Y-106030000D01*
G75*
G02*
X57390868Y-106230000I0J-200000D01*
G01*
X57390868Y-106780000D01*
G75*
G02*
X57190868Y-106980000I-200000J0D01*
G01*
X56790868Y-106980000D01*
G75*
G02*
X56590868Y-106780000I0J200000D01*
G01*
G37*
G36*
G01*
X54940868Y-106780000D02*
X54940868Y-106230000D01*
G75*
G02*
X55140868Y-106030000I200000J0D01*
G01*
X55540868Y-106030000D01*
G75*
G02*
X55740868Y-106230000I0J-200000D01*
G01*
X55740868Y-106780000D01*
G75*
G02*
X55540868Y-106980000I-200000J0D01*
G01*
X55140868Y-106980000D01*
G75*
G02*
X54940868Y-106780000I0J200000D01*
G01*
G37*
%TD*%
%TO.C,R22*%
G36*
G01*
X50952390Y-106780000D02*
X50952390Y-106230000D01*
G75*
G02*
X51152390Y-106030000I200000J0D01*
G01*
X51552390Y-106030000D01*
G75*
G02*
X51752390Y-106230000I0J-200000D01*
G01*
X51752390Y-106780000D01*
G75*
G02*
X51552390Y-106980000I-200000J0D01*
G01*
X51152390Y-106980000D01*
G75*
G02*
X50952390Y-106780000I0J200000D01*
G01*
G37*
G36*
G01*
X49302390Y-106780000D02*
X49302390Y-106230000D01*
G75*
G02*
X49502390Y-106030000I200000J0D01*
G01*
X49902390Y-106030000D01*
G75*
G02*
X50102390Y-106230000I0J-200000D01*
G01*
X50102390Y-106780000D01*
G75*
G02*
X49902390Y-106980000I-200000J0D01*
G01*
X49502390Y-106980000D01*
G75*
G02*
X49302390Y-106780000I0J200000D01*
G01*
G37*
%TD*%
%TO.C,R21*%
G36*
G01*
X45313912Y-106780000D02*
X45313912Y-106230000D01*
G75*
G02*
X45513912Y-106030000I200000J0D01*
G01*
X45913912Y-106030000D01*
G75*
G02*
X46113912Y-106230000I0J-200000D01*
G01*
X46113912Y-106780000D01*
G75*
G02*
X45913912Y-106980000I-200000J0D01*
G01*
X45513912Y-106980000D01*
G75*
G02*
X45313912Y-106780000I0J200000D01*
G01*
G37*
G36*
G01*
X43663912Y-106780000D02*
X43663912Y-106230000D01*
G75*
G02*
X43863912Y-106030000I200000J0D01*
G01*
X44263912Y-106030000D01*
G75*
G02*
X44463912Y-106230000I0J-200000D01*
G01*
X44463912Y-106780000D01*
G75*
G02*
X44263912Y-106980000I-200000J0D01*
G01*
X43863912Y-106980000D01*
G75*
G02*
X43663912Y-106780000I0J200000D01*
G01*
G37*
%TD*%
%TO.C,R20*%
G36*
G01*
X39675434Y-106780000D02*
X39675434Y-106230000D01*
G75*
G02*
X39875434Y-106030000I200000J0D01*
G01*
X40275434Y-106030000D01*
G75*
G02*
X40475434Y-106230000I0J-200000D01*
G01*
X40475434Y-106780000D01*
G75*
G02*
X40275434Y-106980000I-200000J0D01*
G01*
X39875434Y-106980000D01*
G75*
G02*
X39675434Y-106780000I0J200000D01*
G01*
G37*
G36*
G01*
X38025434Y-106780000D02*
X38025434Y-106230000D01*
G75*
G02*
X38225434Y-106030000I200000J0D01*
G01*
X38625434Y-106030000D01*
G75*
G02*
X38825434Y-106230000I0J-200000D01*
G01*
X38825434Y-106780000D01*
G75*
G02*
X38625434Y-106980000I-200000J0D01*
G01*
X38225434Y-106980000D01*
G75*
G02*
X38025434Y-106780000I0J200000D01*
G01*
G37*
%TD*%
%TO.C,R19*%
G36*
G01*
X34036956Y-106780000D02*
X34036956Y-106230000D01*
G75*
G02*
X34236956Y-106030000I200000J0D01*
G01*
X34636956Y-106030000D01*
G75*
G02*
X34836956Y-106230000I0J-200000D01*
G01*
X34836956Y-106780000D01*
G75*
G02*
X34636956Y-106980000I-200000J0D01*
G01*
X34236956Y-106980000D01*
G75*
G02*
X34036956Y-106780000I0J200000D01*
G01*
G37*
G36*
G01*
X32386956Y-106780000D02*
X32386956Y-106230000D01*
G75*
G02*
X32586956Y-106030000I200000J0D01*
G01*
X32986956Y-106030000D01*
G75*
G02*
X33186956Y-106230000I0J-200000D01*
G01*
X33186956Y-106780000D01*
G75*
G02*
X32986956Y-106980000I-200000J0D01*
G01*
X32586956Y-106980000D01*
G75*
G02*
X32386956Y-106780000I0J200000D01*
G01*
G37*
%TD*%
%TO.C,R18*%
G36*
G01*
X28398478Y-106780000D02*
X28398478Y-106230000D01*
G75*
G02*
X28598478Y-106030000I200000J0D01*
G01*
X28998478Y-106030000D01*
G75*
G02*
X29198478Y-106230000I0J-200000D01*
G01*
X29198478Y-106780000D01*
G75*
G02*
X28998478Y-106980000I-200000J0D01*
G01*
X28598478Y-106980000D01*
G75*
G02*
X28398478Y-106780000I0J200000D01*
G01*
G37*
G36*
G01*
X26748478Y-106780000D02*
X26748478Y-106230000D01*
G75*
G02*
X26948478Y-106030000I200000J0D01*
G01*
X27348478Y-106030000D01*
G75*
G02*
X27548478Y-106230000I0J-200000D01*
G01*
X27548478Y-106780000D01*
G75*
G02*
X27348478Y-106980000I-200000J0D01*
G01*
X26948478Y-106980000D01*
G75*
G02*
X26748478Y-106780000I0J200000D01*
G01*
G37*
%TD*%
%TO.C,R17*%
G36*
G01*
X22760000Y-106780000D02*
X22760000Y-106230000D01*
G75*
G02*
X22960000Y-106030000I200000J0D01*
G01*
X23360000Y-106030000D01*
G75*
G02*
X23560000Y-106230000I0J-200000D01*
G01*
X23560000Y-106780000D01*
G75*
G02*
X23360000Y-106980000I-200000J0D01*
G01*
X22960000Y-106980000D01*
G75*
G02*
X22760000Y-106780000I0J200000D01*
G01*
G37*
G36*
G01*
X21110000Y-106780000D02*
X21110000Y-106230000D01*
G75*
G02*
X21310000Y-106030000I200000J0D01*
G01*
X21710000Y-106030000D01*
G75*
G02*
X21910000Y-106230000I0J-200000D01*
G01*
X21910000Y-106780000D01*
G75*
G02*
X21710000Y-106980000I-200000J0D01*
G01*
X21310000Y-106980000D01*
G75*
G02*
X21110000Y-106780000I0J200000D01*
G01*
G37*
%TD*%
%TO.C,R16*%
G36*
G01*
X23635000Y-59810000D02*
X23635000Y-60360000D01*
G75*
G02*
X23435000Y-60560000I-200000J0D01*
G01*
X23035000Y-60560000D01*
G75*
G02*
X22835000Y-60360000I0J200000D01*
G01*
X22835000Y-59810000D01*
G75*
G02*
X23035000Y-59610000I200000J0D01*
G01*
X23435000Y-59610000D01*
G75*
G02*
X23635000Y-59810000I0J-200000D01*
G01*
G37*
G36*
G01*
X25285000Y-59810000D02*
X25285000Y-60360000D01*
G75*
G02*
X25085000Y-60560000I-200000J0D01*
G01*
X24685000Y-60560000D01*
G75*
G02*
X24485000Y-60360000I0J200000D01*
G01*
X24485000Y-59810000D01*
G75*
G02*
X24685000Y-59610000I200000J0D01*
G01*
X25085000Y-59610000D01*
G75*
G02*
X25285000Y-59810000I0J-200000D01*
G01*
G37*
%TD*%
%TO.C,R26*%
G36*
G01*
X27135000Y-75835000D02*
X27685000Y-75835000D01*
G75*
G02*
X27885000Y-76035000I0J-200000D01*
G01*
X27885000Y-76435000D01*
G75*
G02*
X27685000Y-76635000I-200000J0D01*
G01*
X27135000Y-76635000D01*
G75*
G02*
X26935000Y-76435000I0J200000D01*
G01*
X26935000Y-76035000D01*
G75*
G02*
X27135000Y-75835000I200000J0D01*
G01*
G37*
G36*
G01*
X27135000Y-74185000D02*
X27685000Y-74185000D01*
G75*
G02*
X27885000Y-74385000I0J-200000D01*
G01*
X27885000Y-74785000D01*
G75*
G02*
X27685000Y-74985000I-200000J0D01*
G01*
X27135000Y-74985000D01*
G75*
G02*
X26935000Y-74785000I0J200000D01*
G01*
X26935000Y-74385000D01*
G75*
G02*
X27135000Y-74185000I200000J0D01*
G01*
G37*
%TD*%
%TO.C,R14*%
G36*
G01*
X32860000Y-75835000D02*
X33410000Y-75835000D01*
G75*
G02*
X33610000Y-76035000I0J-200000D01*
G01*
X33610000Y-76435000D01*
G75*
G02*
X33410000Y-76635000I-200000J0D01*
G01*
X32860000Y-76635000D01*
G75*
G02*
X32660000Y-76435000I0J200000D01*
G01*
X32660000Y-76035000D01*
G75*
G02*
X32860000Y-75835000I200000J0D01*
G01*
G37*
G36*
G01*
X32860000Y-74185000D02*
X33410000Y-74185000D01*
G75*
G02*
X33610000Y-74385000I0J-200000D01*
G01*
X33610000Y-74785000D01*
G75*
G02*
X33410000Y-74985000I-200000J0D01*
G01*
X32860000Y-74985000D01*
G75*
G02*
X32660000Y-74785000I0J200000D01*
G01*
X32660000Y-74385000D01*
G75*
G02*
X32860000Y-74185000I200000J0D01*
G01*
G37*
%TD*%
%TO.C,R13*%
G36*
G01*
X38435000Y-75835000D02*
X38985000Y-75835000D01*
G75*
G02*
X39185000Y-76035000I0J-200000D01*
G01*
X39185000Y-76435000D01*
G75*
G02*
X38985000Y-76635000I-200000J0D01*
G01*
X38435000Y-76635000D01*
G75*
G02*
X38235000Y-76435000I0J200000D01*
G01*
X38235000Y-76035000D01*
G75*
G02*
X38435000Y-75835000I200000J0D01*
G01*
G37*
G36*
G01*
X38435000Y-74185000D02*
X38985000Y-74185000D01*
G75*
G02*
X39185000Y-74385000I0J-200000D01*
G01*
X39185000Y-74785000D01*
G75*
G02*
X38985000Y-74985000I-200000J0D01*
G01*
X38435000Y-74985000D01*
G75*
G02*
X38235000Y-74785000I0J200000D01*
G01*
X38235000Y-74385000D01*
G75*
G02*
X38435000Y-74185000I200000J0D01*
G01*
G37*
%TD*%
%TO.C,R12*%
G36*
G01*
X44060000Y-75835000D02*
X44610000Y-75835000D01*
G75*
G02*
X44810000Y-76035000I0J-200000D01*
G01*
X44810000Y-76435000D01*
G75*
G02*
X44610000Y-76635000I-200000J0D01*
G01*
X44060000Y-76635000D01*
G75*
G02*
X43860000Y-76435000I0J200000D01*
G01*
X43860000Y-76035000D01*
G75*
G02*
X44060000Y-75835000I200000J0D01*
G01*
G37*
G36*
G01*
X44060000Y-74185000D02*
X44610000Y-74185000D01*
G75*
G02*
X44810000Y-74385000I0J-200000D01*
G01*
X44810000Y-74785000D01*
G75*
G02*
X44610000Y-74985000I-200000J0D01*
G01*
X44060000Y-74985000D01*
G75*
G02*
X43860000Y-74785000I0J200000D01*
G01*
X43860000Y-74385000D01*
G75*
G02*
X44060000Y-74185000I200000J0D01*
G01*
G37*
%TD*%
%TO.C,R11*%
G36*
G01*
X49735000Y-75835000D02*
X50285000Y-75835000D01*
G75*
G02*
X50485000Y-76035000I0J-200000D01*
G01*
X50485000Y-76435000D01*
G75*
G02*
X50285000Y-76635000I-200000J0D01*
G01*
X49735000Y-76635000D01*
G75*
G02*
X49535000Y-76435000I0J200000D01*
G01*
X49535000Y-76035000D01*
G75*
G02*
X49735000Y-75835000I200000J0D01*
G01*
G37*
G36*
G01*
X49735000Y-74185000D02*
X50285000Y-74185000D01*
G75*
G02*
X50485000Y-74385000I0J-200000D01*
G01*
X50485000Y-74785000D01*
G75*
G02*
X50285000Y-74985000I-200000J0D01*
G01*
X49735000Y-74985000D01*
G75*
G02*
X49535000Y-74785000I0J200000D01*
G01*
X49535000Y-74385000D01*
G75*
G02*
X49735000Y-74185000I200000J0D01*
G01*
G37*
%TD*%
%TO.C,R10*%
G36*
G01*
X55360000Y-75835000D02*
X55910000Y-75835000D01*
G75*
G02*
X56110000Y-76035000I0J-200000D01*
G01*
X56110000Y-76435000D01*
G75*
G02*
X55910000Y-76635000I-200000J0D01*
G01*
X55360000Y-76635000D01*
G75*
G02*
X55160000Y-76435000I0J200000D01*
G01*
X55160000Y-76035000D01*
G75*
G02*
X55360000Y-75835000I200000J0D01*
G01*
G37*
G36*
G01*
X55360000Y-74185000D02*
X55910000Y-74185000D01*
G75*
G02*
X56110000Y-74385000I0J-200000D01*
G01*
X56110000Y-74785000D01*
G75*
G02*
X55910000Y-74985000I-200000J0D01*
G01*
X55360000Y-74985000D01*
G75*
G02*
X55160000Y-74785000I0J200000D01*
G01*
X55160000Y-74385000D01*
G75*
G02*
X55360000Y-74185000I200000J0D01*
G01*
G37*
%TD*%
%TO.C,R9*%
G36*
G01*
X61010000Y-75835000D02*
X61560000Y-75835000D01*
G75*
G02*
X61760000Y-76035000I0J-200000D01*
G01*
X61760000Y-76435000D01*
G75*
G02*
X61560000Y-76635000I-200000J0D01*
G01*
X61010000Y-76635000D01*
G75*
G02*
X60810000Y-76435000I0J200000D01*
G01*
X60810000Y-76035000D01*
G75*
G02*
X61010000Y-75835000I200000J0D01*
G01*
G37*
G36*
G01*
X61010000Y-74185000D02*
X61560000Y-74185000D01*
G75*
G02*
X61760000Y-74385000I0J-200000D01*
G01*
X61760000Y-74785000D01*
G75*
G02*
X61560000Y-74985000I-200000J0D01*
G01*
X61010000Y-74985000D01*
G75*
G02*
X60810000Y-74785000I0J200000D01*
G01*
X60810000Y-74385000D01*
G75*
G02*
X61010000Y-74185000I200000J0D01*
G01*
G37*
%TD*%
%TO.C,R120*%
G36*
G01*
X264250000Y-93800000D02*
X264800000Y-93800000D01*
G75*
G02*
X265000000Y-94000000I0J-200000D01*
G01*
X265000000Y-94400000D01*
G75*
G02*
X264800000Y-94600000I-200000J0D01*
G01*
X264250000Y-94600000D01*
G75*
G02*
X264050000Y-94400000I0J200000D01*
G01*
X264050000Y-94000000D01*
G75*
G02*
X264250000Y-93800000I200000J0D01*
G01*
G37*
G36*
G01*
X264250000Y-92150000D02*
X264800000Y-92150000D01*
G75*
G02*
X265000000Y-92350000I0J-200000D01*
G01*
X265000000Y-92750000D01*
G75*
G02*
X264800000Y-92950000I-200000J0D01*
G01*
X264250000Y-92950000D01*
G75*
G02*
X264050000Y-92750000I0J200000D01*
G01*
X264050000Y-92350000D01*
G75*
G02*
X264250000Y-92150000I200000J0D01*
G01*
G37*
%TD*%
%TO.C,R119*%
G36*
G01*
X262750000Y-92950000D02*
X262200000Y-92950000D01*
G75*
G02*
X262000000Y-92750000I0J200000D01*
G01*
X262000000Y-92350000D01*
G75*
G02*
X262200000Y-92150000I200000J0D01*
G01*
X262750000Y-92150000D01*
G75*
G02*
X262950000Y-92350000I0J-200000D01*
G01*
X262950000Y-92750000D01*
G75*
G02*
X262750000Y-92950000I-200000J0D01*
G01*
G37*
G36*
G01*
X262750000Y-94600000D02*
X262200000Y-94600000D01*
G75*
G02*
X262000000Y-94400000I0J200000D01*
G01*
X262000000Y-94000000D01*
G75*
G02*
X262200000Y-93800000I200000J0D01*
G01*
X262750000Y-93800000D01*
G75*
G02*
X262950000Y-94000000I0J-200000D01*
G01*
X262950000Y-94400000D01*
G75*
G02*
X262750000Y-94600000I-200000J0D01*
G01*
G37*
%TD*%
%TO.C,R15*%
G36*
G01*
X29286481Y-59810000D02*
X29286481Y-60360000D01*
G75*
G02*
X29086481Y-60560000I-200000J0D01*
G01*
X28686481Y-60560000D01*
G75*
G02*
X28486481Y-60360000I0J200000D01*
G01*
X28486481Y-59810000D01*
G75*
G02*
X28686481Y-59610000I200000J0D01*
G01*
X29086481Y-59610000D01*
G75*
G02*
X29286481Y-59810000I0J-200000D01*
G01*
G37*
G36*
G01*
X30936481Y-59810000D02*
X30936481Y-60360000D01*
G75*
G02*
X30736481Y-60560000I-200000J0D01*
G01*
X30336481Y-60560000D01*
G75*
G02*
X30136481Y-60360000I0J200000D01*
G01*
X30136481Y-59810000D01*
G75*
G02*
X30336481Y-59610000I200000J0D01*
G01*
X30736481Y-59610000D01*
G75*
G02*
X30936481Y-59810000I0J-200000D01*
G01*
G37*
%TD*%
%TO.C,R8*%
G36*
G01*
X34937962Y-59810000D02*
X34937962Y-60360000D01*
G75*
G02*
X34737962Y-60560000I-200000J0D01*
G01*
X34337962Y-60560000D01*
G75*
G02*
X34137962Y-60360000I0J200000D01*
G01*
X34137962Y-59810000D01*
G75*
G02*
X34337962Y-59610000I200000J0D01*
G01*
X34737962Y-59610000D01*
G75*
G02*
X34937962Y-59810000I0J-200000D01*
G01*
G37*
G36*
G01*
X36587962Y-59810000D02*
X36587962Y-60360000D01*
G75*
G02*
X36387962Y-60560000I-200000J0D01*
G01*
X35987962Y-60560000D01*
G75*
G02*
X35787962Y-60360000I0J200000D01*
G01*
X35787962Y-59810000D01*
G75*
G02*
X35987962Y-59610000I200000J0D01*
G01*
X36387962Y-59610000D01*
G75*
G02*
X36587962Y-59810000I0J-200000D01*
G01*
G37*
%TD*%
%TO.C,R7*%
G36*
G01*
X40589443Y-59810000D02*
X40589443Y-60360000D01*
G75*
G02*
X40389443Y-60560000I-200000J0D01*
G01*
X39989443Y-60560000D01*
G75*
G02*
X39789443Y-60360000I0J200000D01*
G01*
X39789443Y-59810000D01*
G75*
G02*
X39989443Y-59610000I200000J0D01*
G01*
X40389443Y-59610000D01*
G75*
G02*
X40589443Y-59810000I0J-200000D01*
G01*
G37*
G36*
G01*
X42239443Y-59810000D02*
X42239443Y-60360000D01*
G75*
G02*
X42039443Y-60560000I-200000J0D01*
G01*
X41639443Y-60560000D01*
G75*
G02*
X41439443Y-60360000I0J200000D01*
G01*
X41439443Y-59810000D01*
G75*
G02*
X41639443Y-59610000I200000J0D01*
G01*
X42039443Y-59610000D01*
G75*
G02*
X42239443Y-59810000I0J-200000D01*
G01*
G37*
%TD*%
%TO.C,R6*%
G36*
G01*
X46240924Y-59810000D02*
X46240924Y-60360000D01*
G75*
G02*
X46040924Y-60560000I-200000J0D01*
G01*
X45640924Y-60560000D01*
G75*
G02*
X45440924Y-60360000I0J200000D01*
G01*
X45440924Y-59810000D01*
G75*
G02*
X45640924Y-59610000I200000J0D01*
G01*
X46040924Y-59610000D01*
G75*
G02*
X46240924Y-59810000I0J-200000D01*
G01*
G37*
G36*
G01*
X47890924Y-59810000D02*
X47890924Y-60360000D01*
G75*
G02*
X47690924Y-60560000I-200000J0D01*
G01*
X47290924Y-60560000D01*
G75*
G02*
X47090924Y-60360000I0J200000D01*
G01*
X47090924Y-59810000D01*
G75*
G02*
X47290924Y-59610000I200000J0D01*
G01*
X47690924Y-59610000D01*
G75*
G02*
X47890924Y-59810000I0J-200000D01*
G01*
G37*
%TD*%
%TO.C,R5*%
G36*
G01*
X51892405Y-59810000D02*
X51892405Y-60360000D01*
G75*
G02*
X51692405Y-60560000I-200000J0D01*
G01*
X51292405Y-60560000D01*
G75*
G02*
X51092405Y-60360000I0J200000D01*
G01*
X51092405Y-59810000D01*
G75*
G02*
X51292405Y-59610000I200000J0D01*
G01*
X51692405Y-59610000D01*
G75*
G02*
X51892405Y-59810000I0J-200000D01*
G01*
G37*
G36*
G01*
X53542405Y-59810000D02*
X53542405Y-60360000D01*
G75*
G02*
X53342405Y-60560000I-200000J0D01*
G01*
X52942405Y-60560000D01*
G75*
G02*
X52742405Y-60360000I0J200000D01*
G01*
X52742405Y-59810000D01*
G75*
G02*
X52942405Y-59610000I200000J0D01*
G01*
X53342405Y-59610000D01*
G75*
G02*
X53542405Y-59810000I0J-200000D01*
G01*
G37*
%TD*%
%TO.C,R4*%
G36*
G01*
X57543886Y-59810000D02*
X57543886Y-60360000D01*
G75*
G02*
X57343886Y-60560000I-200000J0D01*
G01*
X56943886Y-60560000D01*
G75*
G02*
X56743886Y-60360000I0J200000D01*
G01*
X56743886Y-59810000D01*
G75*
G02*
X56943886Y-59610000I200000J0D01*
G01*
X57343886Y-59610000D01*
G75*
G02*
X57543886Y-59810000I0J-200000D01*
G01*
G37*
G36*
G01*
X59193886Y-59810000D02*
X59193886Y-60360000D01*
G75*
G02*
X58993886Y-60560000I-200000J0D01*
G01*
X58593886Y-60560000D01*
G75*
G02*
X58393886Y-60360000I0J200000D01*
G01*
X58393886Y-59810000D01*
G75*
G02*
X58593886Y-59610000I200000J0D01*
G01*
X58993886Y-59610000D01*
G75*
G02*
X59193886Y-59810000I0J-200000D01*
G01*
G37*
%TD*%
%TO.C,R3*%
G36*
G01*
X63195367Y-59810000D02*
X63195367Y-60360000D01*
G75*
G02*
X62995367Y-60560000I-200000J0D01*
G01*
X62595367Y-60560000D01*
G75*
G02*
X62395367Y-60360000I0J200000D01*
G01*
X62395367Y-59810000D01*
G75*
G02*
X62595367Y-59610000I200000J0D01*
G01*
X62995367Y-59610000D01*
G75*
G02*
X63195367Y-59810000I0J-200000D01*
G01*
G37*
G36*
G01*
X64845367Y-59810000D02*
X64845367Y-60360000D01*
G75*
G02*
X64645367Y-60560000I-200000J0D01*
G01*
X64245367Y-60560000D01*
G75*
G02*
X64045367Y-60360000I0J200000D01*
G01*
X64045367Y-59810000D01*
G75*
G02*
X64245367Y-59610000I200000J0D01*
G01*
X64645367Y-59610000D01*
G75*
G02*
X64845367Y-59810000I0J-200000D01*
G01*
G37*
%TD*%
%TO.C,R2*%
G36*
G01*
X68846848Y-59810000D02*
X68846848Y-60360000D01*
G75*
G02*
X68646848Y-60560000I-200000J0D01*
G01*
X68246848Y-60560000D01*
G75*
G02*
X68046848Y-60360000I0J200000D01*
G01*
X68046848Y-59810000D01*
G75*
G02*
X68246848Y-59610000I200000J0D01*
G01*
X68646848Y-59610000D01*
G75*
G02*
X68846848Y-59810000I0J-200000D01*
G01*
G37*
G36*
G01*
X70496848Y-59810000D02*
X70496848Y-60360000D01*
G75*
G02*
X70296848Y-60560000I-200000J0D01*
G01*
X69896848Y-60560000D01*
G75*
G02*
X69696848Y-60360000I0J200000D01*
G01*
X69696848Y-59810000D01*
G75*
G02*
X69896848Y-59610000I200000J0D01*
G01*
X70296848Y-59610000D01*
G75*
G02*
X70496848Y-59810000I0J-200000D01*
G01*
G37*
%TD*%
%TO.C,C56*%
G36*
G01*
X92150000Y-75735000D02*
X92650000Y-75735000D01*
G75*
G02*
X92875000Y-75960000I0J-225000D01*
G01*
X92875000Y-76410000D01*
G75*
G02*
X92650000Y-76635000I-225000J0D01*
G01*
X92150000Y-76635000D01*
G75*
G02*
X91925000Y-76410000I0J225000D01*
G01*
X91925000Y-75960000D01*
G75*
G02*
X92150000Y-75735000I225000J0D01*
G01*
G37*
G36*
G01*
X92150000Y-74185000D02*
X92650000Y-74185000D01*
G75*
G02*
X92875000Y-74410000I0J-225000D01*
G01*
X92875000Y-74860000D01*
G75*
G02*
X92650000Y-75085000I-225000J0D01*
G01*
X92150000Y-75085000D01*
G75*
G02*
X91925000Y-74860000I0J225000D01*
G01*
X91925000Y-74410000D01*
G75*
G02*
X92150000Y-74185000I225000J0D01*
G01*
G37*
%TD*%
%TO.C,C57*%
G36*
G01*
X86510000Y-75735000D02*
X87010000Y-75735000D01*
G75*
G02*
X87235000Y-75960000I0J-225000D01*
G01*
X87235000Y-76410000D01*
G75*
G02*
X87010000Y-76635000I-225000J0D01*
G01*
X86510000Y-76635000D01*
G75*
G02*
X86285000Y-76410000I0J225000D01*
G01*
X86285000Y-75960000D01*
G75*
G02*
X86510000Y-75735000I225000J0D01*
G01*
G37*
G36*
G01*
X86510000Y-74185000D02*
X87010000Y-74185000D01*
G75*
G02*
X87235000Y-74410000I0J-225000D01*
G01*
X87235000Y-74860000D01*
G75*
G02*
X87010000Y-75085000I-225000J0D01*
G01*
X86510000Y-75085000D01*
G75*
G02*
X86285000Y-74860000I0J225000D01*
G01*
X86285000Y-74410000D01*
G75*
G02*
X86510000Y-74185000I225000J0D01*
G01*
G37*
%TD*%
%TO.C,C58*%
G36*
G01*
X80860000Y-75735000D02*
X81360000Y-75735000D01*
G75*
G02*
X81585000Y-75960000I0J-225000D01*
G01*
X81585000Y-76410000D01*
G75*
G02*
X81360000Y-76635000I-225000J0D01*
G01*
X80860000Y-76635000D01*
G75*
G02*
X80635000Y-76410000I0J225000D01*
G01*
X80635000Y-75960000D01*
G75*
G02*
X80860000Y-75735000I225000J0D01*
G01*
G37*
G36*
G01*
X80860000Y-74185000D02*
X81360000Y-74185000D01*
G75*
G02*
X81585000Y-74410000I0J-225000D01*
G01*
X81585000Y-74860000D01*
G75*
G02*
X81360000Y-75085000I-225000J0D01*
G01*
X80860000Y-75085000D01*
G75*
G02*
X80635000Y-74860000I0J225000D01*
G01*
X80635000Y-74410000D01*
G75*
G02*
X80860000Y-74185000I225000J0D01*
G01*
G37*
%TD*%
%TO.C,C40*%
G36*
G01*
X154845000Y-90955000D02*
X154345000Y-90955000D01*
G75*
G02*
X154120000Y-90730000I0J225000D01*
G01*
X154120000Y-90280000D01*
G75*
G02*
X154345000Y-90055000I225000J0D01*
G01*
X154845000Y-90055000D01*
G75*
G02*
X155070000Y-90280000I0J-225000D01*
G01*
X155070000Y-90730000D01*
G75*
G02*
X154845000Y-90955000I-225000J0D01*
G01*
G37*
G36*
G01*
X154845000Y-92505000D02*
X154345000Y-92505000D01*
G75*
G02*
X154120000Y-92280000I0J225000D01*
G01*
X154120000Y-91830000D01*
G75*
G02*
X154345000Y-91605000I225000J0D01*
G01*
X154845000Y-91605000D01*
G75*
G02*
X155070000Y-91830000I0J-225000D01*
G01*
X155070000Y-92280000D01*
G75*
G02*
X154845000Y-92505000I-225000J0D01*
G01*
G37*
%TD*%
%TO.C,C3*%
G36*
G01*
X75185000Y-75735000D02*
X75685000Y-75735000D01*
G75*
G02*
X75910000Y-75960000I0J-225000D01*
G01*
X75910000Y-76410000D01*
G75*
G02*
X75685000Y-76635000I-225000J0D01*
G01*
X75185000Y-76635000D01*
G75*
G02*
X74960000Y-76410000I0J225000D01*
G01*
X74960000Y-75960000D01*
G75*
G02*
X75185000Y-75735000I225000J0D01*
G01*
G37*
G36*
G01*
X75185000Y-74185000D02*
X75685000Y-74185000D01*
G75*
G02*
X75910000Y-74410000I0J-225000D01*
G01*
X75910000Y-74860000D01*
G75*
G02*
X75685000Y-75085000I-225000J0D01*
G01*
X75185000Y-75085000D01*
G75*
G02*
X74960000Y-74860000I0J225000D01*
G01*
X74960000Y-74410000D01*
G75*
G02*
X75185000Y-74185000I225000J0D01*
G01*
G37*
%TD*%
%TO.C,C47*%
G36*
G01*
X143000000Y-75735000D02*
X143500000Y-75735000D01*
G75*
G02*
X143725000Y-75960000I0J-225000D01*
G01*
X143725000Y-76410000D01*
G75*
G02*
X143500000Y-76635000I-225000J0D01*
G01*
X143000000Y-76635000D01*
G75*
G02*
X142775000Y-76410000I0J225000D01*
G01*
X142775000Y-75960000D01*
G75*
G02*
X143000000Y-75735000I225000J0D01*
G01*
G37*
G36*
G01*
X143000000Y-74185000D02*
X143500000Y-74185000D01*
G75*
G02*
X143725000Y-74410000I0J-225000D01*
G01*
X143725000Y-74860000D01*
G75*
G02*
X143500000Y-75085000I-225000J0D01*
G01*
X143000000Y-75085000D01*
G75*
G02*
X142775000Y-74860000I0J225000D01*
G01*
X142775000Y-74410000D01*
G75*
G02*
X143000000Y-74185000I225000J0D01*
G01*
G37*
%TD*%
%TO.C,C51*%
G36*
G01*
X120390000Y-75735000D02*
X120890000Y-75735000D01*
G75*
G02*
X121115000Y-75960000I0J-225000D01*
G01*
X121115000Y-76410000D01*
G75*
G02*
X120890000Y-76635000I-225000J0D01*
G01*
X120390000Y-76635000D01*
G75*
G02*
X120165000Y-76410000I0J225000D01*
G01*
X120165000Y-75960000D01*
G75*
G02*
X120390000Y-75735000I225000J0D01*
G01*
G37*
G36*
G01*
X120390000Y-74185000D02*
X120890000Y-74185000D01*
G75*
G02*
X121115000Y-74410000I0J-225000D01*
G01*
X121115000Y-74860000D01*
G75*
G02*
X120890000Y-75085000I-225000J0D01*
G01*
X120390000Y-75085000D01*
G75*
G02*
X120165000Y-74860000I0J225000D01*
G01*
X120165000Y-74410000D01*
G75*
G02*
X120390000Y-74185000I225000J0D01*
G01*
G37*
%TD*%
%TO.C,C33*%
G36*
G01*
X120830000Y-90955000D02*
X120330000Y-90955000D01*
G75*
G02*
X120105000Y-90730000I0J225000D01*
G01*
X120105000Y-90280000D01*
G75*
G02*
X120330000Y-90055000I225000J0D01*
G01*
X120830000Y-90055000D01*
G75*
G02*
X121055000Y-90280000I0J-225000D01*
G01*
X121055000Y-90730000D01*
G75*
G02*
X120830000Y-90955000I-225000J0D01*
G01*
G37*
G36*
G01*
X120830000Y-92505000D02*
X120330000Y-92505000D01*
G75*
G02*
X120105000Y-92280000I0J225000D01*
G01*
X120105000Y-91830000D01*
G75*
G02*
X120330000Y-91605000I225000J0D01*
G01*
X120830000Y-91605000D01*
G75*
G02*
X121055000Y-91830000I0J-225000D01*
G01*
X121055000Y-92280000D01*
G75*
G02*
X120830000Y-92505000I-225000J0D01*
G01*
G37*
%TD*%
%TO.C,C50*%
G36*
G01*
X126040000Y-75735000D02*
X126540000Y-75735000D01*
G75*
G02*
X126765000Y-75960000I0J-225000D01*
G01*
X126765000Y-76410000D01*
G75*
G02*
X126540000Y-76635000I-225000J0D01*
G01*
X126040000Y-76635000D01*
G75*
G02*
X125815000Y-76410000I0J225000D01*
G01*
X125815000Y-75960000D01*
G75*
G02*
X126040000Y-75735000I225000J0D01*
G01*
G37*
G36*
G01*
X126040000Y-74185000D02*
X126540000Y-74185000D01*
G75*
G02*
X126765000Y-74410000I0J-225000D01*
G01*
X126765000Y-74860000D01*
G75*
G02*
X126540000Y-75085000I-225000J0D01*
G01*
X126040000Y-75085000D01*
G75*
G02*
X125815000Y-74860000I0J225000D01*
G01*
X125815000Y-74410000D01*
G75*
G02*
X126040000Y-74185000I225000J0D01*
G01*
G37*
%TD*%
%TO.C,C49*%
G36*
G01*
X131640000Y-75735000D02*
X132140000Y-75735000D01*
G75*
G02*
X132365000Y-75960000I0J-225000D01*
G01*
X132365000Y-76410000D01*
G75*
G02*
X132140000Y-76635000I-225000J0D01*
G01*
X131640000Y-76635000D01*
G75*
G02*
X131415000Y-76410000I0J225000D01*
G01*
X131415000Y-75960000D01*
G75*
G02*
X131640000Y-75735000I225000J0D01*
G01*
G37*
G36*
G01*
X131640000Y-74185000D02*
X132140000Y-74185000D01*
G75*
G02*
X132365000Y-74410000I0J-225000D01*
G01*
X132365000Y-74860000D01*
G75*
G02*
X132140000Y-75085000I-225000J0D01*
G01*
X131640000Y-75085000D01*
G75*
G02*
X131415000Y-74860000I0J225000D01*
G01*
X131415000Y-74410000D01*
G75*
G02*
X131640000Y-74185000I225000J0D01*
G01*
G37*
%TD*%
%TO.C,C48*%
G36*
G01*
X137340000Y-75730000D02*
X137840000Y-75730000D01*
G75*
G02*
X138065000Y-75955000I0J-225000D01*
G01*
X138065000Y-76405000D01*
G75*
G02*
X137840000Y-76630000I-225000J0D01*
G01*
X137340000Y-76630000D01*
G75*
G02*
X137115000Y-76405000I0J225000D01*
G01*
X137115000Y-75955000D01*
G75*
G02*
X137340000Y-75730000I225000J0D01*
G01*
G37*
G36*
G01*
X137340000Y-74180000D02*
X137840000Y-74180000D01*
G75*
G02*
X138065000Y-74405000I0J-225000D01*
G01*
X138065000Y-74855000D01*
G75*
G02*
X137840000Y-75080000I-225000J0D01*
G01*
X137340000Y-75080000D01*
G75*
G02*
X137115000Y-74855000I0J225000D01*
G01*
X137115000Y-74405000D01*
G75*
G02*
X137340000Y-74180000I225000J0D01*
G01*
G37*
%TD*%
%TO.C,C55*%
G36*
G01*
X97810000Y-75740000D02*
X98310000Y-75740000D01*
G75*
G02*
X98535000Y-75965000I0J-225000D01*
G01*
X98535000Y-76415000D01*
G75*
G02*
X98310000Y-76640000I-225000J0D01*
G01*
X97810000Y-76640000D01*
G75*
G02*
X97585000Y-76415000I0J225000D01*
G01*
X97585000Y-75965000D01*
G75*
G02*
X97810000Y-75740000I225000J0D01*
G01*
G37*
G36*
G01*
X97810000Y-74190000D02*
X98310000Y-74190000D01*
G75*
G02*
X98535000Y-74415000I0J-225000D01*
G01*
X98535000Y-74865000D01*
G75*
G02*
X98310000Y-75090000I-225000J0D01*
G01*
X97810000Y-75090000D01*
G75*
G02*
X97585000Y-74865000I0J225000D01*
G01*
X97585000Y-74415000D01*
G75*
G02*
X97810000Y-74190000I225000J0D01*
G01*
G37*
%TD*%
%TO.C,C44*%
G36*
G01*
X159960000Y-75750000D02*
X160460000Y-75750000D01*
G75*
G02*
X160685000Y-75975000I0J-225000D01*
G01*
X160685000Y-76425000D01*
G75*
G02*
X160460000Y-76650000I-225000J0D01*
G01*
X159960000Y-76650000D01*
G75*
G02*
X159735000Y-76425000I0J225000D01*
G01*
X159735000Y-75975000D01*
G75*
G02*
X159960000Y-75750000I225000J0D01*
G01*
G37*
G36*
G01*
X159960000Y-74200000D02*
X160460000Y-74200000D01*
G75*
G02*
X160685000Y-74425000I0J-225000D01*
G01*
X160685000Y-74875000D01*
G75*
G02*
X160460000Y-75100000I-225000J0D01*
G01*
X159960000Y-75100000D01*
G75*
G02*
X159735000Y-74875000I0J225000D01*
G01*
X159735000Y-74425000D01*
G75*
G02*
X159960000Y-74200000I225000J0D01*
G01*
G37*
%TD*%
%TO.C,C43*%
G36*
G01*
X165580000Y-75740000D02*
X166080000Y-75740000D01*
G75*
G02*
X166305000Y-75965000I0J-225000D01*
G01*
X166305000Y-76415000D01*
G75*
G02*
X166080000Y-76640000I-225000J0D01*
G01*
X165580000Y-76640000D01*
G75*
G02*
X165355000Y-76415000I0J225000D01*
G01*
X165355000Y-75965000D01*
G75*
G02*
X165580000Y-75740000I225000J0D01*
G01*
G37*
G36*
G01*
X165580000Y-74190000D02*
X166080000Y-74190000D01*
G75*
G02*
X166305000Y-74415000I0J-225000D01*
G01*
X166305000Y-74865000D01*
G75*
G02*
X166080000Y-75090000I-225000J0D01*
G01*
X165580000Y-75090000D01*
G75*
G02*
X165355000Y-74865000I0J225000D01*
G01*
X165355000Y-74415000D01*
G75*
G02*
X165580000Y-74190000I225000J0D01*
G01*
G37*
%TD*%
%TO.C,C42*%
G36*
G01*
X171230000Y-75735000D02*
X171730000Y-75735000D01*
G75*
G02*
X171955000Y-75960000I0J-225000D01*
G01*
X171955000Y-76410000D01*
G75*
G02*
X171730000Y-76635000I-225000J0D01*
G01*
X171230000Y-76635000D01*
G75*
G02*
X171005000Y-76410000I0J225000D01*
G01*
X171005000Y-75960000D01*
G75*
G02*
X171230000Y-75735000I225000J0D01*
G01*
G37*
G36*
G01*
X171230000Y-74185000D02*
X171730000Y-74185000D01*
G75*
G02*
X171955000Y-74410000I0J-225000D01*
G01*
X171955000Y-74860000D01*
G75*
G02*
X171730000Y-75085000I-225000J0D01*
G01*
X171230000Y-75085000D01*
G75*
G02*
X171005000Y-74860000I0J225000D01*
G01*
X171005000Y-74410000D01*
G75*
G02*
X171230000Y-74185000I225000J0D01*
G01*
G37*
%TD*%
%TO.C,C41*%
G36*
G01*
X176890000Y-75730000D02*
X177390000Y-75730000D01*
G75*
G02*
X177615000Y-75955000I0J-225000D01*
G01*
X177615000Y-76405000D01*
G75*
G02*
X177390000Y-76630000I-225000J0D01*
G01*
X176890000Y-76630000D01*
G75*
G02*
X176665000Y-76405000I0J225000D01*
G01*
X176665000Y-75955000D01*
G75*
G02*
X176890000Y-75730000I225000J0D01*
G01*
G37*
G36*
G01*
X176890000Y-74180000D02*
X177390000Y-74180000D01*
G75*
G02*
X177615000Y-74405000I0J-225000D01*
G01*
X177615000Y-74855000D01*
G75*
G02*
X177390000Y-75080000I-225000J0D01*
G01*
X176890000Y-75080000D01*
G75*
G02*
X176665000Y-74855000I0J225000D01*
G01*
X176665000Y-74405000D01*
G75*
G02*
X176890000Y-74180000I225000J0D01*
G01*
G37*
%TD*%
%TO.C,C52*%
G36*
G01*
X114740000Y-75735000D02*
X115240000Y-75735000D01*
G75*
G02*
X115465000Y-75960000I0J-225000D01*
G01*
X115465000Y-76410000D01*
G75*
G02*
X115240000Y-76635000I-225000J0D01*
G01*
X114740000Y-76635000D01*
G75*
G02*
X114515000Y-76410000I0J225000D01*
G01*
X114515000Y-75960000D01*
G75*
G02*
X114740000Y-75735000I225000J0D01*
G01*
G37*
G36*
G01*
X114740000Y-74185000D02*
X115240000Y-74185000D01*
G75*
G02*
X115465000Y-74410000I0J-225000D01*
G01*
X115465000Y-74860000D01*
G75*
G02*
X115240000Y-75085000I-225000J0D01*
G01*
X114740000Y-75085000D01*
G75*
G02*
X114515000Y-74860000I0J225000D01*
G01*
X114515000Y-74410000D01*
G75*
G02*
X114740000Y-74185000I225000J0D01*
G01*
G37*
%TD*%
%TO.C,C21*%
G36*
G01*
X86990000Y-90955000D02*
X86490000Y-90955000D01*
G75*
G02*
X86265000Y-90730000I0J225000D01*
G01*
X86265000Y-90280000D01*
G75*
G02*
X86490000Y-90055000I225000J0D01*
G01*
X86990000Y-90055000D01*
G75*
G02*
X87215000Y-90280000I0J-225000D01*
G01*
X87215000Y-90730000D01*
G75*
G02*
X86990000Y-90955000I-225000J0D01*
G01*
G37*
G36*
G01*
X86990000Y-92505000D02*
X86490000Y-92505000D01*
G75*
G02*
X86265000Y-92280000I0J225000D01*
G01*
X86265000Y-91830000D01*
G75*
G02*
X86490000Y-91605000I225000J0D01*
G01*
X86990000Y-91605000D01*
G75*
G02*
X87215000Y-91830000I0J-225000D01*
G01*
X87215000Y-92280000D01*
G75*
G02*
X86990000Y-92505000I-225000J0D01*
G01*
G37*
%TD*%
%TO.C,C53*%
G36*
G01*
X109075000Y-75735000D02*
X109575000Y-75735000D01*
G75*
G02*
X109800000Y-75960000I0J-225000D01*
G01*
X109800000Y-76410000D01*
G75*
G02*
X109575000Y-76635000I-225000J0D01*
G01*
X109075000Y-76635000D01*
G75*
G02*
X108850000Y-76410000I0J225000D01*
G01*
X108850000Y-75960000D01*
G75*
G02*
X109075000Y-75735000I225000J0D01*
G01*
G37*
G36*
G01*
X109075000Y-74185000D02*
X109575000Y-74185000D01*
G75*
G02*
X109800000Y-74410000I0J-225000D01*
G01*
X109800000Y-74860000D01*
G75*
G02*
X109575000Y-75085000I-225000J0D01*
G01*
X109075000Y-75085000D01*
G75*
G02*
X108850000Y-74860000I0J225000D01*
G01*
X108850000Y-74410000D01*
G75*
G02*
X109075000Y-74185000I225000J0D01*
G01*
G37*
%TD*%
%TO.C,C54*%
G36*
G01*
X103425000Y-75735000D02*
X103925000Y-75735000D01*
G75*
G02*
X104150000Y-75960000I0J-225000D01*
G01*
X104150000Y-76410000D01*
G75*
G02*
X103925000Y-76635000I-225000J0D01*
G01*
X103425000Y-76635000D01*
G75*
G02*
X103200000Y-76410000I0J225000D01*
G01*
X103200000Y-75960000D01*
G75*
G02*
X103425000Y-75735000I225000J0D01*
G01*
G37*
G36*
G01*
X103425000Y-74185000D02*
X103925000Y-74185000D01*
G75*
G02*
X104150000Y-74410000I0J-225000D01*
G01*
X104150000Y-74860000D01*
G75*
G02*
X103925000Y-75085000I-225000J0D01*
G01*
X103425000Y-75085000D01*
G75*
G02*
X103200000Y-74860000I0J225000D01*
G01*
X103200000Y-74410000D01*
G75*
G02*
X103425000Y-74185000I225000J0D01*
G01*
G37*
%TD*%
%TO.C,C34*%
G36*
G01*
X126595000Y-90955000D02*
X126095000Y-90955000D01*
G75*
G02*
X125870000Y-90730000I0J225000D01*
G01*
X125870000Y-90280000D01*
G75*
G02*
X126095000Y-90055000I225000J0D01*
G01*
X126595000Y-90055000D01*
G75*
G02*
X126820000Y-90280000I0J-225000D01*
G01*
X126820000Y-90730000D01*
G75*
G02*
X126595000Y-90955000I-225000J0D01*
G01*
G37*
G36*
G01*
X126595000Y-92505000D02*
X126095000Y-92505000D01*
G75*
G02*
X125870000Y-92280000I0J225000D01*
G01*
X125870000Y-91830000D01*
G75*
G02*
X126095000Y-91605000I225000J0D01*
G01*
X126595000Y-91605000D01*
G75*
G02*
X126820000Y-91830000I0J-225000D01*
G01*
X126820000Y-92280000D01*
G75*
G02*
X126595000Y-92505000I-225000J0D01*
G01*
G37*
%TD*%
%TO.C,C35*%
G36*
G01*
X132220000Y-90955000D02*
X131720000Y-90955000D01*
G75*
G02*
X131495000Y-90730000I0J225000D01*
G01*
X131495000Y-90280000D01*
G75*
G02*
X131720000Y-90055000I225000J0D01*
G01*
X132220000Y-90055000D01*
G75*
G02*
X132445000Y-90280000I0J-225000D01*
G01*
X132445000Y-90730000D01*
G75*
G02*
X132220000Y-90955000I-225000J0D01*
G01*
G37*
G36*
G01*
X132220000Y-92505000D02*
X131720000Y-92505000D01*
G75*
G02*
X131495000Y-92280000I0J225000D01*
G01*
X131495000Y-91830000D01*
G75*
G02*
X131720000Y-91605000I225000J0D01*
G01*
X132220000Y-91605000D01*
G75*
G02*
X132445000Y-91830000I0J-225000D01*
G01*
X132445000Y-92280000D01*
G75*
G02*
X132220000Y-92505000I-225000J0D01*
G01*
G37*
%TD*%
%TO.C,C36*%
G36*
G01*
X137870000Y-90955000D02*
X137370000Y-90955000D01*
G75*
G02*
X137145000Y-90730000I0J225000D01*
G01*
X137145000Y-90280000D01*
G75*
G02*
X137370000Y-90055000I225000J0D01*
G01*
X137870000Y-90055000D01*
G75*
G02*
X138095000Y-90280000I0J-225000D01*
G01*
X138095000Y-90730000D01*
G75*
G02*
X137870000Y-90955000I-225000J0D01*
G01*
G37*
G36*
G01*
X137870000Y-92505000D02*
X137370000Y-92505000D01*
G75*
G02*
X137145000Y-92280000I0J225000D01*
G01*
X137145000Y-91830000D01*
G75*
G02*
X137370000Y-91605000I225000J0D01*
G01*
X137870000Y-91605000D01*
G75*
G02*
X138095000Y-91830000I0J-225000D01*
G01*
X138095000Y-92280000D01*
G75*
G02*
X137870000Y-92505000I-225000J0D01*
G01*
G37*
%TD*%
%TO.C,C37*%
G36*
G01*
X143545000Y-90955000D02*
X143045000Y-90955000D01*
G75*
G02*
X142820000Y-90730000I0J225000D01*
G01*
X142820000Y-90280000D01*
G75*
G02*
X143045000Y-90055000I225000J0D01*
G01*
X143545000Y-90055000D01*
G75*
G02*
X143770000Y-90280000I0J-225000D01*
G01*
X143770000Y-90730000D01*
G75*
G02*
X143545000Y-90955000I-225000J0D01*
G01*
G37*
G36*
G01*
X143545000Y-92505000D02*
X143045000Y-92505000D01*
G75*
G02*
X142820000Y-92280000I0J225000D01*
G01*
X142820000Y-91830000D01*
G75*
G02*
X143045000Y-91605000I225000J0D01*
G01*
X143545000Y-91605000D01*
G75*
G02*
X143770000Y-91830000I0J-225000D01*
G01*
X143770000Y-92280000D01*
G75*
G02*
X143545000Y-92505000I-225000J0D01*
G01*
G37*
%TD*%
%TO.C,C39*%
G36*
G01*
X149245000Y-90955000D02*
X148745000Y-90955000D01*
G75*
G02*
X148520000Y-90730000I0J225000D01*
G01*
X148520000Y-90280000D01*
G75*
G02*
X148745000Y-90055000I225000J0D01*
G01*
X149245000Y-90055000D01*
G75*
G02*
X149470000Y-90280000I0J-225000D01*
G01*
X149470000Y-90730000D01*
G75*
G02*
X149245000Y-90955000I-225000J0D01*
G01*
G37*
G36*
G01*
X149245000Y-92505000D02*
X148745000Y-92505000D01*
G75*
G02*
X148520000Y-92280000I0J225000D01*
G01*
X148520000Y-91830000D01*
G75*
G02*
X148745000Y-91605000I225000J0D01*
G01*
X149245000Y-91605000D01*
G75*
G02*
X149470000Y-91830000I0J-225000D01*
G01*
X149470000Y-92280000D01*
G75*
G02*
X149245000Y-92505000I-225000J0D01*
G01*
G37*
%TD*%
%TO.C,C23*%
G36*
G01*
X98295000Y-90955000D02*
X97795000Y-90955000D01*
G75*
G02*
X97570000Y-90730000I0J225000D01*
G01*
X97570000Y-90280000D01*
G75*
G02*
X97795000Y-90055000I225000J0D01*
G01*
X98295000Y-90055000D01*
G75*
G02*
X98520000Y-90280000I0J-225000D01*
G01*
X98520000Y-90730000D01*
G75*
G02*
X98295000Y-90955000I-225000J0D01*
G01*
G37*
G36*
G01*
X98295000Y-92505000D02*
X97795000Y-92505000D01*
G75*
G02*
X97570000Y-92280000I0J225000D01*
G01*
X97570000Y-91830000D01*
G75*
G02*
X97795000Y-91605000I225000J0D01*
G01*
X98295000Y-91605000D01*
G75*
G02*
X98520000Y-91830000I0J-225000D01*
G01*
X98520000Y-92280000D01*
G75*
G02*
X98295000Y-92505000I-225000J0D01*
G01*
G37*
%TD*%
%TO.C,C22*%
G36*
G01*
X92695000Y-90955000D02*
X92195000Y-90955000D01*
G75*
G02*
X91970000Y-90730000I0J225000D01*
G01*
X91970000Y-90280000D01*
G75*
G02*
X92195000Y-90055000I225000J0D01*
G01*
X92695000Y-90055000D01*
G75*
G02*
X92920000Y-90280000I0J-225000D01*
G01*
X92920000Y-90730000D01*
G75*
G02*
X92695000Y-90955000I-225000J0D01*
G01*
G37*
G36*
G01*
X92695000Y-92505000D02*
X92195000Y-92505000D01*
G75*
G02*
X91970000Y-92280000I0J225000D01*
G01*
X91970000Y-91830000D01*
G75*
G02*
X92195000Y-91605000I225000J0D01*
G01*
X92695000Y-91605000D01*
G75*
G02*
X92920000Y-91830000I0J-225000D01*
G01*
X92920000Y-92280000D01*
G75*
G02*
X92695000Y-92505000I-225000J0D01*
G01*
G37*
%TD*%
%TO.C,C30*%
G36*
G01*
X103945000Y-90955000D02*
X103445000Y-90955000D01*
G75*
G02*
X103220000Y-90730000I0J225000D01*
G01*
X103220000Y-90280000D01*
G75*
G02*
X103445000Y-90055000I225000J0D01*
G01*
X103945000Y-90055000D01*
G75*
G02*
X104170000Y-90280000I0J-225000D01*
G01*
X104170000Y-90730000D01*
G75*
G02*
X103945000Y-90955000I-225000J0D01*
G01*
G37*
G36*
G01*
X103945000Y-92505000D02*
X103445000Y-92505000D01*
G75*
G02*
X103220000Y-92280000I0J225000D01*
G01*
X103220000Y-91830000D01*
G75*
G02*
X103445000Y-91605000I225000J0D01*
G01*
X103945000Y-91605000D01*
G75*
G02*
X104170000Y-91830000I0J-225000D01*
G01*
X104170000Y-92280000D01*
G75*
G02*
X103945000Y-92505000I-225000J0D01*
G01*
G37*
%TD*%
%TO.C,C31*%
G36*
G01*
X109645000Y-90955000D02*
X109145000Y-90955000D01*
G75*
G02*
X108920000Y-90730000I0J225000D01*
G01*
X108920000Y-90280000D01*
G75*
G02*
X109145000Y-90055000I225000J0D01*
G01*
X109645000Y-90055000D01*
G75*
G02*
X109870000Y-90280000I0J-225000D01*
G01*
X109870000Y-90730000D01*
G75*
G02*
X109645000Y-90955000I-225000J0D01*
G01*
G37*
G36*
G01*
X109645000Y-92505000D02*
X109145000Y-92505000D01*
G75*
G02*
X108920000Y-92280000I0J225000D01*
G01*
X108920000Y-91830000D01*
G75*
G02*
X109145000Y-91605000I225000J0D01*
G01*
X109645000Y-91605000D01*
G75*
G02*
X109870000Y-91830000I0J-225000D01*
G01*
X109870000Y-92280000D01*
G75*
G02*
X109645000Y-92505000I-225000J0D01*
G01*
G37*
%TD*%
%TO.C,C32*%
G36*
G01*
X115320000Y-90955000D02*
X114820000Y-90955000D01*
G75*
G02*
X114595000Y-90730000I0J225000D01*
G01*
X114595000Y-90280000D01*
G75*
G02*
X114820000Y-90055000I225000J0D01*
G01*
X115320000Y-90055000D01*
G75*
G02*
X115545000Y-90280000I0J-225000D01*
G01*
X115545000Y-90730000D01*
G75*
G02*
X115320000Y-90955000I-225000J0D01*
G01*
G37*
G36*
G01*
X115320000Y-92505000D02*
X114820000Y-92505000D01*
G75*
G02*
X114595000Y-92280000I0J225000D01*
G01*
X114595000Y-91830000D01*
G75*
G02*
X114820000Y-91605000I225000J0D01*
G01*
X115320000Y-91605000D01*
G75*
G02*
X115545000Y-91830000I0J-225000D01*
G01*
X115545000Y-92280000D01*
G75*
G02*
X115320000Y-92505000I-225000J0D01*
G01*
G37*
%TD*%
%TO.C,C46*%
G36*
G01*
X148650000Y-75740000D02*
X149150000Y-75740000D01*
G75*
G02*
X149375000Y-75965000I0J-225000D01*
G01*
X149375000Y-76415000D01*
G75*
G02*
X149150000Y-76640000I-225000J0D01*
G01*
X148650000Y-76640000D01*
G75*
G02*
X148425000Y-76415000I0J225000D01*
G01*
X148425000Y-75965000D01*
G75*
G02*
X148650000Y-75740000I225000J0D01*
G01*
G37*
G36*
G01*
X148650000Y-74190000D02*
X149150000Y-74190000D01*
G75*
G02*
X149375000Y-74415000I0J-225000D01*
G01*
X149375000Y-74865000D01*
G75*
G02*
X149150000Y-75090000I-225000J0D01*
G01*
X148650000Y-75090000D01*
G75*
G02*
X148425000Y-74865000I0J225000D01*
G01*
X148425000Y-74415000D01*
G75*
G02*
X148650000Y-74190000I225000J0D01*
G01*
G37*
%TD*%
%TO.C,C45*%
G36*
G01*
X154290000Y-75740000D02*
X154790000Y-75740000D01*
G75*
G02*
X155015000Y-75965000I0J-225000D01*
G01*
X155015000Y-76415000D01*
G75*
G02*
X154790000Y-76640000I-225000J0D01*
G01*
X154290000Y-76640000D01*
G75*
G02*
X154065000Y-76415000I0J225000D01*
G01*
X154065000Y-75965000D01*
G75*
G02*
X154290000Y-75740000I225000J0D01*
G01*
G37*
G36*
G01*
X154290000Y-74190000D02*
X154790000Y-74190000D01*
G75*
G02*
X155015000Y-74415000I0J-225000D01*
G01*
X155015000Y-74865000D01*
G75*
G02*
X154790000Y-75090000I-225000J0D01*
G01*
X154290000Y-75090000D01*
G75*
G02*
X154065000Y-74865000I0J225000D01*
G01*
X154065000Y-74415000D01*
G75*
G02*
X154290000Y-74190000I225000J0D01*
G01*
G37*
%TD*%
%TO.C,C28*%
G36*
G01*
X81290000Y-90955000D02*
X80790000Y-90955000D01*
G75*
G02*
X80565000Y-90730000I0J225000D01*
G01*
X80565000Y-90280000D01*
G75*
G02*
X80790000Y-90055000I225000J0D01*
G01*
X81290000Y-90055000D01*
G75*
G02*
X81515000Y-90280000I0J-225000D01*
G01*
X81515000Y-90730000D01*
G75*
G02*
X81290000Y-90955000I-225000J0D01*
G01*
G37*
G36*
G01*
X81290000Y-92505000D02*
X80790000Y-92505000D01*
G75*
G02*
X80565000Y-92280000I0J225000D01*
G01*
X80565000Y-91830000D01*
G75*
G02*
X80790000Y-91605000I225000J0D01*
G01*
X81290000Y-91605000D01*
G75*
G02*
X81515000Y-91830000I0J-225000D01*
G01*
X81515000Y-92280000D01*
G75*
G02*
X81290000Y-92505000I-225000J0D01*
G01*
G37*
%TD*%
%TO.C,C27*%
G36*
G01*
X75670000Y-90955000D02*
X75170000Y-90955000D01*
G75*
G02*
X74945000Y-90730000I0J225000D01*
G01*
X74945000Y-90280000D01*
G75*
G02*
X75170000Y-90055000I225000J0D01*
G01*
X75670000Y-90055000D01*
G75*
G02*
X75895000Y-90280000I0J-225000D01*
G01*
X75895000Y-90730000D01*
G75*
G02*
X75670000Y-90955000I-225000J0D01*
G01*
G37*
G36*
G01*
X75670000Y-92505000D02*
X75170000Y-92505000D01*
G75*
G02*
X74945000Y-92280000I0J225000D01*
G01*
X74945000Y-91830000D01*
G75*
G02*
X75170000Y-91605000I225000J0D01*
G01*
X75670000Y-91605000D01*
G75*
G02*
X75895000Y-91830000I0J-225000D01*
G01*
X75895000Y-92280000D01*
G75*
G02*
X75670000Y-92505000I-225000J0D01*
G01*
G37*
%TD*%
%TO.C,C26*%
G36*
G01*
X69830000Y-90960000D02*
X69330000Y-90960000D01*
G75*
G02*
X69105000Y-90735000I0J225000D01*
G01*
X69105000Y-90285000D01*
G75*
G02*
X69330000Y-90060000I225000J0D01*
G01*
X69830000Y-90060000D01*
G75*
G02*
X70055000Y-90285000I0J-225000D01*
G01*
X70055000Y-90735000D01*
G75*
G02*
X69830000Y-90960000I-225000J0D01*
G01*
G37*
G36*
G01*
X69830000Y-92510000D02*
X69330000Y-92510000D01*
G75*
G02*
X69105000Y-92285000I0J225000D01*
G01*
X69105000Y-91835000D01*
G75*
G02*
X69330000Y-91610000I225000J0D01*
G01*
X69830000Y-91610000D01*
G75*
G02*
X70055000Y-91835000I0J-225000D01*
G01*
X70055000Y-92285000D01*
G75*
G02*
X69830000Y-92510000I-225000J0D01*
G01*
G37*
%TD*%
%TO.C,C25*%
G36*
G01*
X64350000Y-90970000D02*
X63850000Y-90970000D01*
G75*
G02*
X63625000Y-90745000I0J225000D01*
G01*
X63625000Y-90295000D01*
G75*
G02*
X63850000Y-90070000I225000J0D01*
G01*
X64350000Y-90070000D01*
G75*
G02*
X64575000Y-90295000I0J-225000D01*
G01*
X64575000Y-90745000D01*
G75*
G02*
X64350000Y-90970000I-225000J0D01*
G01*
G37*
G36*
G01*
X64350000Y-92520000D02*
X63850000Y-92520000D01*
G75*
G02*
X63625000Y-92295000I0J225000D01*
G01*
X63625000Y-91845000D01*
G75*
G02*
X63850000Y-91620000I225000J0D01*
G01*
X64350000Y-91620000D01*
G75*
G02*
X64575000Y-91845000I0J-225000D01*
G01*
X64575000Y-92295000D01*
G75*
G02*
X64350000Y-92520000I-225000J0D01*
G01*
G37*
%TD*%
%TO.C,C24*%
G36*
G01*
X58690000Y-90960000D02*
X58190000Y-90960000D01*
G75*
G02*
X57965000Y-90735000I0J225000D01*
G01*
X57965000Y-90285000D01*
G75*
G02*
X58190000Y-90060000I225000J0D01*
G01*
X58690000Y-90060000D01*
G75*
G02*
X58915000Y-90285000I0J-225000D01*
G01*
X58915000Y-90735000D01*
G75*
G02*
X58690000Y-90960000I-225000J0D01*
G01*
G37*
G36*
G01*
X58690000Y-92510000D02*
X58190000Y-92510000D01*
G75*
G02*
X57965000Y-92285000I0J225000D01*
G01*
X57965000Y-91835000D01*
G75*
G02*
X58190000Y-91610000I225000J0D01*
G01*
X58690000Y-91610000D01*
G75*
G02*
X58915000Y-91835000I0J-225000D01*
G01*
X58915000Y-92285000D01*
G75*
G02*
X58690000Y-92510000I-225000J0D01*
G01*
G37*
%TD*%
%TO.C,C20*%
G36*
G01*
X53090000Y-90980000D02*
X52590000Y-90980000D01*
G75*
G02*
X52365000Y-90755000I0J225000D01*
G01*
X52365000Y-90305000D01*
G75*
G02*
X52590000Y-90080000I225000J0D01*
G01*
X53090000Y-90080000D01*
G75*
G02*
X53315000Y-90305000I0J-225000D01*
G01*
X53315000Y-90755000D01*
G75*
G02*
X53090000Y-90980000I-225000J0D01*
G01*
G37*
G36*
G01*
X53090000Y-92530000D02*
X52590000Y-92530000D01*
G75*
G02*
X52365000Y-92305000I0J225000D01*
G01*
X52365000Y-91855000D01*
G75*
G02*
X52590000Y-91630000I225000J0D01*
G01*
X53090000Y-91630000D01*
G75*
G02*
X53315000Y-91855000I0J-225000D01*
G01*
X53315000Y-92305000D01*
G75*
G02*
X53090000Y-92530000I-225000J0D01*
G01*
G37*
%TD*%
%TO.C,C19*%
G36*
G01*
X47380000Y-90960000D02*
X46880000Y-90960000D01*
G75*
G02*
X46655000Y-90735000I0J225000D01*
G01*
X46655000Y-90285000D01*
G75*
G02*
X46880000Y-90060000I225000J0D01*
G01*
X47380000Y-90060000D01*
G75*
G02*
X47605000Y-90285000I0J-225000D01*
G01*
X47605000Y-90735000D01*
G75*
G02*
X47380000Y-90960000I-225000J0D01*
G01*
G37*
G36*
G01*
X47380000Y-92510000D02*
X46880000Y-92510000D01*
G75*
G02*
X46655000Y-92285000I0J225000D01*
G01*
X46655000Y-91835000D01*
G75*
G02*
X46880000Y-91610000I225000J0D01*
G01*
X47380000Y-91610000D01*
G75*
G02*
X47605000Y-91835000I0J-225000D01*
G01*
X47605000Y-92285000D01*
G75*
G02*
X47380000Y-92510000I-225000J0D01*
G01*
G37*
%TD*%
%TO.C,C18*%
G36*
G01*
X41680000Y-90975000D02*
X41180000Y-90975000D01*
G75*
G02*
X40955000Y-90750000I0J225000D01*
G01*
X40955000Y-90300000D01*
G75*
G02*
X41180000Y-90075000I225000J0D01*
G01*
X41680000Y-90075000D01*
G75*
G02*
X41905000Y-90300000I0J-225000D01*
G01*
X41905000Y-90750000D01*
G75*
G02*
X41680000Y-90975000I-225000J0D01*
G01*
G37*
G36*
G01*
X41680000Y-92525000D02*
X41180000Y-92525000D01*
G75*
G02*
X40955000Y-92300000I0J225000D01*
G01*
X40955000Y-91850000D01*
G75*
G02*
X41180000Y-91625000I225000J0D01*
G01*
X41680000Y-91625000D01*
G75*
G02*
X41905000Y-91850000I0J-225000D01*
G01*
X41905000Y-92300000D01*
G75*
G02*
X41680000Y-92525000I-225000J0D01*
G01*
G37*
%TD*%
%TO.C,C17*%
G36*
G01*
X36270000Y-90970000D02*
X35770000Y-90970000D01*
G75*
G02*
X35545000Y-90745000I0J225000D01*
G01*
X35545000Y-90295000D01*
G75*
G02*
X35770000Y-90070000I225000J0D01*
G01*
X36270000Y-90070000D01*
G75*
G02*
X36495000Y-90295000I0J-225000D01*
G01*
X36495000Y-90745000D01*
G75*
G02*
X36270000Y-90970000I-225000J0D01*
G01*
G37*
G36*
G01*
X36270000Y-92520000D02*
X35770000Y-92520000D01*
G75*
G02*
X35545000Y-92295000I0J225000D01*
G01*
X35545000Y-91845000D01*
G75*
G02*
X35770000Y-91620000I225000J0D01*
G01*
X36270000Y-91620000D01*
G75*
G02*
X36495000Y-91845000I0J-225000D01*
G01*
X36495000Y-92295000D01*
G75*
G02*
X36270000Y-92520000I-225000J0D01*
G01*
G37*
%TD*%
%TO.C,C16*%
G36*
G01*
X30530000Y-90945000D02*
X30030000Y-90945000D01*
G75*
G02*
X29805000Y-90720000I0J225000D01*
G01*
X29805000Y-90270000D01*
G75*
G02*
X30030000Y-90045000I225000J0D01*
G01*
X30530000Y-90045000D01*
G75*
G02*
X30755000Y-90270000I0J-225000D01*
G01*
X30755000Y-90720000D01*
G75*
G02*
X30530000Y-90945000I-225000J0D01*
G01*
G37*
G36*
G01*
X30530000Y-92495000D02*
X30030000Y-92495000D01*
G75*
G02*
X29805000Y-92270000I0J225000D01*
G01*
X29805000Y-91820000D01*
G75*
G02*
X30030000Y-91595000I225000J0D01*
G01*
X30530000Y-91595000D01*
G75*
G02*
X30755000Y-91820000I0J-225000D01*
G01*
X30755000Y-92270000D01*
G75*
G02*
X30530000Y-92495000I-225000J0D01*
G01*
G37*
%TD*%
%TO.C,C15*%
G36*
G01*
X24850000Y-90955000D02*
X24350000Y-90955000D01*
G75*
G02*
X24125000Y-90730000I0J225000D01*
G01*
X24125000Y-90280000D01*
G75*
G02*
X24350000Y-90055000I225000J0D01*
G01*
X24850000Y-90055000D01*
G75*
G02*
X25075000Y-90280000I0J-225000D01*
G01*
X25075000Y-90730000D01*
G75*
G02*
X24850000Y-90955000I-225000J0D01*
G01*
G37*
G36*
G01*
X24850000Y-92505000D02*
X24350000Y-92505000D01*
G75*
G02*
X24125000Y-92280000I0J225000D01*
G01*
X24125000Y-91830000D01*
G75*
G02*
X24350000Y-91605000I225000J0D01*
G01*
X24850000Y-91605000D01*
G75*
G02*
X25075000Y-91830000I0J-225000D01*
G01*
X25075000Y-92280000D01*
G75*
G02*
X24850000Y-92505000I-225000J0D01*
G01*
G37*
%TD*%
%TO.C,C14*%
G36*
G01*
X24360000Y-75735000D02*
X24860000Y-75735000D01*
G75*
G02*
X25085000Y-75960000I0J-225000D01*
G01*
X25085000Y-76410000D01*
G75*
G02*
X24860000Y-76635000I-225000J0D01*
G01*
X24360000Y-76635000D01*
G75*
G02*
X24135000Y-76410000I0J225000D01*
G01*
X24135000Y-75960000D01*
G75*
G02*
X24360000Y-75735000I225000J0D01*
G01*
G37*
G36*
G01*
X24360000Y-74185000D02*
X24860000Y-74185000D01*
G75*
G02*
X25085000Y-74410000I0J-225000D01*
G01*
X25085000Y-74860000D01*
G75*
G02*
X24860000Y-75085000I-225000J0D01*
G01*
X24360000Y-75085000D01*
G75*
G02*
X24135000Y-74860000I0J225000D01*
G01*
X24135000Y-74410000D01*
G75*
G02*
X24360000Y-74185000I225000J0D01*
G01*
G37*
%TD*%
%TO.C,C13*%
G36*
G01*
X30010000Y-75735000D02*
X30510000Y-75735000D01*
G75*
G02*
X30735000Y-75960000I0J-225000D01*
G01*
X30735000Y-76410000D01*
G75*
G02*
X30510000Y-76635000I-225000J0D01*
G01*
X30010000Y-76635000D01*
G75*
G02*
X29785000Y-76410000I0J225000D01*
G01*
X29785000Y-75960000D01*
G75*
G02*
X30010000Y-75735000I225000J0D01*
G01*
G37*
G36*
G01*
X30010000Y-74185000D02*
X30510000Y-74185000D01*
G75*
G02*
X30735000Y-74410000I0J-225000D01*
G01*
X30735000Y-74860000D01*
G75*
G02*
X30510000Y-75085000I-225000J0D01*
G01*
X30010000Y-75085000D01*
G75*
G02*
X29785000Y-74860000I0J225000D01*
G01*
X29785000Y-74410000D01*
G75*
G02*
X30010000Y-74185000I225000J0D01*
G01*
G37*
%TD*%
%TO.C,C10*%
G36*
G01*
X35635000Y-75735000D02*
X36135000Y-75735000D01*
G75*
G02*
X36360000Y-75960000I0J-225000D01*
G01*
X36360000Y-76410000D01*
G75*
G02*
X36135000Y-76635000I-225000J0D01*
G01*
X35635000Y-76635000D01*
G75*
G02*
X35410000Y-76410000I0J225000D01*
G01*
X35410000Y-75960000D01*
G75*
G02*
X35635000Y-75735000I225000J0D01*
G01*
G37*
G36*
G01*
X35635000Y-74185000D02*
X36135000Y-74185000D01*
G75*
G02*
X36360000Y-74410000I0J-225000D01*
G01*
X36360000Y-74860000D01*
G75*
G02*
X36135000Y-75085000I-225000J0D01*
G01*
X35635000Y-75085000D01*
G75*
G02*
X35410000Y-74860000I0J225000D01*
G01*
X35410000Y-74410000D01*
G75*
G02*
X35635000Y-74185000I225000J0D01*
G01*
G37*
%TD*%
%TO.C,C9*%
G36*
G01*
X41285000Y-75735000D02*
X41785000Y-75735000D01*
G75*
G02*
X42010000Y-75960000I0J-225000D01*
G01*
X42010000Y-76410000D01*
G75*
G02*
X41785000Y-76635000I-225000J0D01*
G01*
X41285000Y-76635000D01*
G75*
G02*
X41060000Y-76410000I0J225000D01*
G01*
X41060000Y-75960000D01*
G75*
G02*
X41285000Y-75735000I225000J0D01*
G01*
G37*
G36*
G01*
X41285000Y-74185000D02*
X41785000Y-74185000D01*
G75*
G02*
X42010000Y-74410000I0J-225000D01*
G01*
X42010000Y-74860000D01*
G75*
G02*
X41785000Y-75085000I-225000J0D01*
G01*
X41285000Y-75085000D01*
G75*
G02*
X41060000Y-74860000I0J225000D01*
G01*
X41060000Y-74410000D01*
G75*
G02*
X41285000Y-74185000I225000J0D01*
G01*
G37*
%TD*%
%TO.C,C8*%
G36*
G01*
X46935000Y-75735000D02*
X47435000Y-75735000D01*
G75*
G02*
X47660000Y-75960000I0J-225000D01*
G01*
X47660000Y-76410000D01*
G75*
G02*
X47435000Y-76635000I-225000J0D01*
G01*
X46935000Y-76635000D01*
G75*
G02*
X46710000Y-76410000I0J225000D01*
G01*
X46710000Y-75960000D01*
G75*
G02*
X46935000Y-75735000I225000J0D01*
G01*
G37*
G36*
G01*
X46935000Y-74185000D02*
X47435000Y-74185000D01*
G75*
G02*
X47660000Y-74410000I0J-225000D01*
G01*
X47660000Y-74860000D01*
G75*
G02*
X47435000Y-75085000I-225000J0D01*
G01*
X46935000Y-75085000D01*
G75*
G02*
X46710000Y-74860000I0J225000D01*
G01*
X46710000Y-74410000D01*
G75*
G02*
X46935000Y-74185000I225000J0D01*
G01*
G37*
%TD*%
%TO.C,C7*%
G36*
G01*
X52585000Y-75735000D02*
X53085000Y-75735000D01*
G75*
G02*
X53310000Y-75960000I0J-225000D01*
G01*
X53310000Y-76410000D01*
G75*
G02*
X53085000Y-76635000I-225000J0D01*
G01*
X52585000Y-76635000D01*
G75*
G02*
X52360000Y-76410000I0J225000D01*
G01*
X52360000Y-75960000D01*
G75*
G02*
X52585000Y-75735000I225000J0D01*
G01*
G37*
G36*
G01*
X52585000Y-74185000D02*
X53085000Y-74185000D01*
G75*
G02*
X53310000Y-74410000I0J-225000D01*
G01*
X53310000Y-74860000D01*
G75*
G02*
X53085000Y-75085000I-225000J0D01*
G01*
X52585000Y-75085000D01*
G75*
G02*
X52360000Y-74860000I0J225000D01*
G01*
X52360000Y-74410000D01*
G75*
G02*
X52585000Y-74185000I225000J0D01*
G01*
G37*
%TD*%
%TO.C,C6*%
G36*
G01*
X58260000Y-75735000D02*
X58760000Y-75735000D01*
G75*
G02*
X58985000Y-75960000I0J-225000D01*
G01*
X58985000Y-76410000D01*
G75*
G02*
X58760000Y-76635000I-225000J0D01*
G01*
X58260000Y-76635000D01*
G75*
G02*
X58035000Y-76410000I0J225000D01*
G01*
X58035000Y-75960000D01*
G75*
G02*
X58260000Y-75735000I225000J0D01*
G01*
G37*
G36*
G01*
X58260000Y-74185000D02*
X58760000Y-74185000D01*
G75*
G02*
X58985000Y-74410000I0J-225000D01*
G01*
X58985000Y-74860000D01*
G75*
G02*
X58760000Y-75085000I-225000J0D01*
G01*
X58260000Y-75085000D01*
G75*
G02*
X58035000Y-74860000I0J225000D01*
G01*
X58035000Y-74410000D01*
G75*
G02*
X58260000Y-74185000I225000J0D01*
G01*
G37*
%TD*%
%TO.C,C5*%
G36*
G01*
X63885000Y-75735000D02*
X64385000Y-75735000D01*
G75*
G02*
X64610000Y-75960000I0J-225000D01*
G01*
X64610000Y-76410000D01*
G75*
G02*
X64385000Y-76635000I-225000J0D01*
G01*
X63885000Y-76635000D01*
G75*
G02*
X63660000Y-76410000I0J225000D01*
G01*
X63660000Y-75960000D01*
G75*
G02*
X63885000Y-75735000I225000J0D01*
G01*
G37*
G36*
G01*
X63885000Y-74185000D02*
X64385000Y-74185000D01*
G75*
G02*
X64610000Y-74410000I0J-225000D01*
G01*
X64610000Y-74860000D01*
G75*
G02*
X64385000Y-75085000I-225000J0D01*
G01*
X63885000Y-75085000D01*
G75*
G02*
X63660000Y-74860000I0J225000D01*
G01*
X63660000Y-74410000D01*
G75*
G02*
X63885000Y-74185000I225000J0D01*
G01*
G37*
%TD*%
D21*
%TO.C,Y1*%
X232510000Y-86040000D03*
X234410000Y-86040000D03*
%TD*%
%TO.C,U62*%
G36*
G01*
X256475000Y-97050000D02*
X256175000Y-97050000D01*
G75*
G02*
X256025000Y-96900000I0J150000D01*
G01*
X256025000Y-95450000D01*
G75*
G02*
X256175000Y-95300000I150000J0D01*
G01*
X256475000Y-95300000D01*
G75*
G02*
X256625000Y-95450000I0J-150000D01*
G01*
X256625000Y-96900000D01*
G75*
G02*
X256475000Y-97050000I-150000J0D01*
G01*
G37*
G36*
G01*
X257745000Y-97050000D02*
X257445000Y-97050000D01*
G75*
G02*
X257295000Y-96900000I0J150000D01*
G01*
X257295000Y-95450000D01*
G75*
G02*
X257445000Y-95300000I150000J0D01*
G01*
X257745000Y-95300000D01*
G75*
G02*
X257895000Y-95450000I0J-150000D01*
G01*
X257895000Y-96900000D01*
G75*
G02*
X257745000Y-97050000I-150000J0D01*
G01*
G37*
G36*
G01*
X259015000Y-97050000D02*
X258715000Y-97050000D01*
G75*
G02*
X258565000Y-96900000I0J150000D01*
G01*
X258565000Y-95450000D01*
G75*
G02*
X258715000Y-95300000I150000J0D01*
G01*
X259015000Y-95300000D01*
G75*
G02*
X259165000Y-95450000I0J-150000D01*
G01*
X259165000Y-96900000D01*
G75*
G02*
X259015000Y-97050000I-150000J0D01*
G01*
G37*
G36*
G01*
X260285000Y-97050000D02*
X259985000Y-97050000D01*
G75*
G02*
X259835000Y-96900000I0J150000D01*
G01*
X259835000Y-95450000D01*
G75*
G02*
X259985000Y-95300000I150000J0D01*
G01*
X260285000Y-95300000D01*
G75*
G02*
X260435000Y-95450000I0J-150000D01*
G01*
X260435000Y-96900000D01*
G75*
G02*
X260285000Y-97050000I-150000J0D01*
G01*
G37*
G36*
G01*
X260285000Y-91900000D02*
X259985000Y-91900000D01*
G75*
G02*
X259835000Y-91750000I0J150000D01*
G01*
X259835000Y-90300000D01*
G75*
G02*
X259985000Y-90150000I150000J0D01*
G01*
X260285000Y-90150000D01*
G75*
G02*
X260435000Y-90300000I0J-150000D01*
G01*
X260435000Y-91750000D01*
G75*
G02*
X260285000Y-91900000I-150000J0D01*
G01*
G37*
G36*
G01*
X259015000Y-91900000D02*
X258715000Y-91900000D01*
G75*
G02*
X258565000Y-91750000I0J150000D01*
G01*
X258565000Y-90300000D01*
G75*
G02*
X258715000Y-90150000I150000J0D01*
G01*
X259015000Y-90150000D01*
G75*
G02*
X259165000Y-90300000I0J-150000D01*
G01*
X259165000Y-91750000D01*
G75*
G02*
X259015000Y-91900000I-150000J0D01*
G01*
G37*
G36*
G01*
X257745000Y-91900000D02*
X257445000Y-91900000D01*
G75*
G02*
X257295000Y-91750000I0J150000D01*
G01*
X257295000Y-90300000D01*
G75*
G02*
X257445000Y-90150000I150000J0D01*
G01*
X257745000Y-90150000D01*
G75*
G02*
X257895000Y-90300000I0J-150000D01*
G01*
X257895000Y-91750000D01*
G75*
G02*
X257745000Y-91900000I-150000J0D01*
G01*
G37*
G36*
G01*
X256475000Y-91900000D02*
X256175000Y-91900000D01*
G75*
G02*
X256025000Y-91750000I0J150000D01*
G01*
X256025000Y-90300000D01*
G75*
G02*
X256175000Y-90150000I150000J0D01*
G01*
X256475000Y-90150000D01*
G75*
G02*
X256625000Y-90300000I0J-150000D01*
G01*
X256625000Y-91750000D01*
G75*
G02*
X256475000Y-91900000I-150000J0D01*
G01*
G37*
%TD*%
D22*
%TO.C,RV1*%
X207395000Y-96105000D03*
X212395000Y-97405000D03*
%TD*%
%TO.C,R25*%
G36*
G01*
X166155000Y-95115000D02*
X166155000Y-95665000D01*
G75*
G02*
X165955000Y-95865000I-200000J0D01*
G01*
X165555000Y-95865000D01*
G75*
G02*
X165355000Y-95665000I0J200000D01*
G01*
X165355000Y-95115000D01*
G75*
G02*
X165555000Y-94915000I200000J0D01*
G01*
X165955000Y-94915000D01*
G75*
G02*
X166155000Y-95115000I0J-200000D01*
G01*
G37*
G36*
G01*
X164505000Y-95115000D02*
X164505000Y-95665000D01*
G75*
G02*
X164305000Y-95865000I-200000J0D01*
G01*
X163905000Y-95865000D01*
G75*
G02*
X163705000Y-95665000I0J200000D01*
G01*
X163705000Y-95115000D01*
G75*
G02*
X163905000Y-94915000I200000J0D01*
G01*
X164305000Y-94915000D01*
G75*
G02*
X164505000Y-95115000I0J-200000D01*
G01*
G37*
%TD*%
%TO.C,R23*%
G36*
G01*
X171300000Y-93745000D02*
X171850000Y-93745000D01*
G75*
G02*
X172050000Y-93945000I0J-200000D01*
G01*
X172050000Y-94345000D01*
G75*
G02*
X171850000Y-94545000I-200000J0D01*
G01*
X171300000Y-94545000D01*
G75*
G02*
X171100000Y-94345000I0J200000D01*
G01*
X171100000Y-93945000D01*
G75*
G02*
X171300000Y-93745000I200000J0D01*
G01*
G37*
G36*
G01*
X171300000Y-95395000D02*
X171850000Y-95395000D01*
G75*
G02*
X172050000Y-95595000I0J-200000D01*
G01*
X172050000Y-95995000D01*
G75*
G02*
X171850000Y-96195000I-200000J0D01*
G01*
X171300000Y-96195000D01*
G75*
G02*
X171100000Y-95995000I0J200000D01*
G01*
X171100000Y-95595000D01*
G75*
G02*
X171300000Y-95395000I200000J0D01*
G01*
G37*
%TD*%
D13*
%TO.C,J2*%
X73700000Y-56425000D03*
G36*
G01*
X104700000Y-54875000D02*
X104700000Y-57975000D01*
G75*
G02*
X104450000Y-58225000I-250000J0D01*
G01*
X102950000Y-58225000D01*
G75*
G02*
X102700000Y-57975000I0J250000D01*
G01*
X102700000Y-54875000D01*
G75*
G02*
X102950000Y-54625000I250000J0D01*
G01*
X104450000Y-54625000D01*
G75*
G02*
X104700000Y-54875000I0J-250000D01*
G01*
G37*
X93700000Y-56425000D03*
X78700000Y-56425000D03*
X98700000Y-56425000D03*
X88700000Y-56425000D03*
X68700000Y-56425000D03*
X83700000Y-56425000D03*
%TD*%
%TO.C,D3*%
G36*
G01*
X165531250Y-99657500D02*
X164618750Y-99657500D01*
G75*
G02*
X164375000Y-99413750I0J243750D01*
G01*
X164375000Y-98926250D01*
G75*
G02*
X164618750Y-98682500I243750J0D01*
G01*
X165531250Y-98682500D01*
G75*
G02*
X165775000Y-98926250I0J-243750D01*
G01*
X165775000Y-99413750D01*
G75*
G02*
X165531250Y-99657500I-243750J0D01*
G01*
G37*
G36*
G01*
X165531250Y-97782500D02*
X164618750Y-97782500D01*
G75*
G02*
X164375000Y-97538750I0J243750D01*
G01*
X164375000Y-97051250D01*
G75*
G02*
X164618750Y-96807500I243750J0D01*
G01*
X165531250Y-96807500D01*
G75*
G02*
X165775000Y-97051250I0J-243750D01*
G01*
X165775000Y-97538750D01*
G75*
G02*
X165531250Y-97782500I-243750J0D01*
G01*
G37*
%TD*%
D23*
%TO.C,BT1*%
X239470000Y-96960000D03*
D22*
X236220000Y-99410000D03*
%TD*%
%TO.C,C2*%
G36*
G01*
X193797500Y-83756250D02*
X193797500Y-83243750D01*
G75*
G02*
X194016250Y-83025000I218750J0D01*
G01*
X194453750Y-83025000D01*
G75*
G02*
X194672500Y-83243750I0J-218750D01*
G01*
X194672500Y-83756250D01*
G75*
G02*
X194453750Y-83975000I-218750J0D01*
G01*
X194016250Y-83975000D01*
G75*
G02*
X193797500Y-83756250I0J218750D01*
G01*
G37*
G36*
G01*
X195372500Y-83756250D02*
X195372500Y-83243750D01*
G75*
G02*
X195591250Y-83025000I218750J0D01*
G01*
X196028750Y-83025000D01*
G75*
G02*
X196247500Y-83243750I0J-218750D01*
G01*
X196247500Y-83756250D01*
G75*
G02*
X196028750Y-83975000I-218750J0D01*
G01*
X195591250Y-83975000D01*
G75*
G02*
X195372500Y-83756250I0J218750D01*
G01*
G37*
%TD*%
%TO.C,R24*%
G36*
G01*
X173150000Y-98795000D02*
X173700000Y-98795000D01*
G75*
G02*
X173900000Y-98995000I0J-200000D01*
G01*
X173900000Y-99395000D01*
G75*
G02*
X173700000Y-99595000I-200000J0D01*
G01*
X173150000Y-99595000D01*
G75*
G02*
X172950000Y-99395000I0J200000D01*
G01*
X172950000Y-98995000D01*
G75*
G02*
X173150000Y-98795000I200000J0D01*
G01*
G37*
G36*
G01*
X173150000Y-97145000D02*
X173700000Y-97145000D01*
G75*
G02*
X173900000Y-97345000I0J-200000D01*
G01*
X173900000Y-97745000D01*
G75*
G02*
X173700000Y-97945000I-200000J0D01*
G01*
X173150000Y-97945000D01*
G75*
G02*
X172950000Y-97745000I0J200000D01*
G01*
X172950000Y-97345000D01*
G75*
G02*
X173150000Y-97145000I200000J0D01*
G01*
G37*
%TD*%
%TO.C,F1*%
G36*
G01*
X203135000Y-101594999D02*
X203135000Y-104445001D01*
G75*
G02*
X202885001Y-104695000I-249999J0D01*
G01*
X202034999Y-104695000D01*
G75*
G02*
X201785000Y-104445001I0J249999D01*
G01*
X201785000Y-101594999D01*
G75*
G02*
X202034999Y-101345000I249999J0D01*
G01*
X202885001Y-101345000D01*
G75*
G02*
X203135000Y-101594999I0J-249999D01*
G01*
G37*
G36*
G01*
X208935000Y-101594999D02*
X208935000Y-104445001D01*
G75*
G02*
X208685001Y-104695000I-249999J0D01*
G01*
X207834999Y-104695000D01*
G75*
G02*
X207585000Y-104445001I0J249999D01*
G01*
X207585000Y-101594999D01*
G75*
G02*
X207834999Y-101345000I249999J0D01*
G01*
X208685001Y-101345000D01*
G75*
G02*
X208935000Y-101594999I0J-249999D01*
G01*
G37*
%TD*%
D20*
%TO.C,D1*%
X205205000Y-91725000D03*
X209205000Y-91725000D03*
%TD*%
%TO.C,R68*%
G36*
G01*
X238205000Y-92300000D02*
X237655000Y-92300000D01*
G75*
G02*
X237455000Y-92100000I0J200000D01*
G01*
X237455000Y-91700000D01*
G75*
G02*
X237655000Y-91500000I200000J0D01*
G01*
X238205000Y-91500000D01*
G75*
G02*
X238405000Y-91700000I0J-200000D01*
G01*
X238405000Y-92100000D01*
G75*
G02*
X238205000Y-92300000I-200000J0D01*
G01*
G37*
G36*
G01*
X238205000Y-93950000D02*
X237655000Y-93950000D01*
G75*
G02*
X237455000Y-93750000I0J200000D01*
G01*
X237455000Y-93350000D01*
G75*
G02*
X237655000Y-93150000I200000J0D01*
G01*
X238205000Y-93150000D01*
G75*
G02*
X238405000Y-93350000I0J-200000D01*
G01*
X238405000Y-93750000D01*
G75*
G02*
X238205000Y-93950000I-200000J0D01*
G01*
G37*
%TD*%
%TO.C,R117*%
G36*
G01*
X237850000Y-60735000D02*
X237300000Y-60735000D01*
G75*
G02*
X237100000Y-60535000I0J200000D01*
G01*
X237100000Y-60135000D01*
G75*
G02*
X237300000Y-59935000I200000J0D01*
G01*
X237850000Y-59935000D01*
G75*
G02*
X238050000Y-60135000I0J-200000D01*
G01*
X238050000Y-60535000D01*
G75*
G02*
X237850000Y-60735000I-200000J0D01*
G01*
G37*
G36*
G01*
X237850000Y-62385000D02*
X237300000Y-62385000D01*
G75*
G02*
X237100000Y-62185000I0J200000D01*
G01*
X237100000Y-61785000D01*
G75*
G02*
X237300000Y-61585000I200000J0D01*
G01*
X237850000Y-61585000D01*
G75*
G02*
X238050000Y-61785000I0J-200000D01*
G01*
X238050000Y-62185000D01*
G75*
G02*
X237850000Y-62385000I-200000J0D01*
G01*
G37*
%TD*%
%TO.C,R118*%
G36*
G01*
X235275000Y-60735000D02*
X234725000Y-60735000D01*
G75*
G02*
X234525000Y-60535000I0J200000D01*
G01*
X234525000Y-60135000D01*
G75*
G02*
X234725000Y-59935000I200000J0D01*
G01*
X235275000Y-59935000D01*
G75*
G02*
X235475000Y-60135000I0J-200000D01*
G01*
X235475000Y-60535000D01*
G75*
G02*
X235275000Y-60735000I-200000J0D01*
G01*
G37*
G36*
G01*
X235275000Y-62385000D02*
X234725000Y-62385000D01*
G75*
G02*
X234525000Y-62185000I0J200000D01*
G01*
X234525000Y-61785000D01*
G75*
G02*
X234725000Y-61585000I200000J0D01*
G01*
X235275000Y-61585000D01*
G75*
G02*
X235475000Y-61785000I0J-200000D01*
G01*
X235475000Y-62185000D01*
G75*
G02*
X235275000Y-62385000I-200000J0D01*
G01*
G37*
%TD*%
%TO.C,R69*%
G36*
G01*
X241085000Y-92300000D02*
X240535000Y-92300000D01*
G75*
G02*
X240335000Y-92100000I0J200000D01*
G01*
X240335000Y-91700000D01*
G75*
G02*
X240535000Y-91500000I200000J0D01*
G01*
X241085000Y-91500000D01*
G75*
G02*
X241285000Y-91700000I0J-200000D01*
G01*
X241285000Y-92100000D01*
G75*
G02*
X241085000Y-92300000I-200000J0D01*
G01*
G37*
G36*
G01*
X241085000Y-93950000D02*
X240535000Y-93950000D01*
G75*
G02*
X240335000Y-93750000I0J200000D01*
G01*
X240335000Y-93350000D01*
G75*
G02*
X240535000Y-93150000I200000J0D01*
G01*
X241085000Y-93150000D01*
G75*
G02*
X241285000Y-93350000I0J-200000D01*
G01*
X241285000Y-93750000D01*
G75*
G02*
X241085000Y-93950000I-200000J0D01*
G01*
G37*
%TD*%
%TO.C,C12*%
G36*
G01*
X164785000Y-93675000D02*
X162785000Y-93675000D01*
G75*
G02*
X162535000Y-93425000I0J250000D01*
G01*
X162535000Y-90425000D01*
G75*
G02*
X162785000Y-90175000I250000J0D01*
G01*
X164785000Y-90175000D01*
G75*
G02*
X165035000Y-90425000I0J-250000D01*
G01*
X165035000Y-93425000D01*
G75*
G02*
X164785000Y-93675000I-250000J0D01*
G01*
G37*
G36*
G01*
X164785000Y-87175000D02*
X162785000Y-87175000D01*
G75*
G02*
X162535000Y-86925000I0J250000D01*
G01*
X162535000Y-83925000D01*
G75*
G02*
X162785000Y-83675000I250000J0D01*
G01*
X164785000Y-83675000D01*
G75*
G02*
X165035000Y-83925000I0J-250000D01*
G01*
X165035000Y-86925000D01*
G75*
G02*
X164785000Y-87175000I-250000J0D01*
G01*
G37*
%TD*%
D13*
%TO.C,ANVDD1*%
X191325000Y-110200000D03*
G36*
G01*
X185325000Y-111750000D02*
X185325000Y-108650000D01*
G75*
G02*
X185575000Y-108400000I250000J0D01*
G01*
X187075000Y-108400000D01*
G75*
G02*
X187325000Y-108650000I0J-250000D01*
G01*
X187325000Y-111750000D01*
G75*
G02*
X187075000Y-112000000I-250000J0D01*
G01*
X185575000Y-112000000D01*
G75*
G02*
X185325000Y-111750000I0J250000D01*
G01*
G37*
%TD*%
D10*
%TO.C,D5*%
X253250000Y-95225000D03*
X251250000Y-96175000D03*
X251250000Y-94275000D03*
%TD*%
%TO.C,R78*%
G36*
G01*
X243455000Y-93150000D02*
X244005000Y-93150000D01*
G75*
G02*
X244205000Y-93350000I0J-200000D01*
G01*
X244205000Y-93750000D01*
G75*
G02*
X244005000Y-93950000I-200000J0D01*
G01*
X243455000Y-93950000D01*
G75*
G02*
X243255000Y-93750000I0J200000D01*
G01*
X243255000Y-93350000D01*
G75*
G02*
X243455000Y-93150000I200000J0D01*
G01*
G37*
G36*
G01*
X243455000Y-91500000D02*
X244005000Y-91500000D01*
G75*
G02*
X244205000Y-91700000I0J-200000D01*
G01*
X244205000Y-92100000D01*
G75*
G02*
X244005000Y-92300000I-200000J0D01*
G01*
X243455000Y-92300000D01*
G75*
G02*
X243255000Y-92100000I0J200000D01*
G01*
X243255000Y-91700000D01*
G75*
G02*
X243455000Y-91500000I200000J0D01*
G01*
G37*
%TD*%
D13*
%TO.C,J14*%
X250160000Y-110160000D03*
X265160000Y-110160000D03*
X245160000Y-110160000D03*
X235160000Y-110160000D03*
X255160000Y-110160000D03*
X240160000Y-110160000D03*
G36*
G01*
X229160000Y-111710000D02*
X229160000Y-108610000D01*
G75*
G02*
X229410000Y-108360000I250000J0D01*
G01*
X230910000Y-108360000D01*
G75*
G02*
X231160000Y-108610000I0J-250000D01*
G01*
X231160000Y-111710000D01*
G75*
G02*
X230910000Y-111960000I-250000J0D01*
G01*
X229410000Y-111960000D01*
G75*
G02*
X229160000Y-111710000I0J250000D01*
G01*
G37*
X260160000Y-110160000D03*
%TD*%
%TO.C,J1*%
X245150000Y-56440000D03*
X230150000Y-56440000D03*
X250150000Y-56440000D03*
X260150000Y-56440000D03*
X240150000Y-56440000D03*
X255150000Y-56440000D03*
G36*
G01*
X266150000Y-54890000D02*
X266150000Y-57990000D01*
G75*
G02*
X265900000Y-58240000I-250000J0D01*
G01*
X264400000Y-58240000D01*
G75*
G02*
X264150000Y-57990000I0J250000D01*
G01*
X264150000Y-54890000D01*
G75*
G02*
X264400000Y-54640000I250000J0D01*
G01*
X265900000Y-54640000D01*
G75*
G02*
X266150000Y-54890000I0J-250000D01*
G01*
G37*
X235150000Y-56440000D03*
%TD*%
%TO.C,R51*%
G36*
G01*
X252125000Y-84100000D02*
X252125000Y-83550000D01*
G75*
G02*
X252325000Y-83350000I200000J0D01*
G01*
X252725000Y-83350000D01*
G75*
G02*
X252925000Y-83550000I0J-200000D01*
G01*
X252925000Y-84100000D01*
G75*
G02*
X252725000Y-84300000I-200000J0D01*
G01*
X252325000Y-84300000D01*
G75*
G02*
X252125000Y-84100000I0J200000D01*
G01*
G37*
G36*
G01*
X250475000Y-84100000D02*
X250475000Y-83550000D01*
G75*
G02*
X250675000Y-83350000I200000J0D01*
G01*
X251075000Y-83350000D01*
G75*
G02*
X251275000Y-83550000I0J-200000D01*
G01*
X251275000Y-84100000D01*
G75*
G02*
X251075000Y-84300000I-200000J0D01*
G01*
X250675000Y-84300000D01*
G75*
G02*
X250475000Y-84100000I0J200000D01*
G01*
G37*
%TD*%
%TO.C,J5*%
X39800000Y-56425000D03*
X24800000Y-56425000D03*
X44800000Y-56425000D03*
X54800000Y-56425000D03*
X34800000Y-56425000D03*
X49800000Y-56425000D03*
G36*
G01*
X60800000Y-54875000D02*
X60800000Y-57975000D01*
G75*
G02*
X60550000Y-58225000I-250000J0D01*
G01*
X59050000Y-58225000D01*
G75*
G02*
X58800000Y-57975000I0J250000D01*
G01*
X58800000Y-54875000D01*
G75*
G02*
X59050000Y-54625000I250000J0D01*
G01*
X60550000Y-54625000D01*
G75*
G02*
X60800000Y-54875000I0J-250000D01*
G01*
G37*
X29800000Y-56425000D03*
%TD*%
D24*
%TO.C,SW1*%
X264810000Y-81080000D03*
X264810000Y-85580000D03*
X258310000Y-81080000D03*
X258310000Y-85580000D03*
%TD*%
%TO.C,C59*%
G36*
G01*
X263040000Y-95955000D02*
X263040000Y-96455000D01*
G75*
G02*
X262815000Y-96680000I-225000J0D01*
G01*
X262365000Y-96680000D01*
G75*
G02*
X262140000Y-96455000I0J225000D01*
G01*
X262140000Y-95955000D01*
G75*
G02*
X262365000Y-95730000I225000J0D01*
G01*
X262815000Y-95730000D01*
G75*
G02*
X263040000Y-95955000I0J-225000D01*
G01*
G37*
G36*
G01*
X264590000Y-95955000D02*
X264590000Y-96455000D01*
G75*
G02*
X264365000Y-96680000I-225000J0D01*
G01*
X263915000Y-96680000D01*
G75*
G02*
X263690000Y-96455000I0J225000D01*
G01*
X263690000Y-95955000D01*
G75*
G02*
X263915000Y-95730000I225000J0D01*
G01*
X264365000Y-95730000D01*
G75*
G02*
X264590000Y-95955000I0J-225000D01*
G01*
G37*
%TD*%
%TO.C,C1*%
G36*
G01*
X199995000Y-87675000D02*
X197995000Y-87675000D01*
G75*
G02*
X197745000Y-87425000I0J250000D01*
G01*
X197745000Y-84425000D01*
G75*
G02*
X197995000Y-84175000I250000J0D01*
G01*
X199995000Y-84175000D01*
G75*
G02*
X200245000Y-84425000I0J-250000D01*
G01*
X200245000Y-87425000D01*
G75*
G02*
X199995000Y-87675000I-250000J0D01*
G01*
G37*
G36*
G01*
X199995000Y-94175000D02*
X197995000Y-94175000D01*
G75*
G02*
X197745000Y-93925000I0J250000D01*
G01*
X197745000Y-90925000D01*
G75*
G02*
X197995000Y-90675000I250000J0D01*
G01*
X199995000Y-90675000D01*
G75*
G02*
X200245000Y-90925000I0J-250000D01*
G01*
X200245000Y-93925000D01*
G75*
G02*
X199995000Y-94175000I-250000J0D01*
G01*
G37*
%TD*%
D13*
%TO.C,J9*%
X171445000Y-56430000D03*
X156445000Y-56430000D03*
X176445000Y-56430000D03*
X186445000Y-56430000D03*
X166445000Y-56430000D03*
X181445000Y-56430000D03*
G36*
G01*
X192445000Y-54880000D02*
X192445000Y-57980000D01*
G75*
G02*
X192195000Y-58230000I-250000J0D01*
G01*
X190695000Y-58230000D01*
G75*
G02*
X190445000Y-57980000I0J250000D01*
G01*
X190445000Y-54880000D01*
G75*
G02*
X190695000Y-54630000I250000J0D01*
G01*
X192195000Y-54630000D01*
G75*
G02*
X192445000Y-54880000I0J-250000D01*
G01*
G37*
X161445000Y-56430000D03*
%TD*%
%TO.C,R42*%
G36*
G01*
X251300000Y-86000000D02*
X251300000Y-86550000D01*
G75*
G02*
X251100000Y-86750000I-200000J0D01*
G01*
X250700000Y-86750000D01*
G75*
G02*
X250500000Y-86550000I0J200000D01*
G01*
X250500000Y-86000000D01*
G75*
G02*
X250700000Y-85800000I200000J0D01*
G01*
X251100000Y-85800000D01*
G75*
G02*
X251300000Y-86000000I0J-200000D01*
G01*
G37*
G36*
G01*
X252950000Y-86000000D02*
X252950000Y-86550000D01*
G75*
G02*
X252750000Y-86750000I-200000J0D01*
G01*
X252350000Y-86750000D01*
G75*
G02*
X252150000Y-86550000I0J200000D01*
G01*
X252150000Y-86000000D01*
G75*
G02*
X252350000Y-85800000I200000J0D01*
G01*
X252750000Y-85800000D01*
G75*
G02*
X252950000Y-86000000I0J-200000D01*
G01*
G37*
%TD*%
%TO.C,L2*%
G36*
G01*
X158467500Y-84868750D02*
X158467500Y-85781250D01*
G75*
G02*
X158223750Y-86025000I-243750J0D01*
G01*
X157736250Y-86025000D01*
G75*
G02*
X157492500Y-85781250I0J243750D01*
G01*
X157492500Y-84868750D01*
G75*
G02*
X157736250Y-84625000I243750J0D01*
G01*
X158223750Y-84625000D01*
G75*
G02*
X158467500Y-84868750I0J-243750D01*
G01*
G37*
G36*
G01*
X156592500Y-84868750D02*
X156592500Y-85781250D01*
G75*
G02*
X156348750Y-86025000I-243750J0D01*
G01*
X155861250Y-86025000D01*
G75*
G02*
X155617500Y-85781250I0J243750D01*
G01*
X155617500Y-84868750D01*
G75*
G02*
X155861250Y-84625000I243750J0D01*
G01*
X156348750Y-84625000D01*
G75*
G02*
X156592500Y-84868750I0J-243750D01*
G01*
G37*
%TD*%
%TO.C,J6*%
X88715000Y-110150000D03*
X103715000Y-110150000D03*
X83715000Y-110150000D03*
X73715000Y-110150000D03*
X93715000Y-110150000D03*
X78715000Y-110150000D03*
G36*
G01*
X67715000Y-111700000D02*
X67715000Y-108600000D01*
G75*
G02*
X67965000Y-108350000I250000J0D01*
G01*
X69465000Y-108350000D01*
G75*
G02*
X69715000Y-108600000I0J-250000D01*
G01*
X69715000Y-111700000D01*
G75*
G02*
X69465000Y-111950000I-250000J0D01*
G01*
X67965000Y-111950000D01*
G75*
G02*
X67715000Y-111700000I0J250000D01*
G01*
G37*
X98715000Y-110150000D03*
%TD*%
%TO.C,C29*%
G36*
G01*
X252410000Y-77310000D02*
X252410000Y-77810000D01*
G75*
G02*
X252185000Y-78035000I-225000J0D01*
G01*
X251735000Y-78035000D01*
G75*
G02*
X251510000Y-77810000I0J225000D01*
G01*
X251510000Y-77310000D01*
G75*
G02*
X251735000Y-77085000I225000J0D01*
G01*
X252185000Y-77085000D01*
G75*
G02*
X252410000Y-77310000I0J-225000D01*
G01*
G37*
G36*
G01*
X253960000Y-77310000D02*
X253960000Y-77810000D01*
G75*
G02*
X253735000Y-78035000I-225000J0D01*
G01*
X253285000Y-78035000D01*
G75*
G02*
X253060000Y-77810000I0J225000D01*
G01*
X253060000Y-77310000D01*
G75*
G02*
X253285000Y-77085000I225000J0D01*
G01*
X253735000Y-77085000D01*
G75*
G02*
X253960000Y-77310000I0J-225000D01*
G01*
G37*
%TD*%
D25*
%TO.C,D4*%
X254600000Y-80650000D03*
X251100000Y-80650000D03*
%TD*%
D13*
%TO.C,J3*%
X44855000Y-110175000D03*
X59855000Y-110175000D03*
X39855000Y-110175000D03*
X29855000Y-110175000D03*
X49855000Y-110175000D03*
X34855000Y-110175000D03*
G36*
G01*
X23855000Y-111725000D02*
X23855000Y-108625000D01*
G75*
G02*
X24105000Y-108375000I250000J0D01*
G01*
X25605000Y-108375000D01*
G75*
G02*
X25855000Y-108625000I0J-250000D01*
G01*
X25855000Y-111725000D01*
G75*
G02*
X25605000Y-111975000I-250000J0D01*
G01*
X24105000Y-111975000D01*
G75*
G02*
X23855000Y-111725000I0J250000D01*
G01*
G37*
X54855000Y-110175000D03*
%TD*%
%TO.C,J7*%
X127575000Y-56470000D03*
X112575000Y-56470000D03*
X132575000Y-56470000D03*
X142575000Y-56470000D03*
X122575000Y-56470000D03*
X137575000Y-56470000D03*
G36*
G01*
X148575000Y-54920000D02*
X148575000Y-58020000D01*
G75*
G02*
X148325000Y-58270000I-250000J0D01*
G01*
X146825000Y-58270000D01*
G75*
G02*
X146575000Y-58020000I0J250000D01*
G01*
X146575000Y-54920000D01*
G75*
G02*
X146825000Y-54670000I250000J0D01*
G01*
X148325000Y-54670000D01*
G75*
G02*
X148575000Y-54920000I0J-250000D01*
G01*
G37*
X117575000Y-56470000D03*
%TD*%
D26*
%TO.C,L1*%
X174855000Y-90675000D03*
X174855000Y-80775000D03*
%TD*%
%TO.C,C4*%
G36*
G01*
X69535000Y-75735000D02*
X70035000Y-75735000D01*
G75*
G02*
X70260000Y-75960000I0J-225000D01*
G01*
X70260000Y-76410000D01*
G75*
G02*
X70035000Y-76635000I-225000J0D01*
G01*
X69535000Y-76635000D01*
G75*
G02*
X69310000Y-76410000I0J225000D01*
G01*
X69310000Y-75960000D01*
G75*
G02*
X69535000Y-75735000I225000J0D01*
G01*
G37*
G36*
G01*
X69535000Y-74185000D02*
X70035000Y-74185000D01*
G75*
G02*
X70260000Y-74410000I0J-225000D01*
G01*
X70260000Y-74860000D01*
G75*
G02*
X70035000Y-75085000I-225000J0D01*
G01*
X69535000Y-75085000D01*
G75*
G02*
X69310000Y-74860000I0J225000D01*
G01*
X69310000Y-74410000D01*
G75*
G02*
X69535000Y-74185000I225000J0D01*
G01*
G37*
%TD*%
D27*
%TO.C,U9*%
X191240000Y-85360000D03*
X189540000Y-85360000D03*
X187840000Y-85360000D03*
X186140000Y-85360000D03*
X184440000Y-85360000D03*
D28*
X187840000Y-94510000D03*
%TD*%
%TO.C,C11*%
G36*
G01*
X175530000Y-95285000D02*
X176480000Y-95285000D01*
G75*
G02*
X176730000Y-95535000I0J-250000D01*
G01*
X176730000Y-96035000D01*
G75*
G02*
X176480000Y-96285000I-250000J0D01*
G01*
X175530000Y-96285000D01*
G75*
G02*
X175280000Y-96035000I0J250000D01*
G01*
X175280000Y-95535000D01*
G75*
G02*
X175530000Y-95285000I250000J0D01*
G01*
G37*
G36*
G01*
X175530000Y-93385000D02*
X176480000Y-93385000D01*
G75*
G02*
X176730000Y-93635000I0J-250000D01*
G01*
X176730000Y-94135000D01*
G75*
G02*
X176480000Y-94385000I-250000J0D01*
G01*
X175530000Y-94385000D01*
G75*
G02*
X175280000Y-94135000I0J250000D01*
G01*
X175280000Y-93635000D01*
G75*
G02*
X175530000Y-93385000I250000J0D01*
G01*
G37*
%TD*%
D17*
%TO.C,I2C1*%
X240080000Y-69370000D03*
X237540000Y-69370000D03*
X235000000Y-69370000D03*
D18*
X232460000Y-69370000D03*
%TD*%
D13*
%TO.C,J10*%
X171475000Y-110140000D03*
X166475000Y-110140000D03*
X161475000Y-110140000D03*
G36*
G01*
X155475000Y-111690000D02*
X155475000Y-108590000D01*
G75*
G02*
X155725000Y-108340000I250000J0D01*
G01*
X157225000Y-108340000D01*
G75*
G02*
X157475000Y-108590000I0J-250000D01*
G01*
X157475000Y-111690000D01*
G75*
G02*
X157225000Y-111940000I-250000J0D01*
G01*
X155725000Y-111940000D01*
G75*
G02*
X155475000Y-111690000I0J250000D01*
G01*
G37*
%TD*%
M02*
