%TF.GenerationSoftware,KiCad,Pcbnew,(5.1.12)-1*%
%TF.CreationDate,2021-12-06T16:24:31+01:00*%
%TF.ProjectId,boneIO_input board,626f6e65-494f-45f6-996e-70757420626f,rev?*%
%TF.SameCoordinates,Original*%
%TF.FileFunction,Legend,Bot*%
%TF.FilePolarity,Positive*%
%FSLAX46Y46*%
G04 Gerber Fmt 4.6, Leading zero omitted, Abs format (unit mm)*
G04 Created by KiCad (PCBNEW (5.1.12)-1) date 2021-12-06 16:24:31*
%MOMM*%
%LPD*%
G01*
G04 APERTURE LIST*
%ADD10C,0.300000*%
%ADD11C,0.200000*%
%ADD12C,0.150000*%
%ADD13C,0.120000*%
G04 APERTURE END LIST*
D10*
X251292142Y-76554285D02*
X249863571Y-75554285D01*
X251292142Y-74840000D02*
X248292142Y-74840000D01*
X248292142Y-75982857D01*
X248435000Y-76268571D01*
X248577857Y-76411428D01*
X248863571Y-76554285D01*
X249292142Y-76554285D01*
X249577857Y-76411428D01*
X249720714Y-76268571D01*
X249863571Y-75982857D01*
X249863571Y-74840000D01*
X251149285Y-77697142D02*
X251292142Y-78125714D01*
X251292142Y-78840000D01*
X251149285Y-79125714D01*
X251006428Y-79268571D01*
X250720714Y-79411428D01*
X250435000Y-79411428D01*
X250149285Y-79268571D01*
X250006428Y-79125714D01*
X249863571Y-78840000D01*
X249720714Y-78268571D01*
X249577857Y-77982857D01*
X249435000Y-77840000D01*
X249149285Y-77697142D01*
X248863571Y-77697142D01*
X248577857Y-77840000D01*
X248435000Y-77982857D01*
X248292142Y-78268571D01*
X248292142Y-78982857D01*
X248435000Y-79411428D01*
X249292142Y-81982857D02*
X251292142Y-81982857D01*
X248149285Y-81268571D02*
X250292142Y-80554285D01*
X250292142Y-82411428D01*
X249577857Y-83982857D02*
X249435000Y-83697142D01*
X249292142Y-83554285D01*
X249006428Y-83411428D01*
X248863571Y-83411428D01*
X248577857Y-83554285D01*
X248435000Y-83697142D01*
X248292142Y-83982857D01*
X248292142Y-84554285D01*
X248435000Y-84840000D01*
X248577857Y-84982857D01*
X248863571Y-85125714D01*
X249006428Y-85125714D01*
X249292142Y-84982857D01*
X249435000Y-84840000D01*
X249577857Y-84554285D01*
X249577857Y-83982857D01*
X249720714Y-83697142D01*
X249863571Y-83554285D01*
X250149285Y-83411428D01*
X250720714Y-83411428D01*
X251006428Y-83554285D01*
X251149285Y-83697142D01*
X251292142Y-83982857D01*
X251292142Y-84554285D01*
X251149285Y-84840000D01*
X251006428Y-84982857D01*
X250720714Y-85125714D01*
X250149285Y-85125714D01*
X249863571Y-84982857D01*
X249720714Y-84840000D01*
X249577857Y-84554285D01*
X248292142Y-87840000D02*
X248292142Y-86411428D01*
X249720714Y-86268571D01*
X249577857Y-86411428D01*
X249435000Y-86697142D01*
X249435000Y-87411428D01*
X249577857Y-87697142D01*
X249720714Y-87840000D01*
X250006428Y-87982857D01*
X250720714Y-87982857D01*
X251006428Y-87840000D01*
X251149285Y-87697142D01*
X251292142Y-87411428D01*
X251292142Y-86697142D01*
X251149285Y-86411428D01*
X251006428Y-86268571D01*
D11*
X247981904Y-109216666D02*
X247981904Y-108835714D01*
X247181904Y-108835714D01*
X247753333Y-109445238D02*
X247753333Y-109826190D01*
X247981904Y-109369047D02*
X247181904Y-109635714D01*
X247981904Y-109902380D01*
X247981904Y-110169047D02*
X247181904Y-110169047D01*
X247981904Y-110626190D01*
X247181904Y-110626190D01*
X247143809Y-111578571D02*
X248172380Y-110892857D01*
X247562857Y-112111904D02*
X247600952Y-112226190D01*
X247639047Y-112264285D01*
X247715238Y-112302380D01*
X247829523Y-112302380D01*
X247905714Y-112264285D01*
X247943809Y-112226190D01*
X247981904Y-112150000D01*
X247981904Y-111845238D01*
X247181904Y-111845238D01*
X247181904Y-112111904D01*
X247220000Y-112188095D01*
X247258095Y-112226190D01*
X247334285Y-112264285D01*
X247410476Y-112264285D01*
X247486666Y-112226190D01*
X247524761Y-112188095D01*
X247562857Y-112111904D01*
X247562857Y-111845238D01*
X247562857Y-112911904D02*
X247600952Y-113026190D01*
X247639047Y-113064285D01*
X247715238Y-113102380D01*
X247829523Y-113102380D01*
X247905714Y-113064285D01*
X247943809Y-113026190D01*
X247981904Y-112950000D01*
X247981904Y-112645238D01*
X247181904Y-112645238D01*
X247181904Y-112911904D01*
X247220000Y-112988095D01*
X247258095Y-113026190D01*
X247334285Y-113064285D01*
X247410476Y-113064285D01*
X247486666Y-113026190D01*
X247524761Y-112988095D01*
X247562857Y-112911904D01*
X247562857Y-112645238D01*
X247562857Y-113711904D02*
X247600952Y-113826190D01*
X247639047Y-113864285D01*
X247715238Y-113902380D01*
X247829523Y-113902380D01*
X247905714Y-113864285D01*
X247943809Y-113826190D01*
X247981904Y-113750000D01*
X247981904Y-113445238D01*
X247181904Y-113445238D01*
X247181904Y-113711904D01*
X247220000Y-113788095D01*
X247258095Y-113826190D01*
X247334285Y-113864285D01*
X247410476Y-113864285D01*
X247486666Y-113826190D01*
X247524761Y-113788095D01*
X247562857Y-113711904D01*
X247562857Y-113445238D01*
X251228095Y-106092380D02*
X250990000Y-107092380D01*
X250799523Y-106378095D01*
X250609047Y-107092380D01*
X250370952Y-106092380D01*
X250037619Y-106806666D02*
X249561428Y-106806666D01*
X250132857Y-107092380D02*
X249799523Y-106092380D01*
X249466190Y-107092380D01*
X248561428Y-107092380D02*
X248894761Y-106616190D01*
X249132857Y-107092380D02*
X249132857Y-106092380D01*
X248751904Y-106092380D01*
X248656666Y-106140000D01*
X248609047Y-106187619D01*
X248561428Y-106282857D01*
X248561428Y-106425714D01*
X248609047Y-106520952D01*
X248656666Y-106568571D01*
X248751904Y-106616190D01*
X249132857Y-106616190D01*
X248132857Y-107092380D02*
X248132857Y-106092380D01*
X247561428Y-107092380D01*
X247561428Y-106092380D01*
X247085238Y-107092380D02*
X247085238Y-106092380D01*
X246609047Y-107092380D02*
X246609047Y-106092380D01*
X246037619Y-107092380D01*
X246037619Y-106092380D01*
X245037619Y-106140000D02*
X245132857Y-106092380D01*
X245275714Y-106092380D01*
X245418571Y-106140000D01*
X245513809Y-106235238D01*
X245561428Y-106330476D01*
X245609047Y-106520952D01*
X245609047Y-106663809D01*
X245561428Y-106854285D01*
X245513809Y-106949523D01*
X245418571Y-107044761D01*
X245275714Y-107092380D01*
X245180476Y-107092380D01*
X245037619Y-107044761D01*
X244990000Y-106997142D01*
X244990000Y-106663809D01*
X245180476Y-106663809D01*
X244561428Y-106997142D02*
X244513809Y-107044761D01*
X244561428Y-107092380D01*
X244609047Y-107044761D01*
X244561428Y-106997142D01*
X244561428Y-107092380D01*
X244561428Y-106711428D02*
X244609047Y-106140000D01*
X244561428Y-106092380D01*
X244513809Y-106140000D01*
X244561428Y-106711428D01*
X244561428Y-106092380D01*
X244085238Y-106997142D02*
X244037619Y-107044761D01*
X244085238Y-107092380D01*
X244132857Y-107044761D01*
X244085238Y-106997142D01*
X244085238Y-107092380D01*
X244085238Y-106711428D02*
X244132857Y-106140000D01*
X244085238Y-106092380D01*
X244037619Y-106140000D01*
X244085238Y-106711428D01*
X244085238Y-106092380D01*
X243609047Y-106997142D02*
X243561428Y-107044761D01*
X243609047Y-107092380D01*
X243656666Y-107044761D01*
X243609047Y-106997142D01*
X243609047Y-107092380D01*
X243609047Y-106711428D02*
X243656666Y-106140000D01*
X243609047Y-106092380D01*
X243561428Y-106140000D01*
X243609047Y-106711428D01*
X243609047Y-106092380D01*
D12*
X246810000Y-108040000D02*
X248320000Y-108040000D01*
X245560000Y-114930000D02*
X247570000Y-117990000D01*
X246810000Y-114930000D02*
X245560000Y-114930000D01*
X247570000Y-117990000D02*
X249570000Y-114900000D01*
X248320000Y-108040000D02*
X248320000Y-114900000D01*
X246810000Y-108050000D02*
X246810000Y-114910000D01*
X249570000Y-114900000D02*
X248320000Y-114900000D01*
D13*
%TO.C,U61*%
X257110000Y-61690000D02*
X257110000Y-104490000D01*
X241890000Y-61690000D02*
X257110000Y-61690000D01*
X241890000Y-104490000D02*
X257110000Y-104490000D01*
X241890000Y-61690000D02*
X241890000Y-104490000D01*
%TO.C,J13*%
X108310000Y-80420000D02*
X108310000Y-83020000D01*
X108310000Y-80420000D02*
X118590000Y-80420000D01*
X118590000Y-80420000D02*
X118590000Y-85620000D01*
X110910000Y-85620000D02*
X118590000Y-85620000D01*
X110910000Y-83020000D02*
X110910000Y-85620000D01*
X108310000Y-83020000D02*
X110910000Y-83020000D01*
X108310000Y-85620000D02*
X109640000Y-85620000D01*
X108310000Y-84290000D02*
X108310000Y-85620000D01*
%TO.C,U61*%
D12*
X239452380Y-59541904D02*
X240261904Y-59541904D01*
X240357142Y-59589523D01*
X240404761Y-59637142D01*
X240452380Y-59732380D01*
X240452380Y-59922857D01*
X240404761Y-60018095D01*
X240357142Y-60065714D01*
X240261904Y-60113333D01*
X239452380Y-60113333D01*
X239452380Y-61018095D02*
X239452380Y-60827619D01*
X239500000Y-60732380D01*
X239547619Y-60684761D01*
X239690476Y-60589523D01*
X239880952Y-60541904D01*
X240261904Y-60541904D01*
X240357142Y-60589523D01*
X240404761Y-60637142D01*
X240452380Y-60732380D01*
X240452380Y-60922857D01*
X240404761Y-61018095D01*
X240357142Y-61065714D01*
X240261904Y-61113333D01*
X240023809Y-61113333D01*
X239928571Y-61065714D01*
X239880952Y-61018095D01*
X239833333Y-60922857D01*
X239833333Y-60732380D01*
X239880952Y-60637142D01*
X239928571Y-60589523D01*
X240023809Y-60541904D01*
X240452380Y-62065714D02*
X240452380Y-61494285D01*
X240452380Y-61780000D02*
X239452380Y-61780000D01*
X239595238Y-61684761D01*
X239690476Y-61589523D01*
X239738095Y-61494285D01*
%TO.C,J13*%
X106322380Y-82210476D02*
X107036666Y-82210476D01*
X107179523Y-82162857D01*
X107274761Y-82067619D01*
X107322380Y-81924761D01*
X107322380Y-81829523D01*
X107322380Y-83210476D02*
X107322380Y-82639047D01*
X107322380Y-82924761D02*
X106322380Y-82924761D01*
X106465238Y-82829523D01*
X106560476Y-82734285D01*
X106608095Y-82639047D01*
X106322380Y-83543809D02*
X106322380Y-84162857D01*
X106703333Y-83829523D01*
X106703333Y-83972380D01*
X106750952Y-84067619D01*
X106798571Y-84115238D01*
X106893809Y-84162857D01*
X107131904Y-84162857D01*
X107227142Y-84115238D01*
X107274761Y-84067619D01*
X107322380Y-83972380D01*
X107322380Y-83686666D01*
X107274761Y-83591428D01*
X107227142Y-83543809D01*
%TD*%
M02*
